<svg id="Layer_1" data-name="Layer 1" xmlns="http://www.w3.org/2000/svg" xmlns:xlink="http://www.w3.org/1999/xlink" viewBox="0 0 144 104"><defs><style>.cls-1{fill:none;}.cls-2{clip-path:url(#clip-path);}.cls-3{fill:#32a572;}.cls-4{fill:#6bb48d;}.cls-5{opacity:0.4;}.cls-6{fill:#2b9a67;}.cls-7{fill:#ddf0e5;}.cls-8{fill:#005425;}.cls-9{fill:#c2e3d0;}.cls-10{fill:#fff;}</style><clipPath id="clip-path"><rect class="cls-1" width="144" height="104"/></clipPath></defs><g class="cls-2"><rect class="cls-3" x="-2.79" y="-2.02" width="149.59" height="108.03"/><path class="cls-4" d="M29.83,68.89c3,15.78-10.75,17.66-20.06,17.66S-10.65,82-8.61,68.4c2-13.07,9.06-34.69,18.38-34.69S27,54.25,29.83,68.89Z"/><path class="cls-4" d="M54.32,75.76c1.77,15.85-9.78,18.51-19,18.51S15.17,90,16.41,76.35C17.72,62,26.06,41.43,35.3,41.43S52.7,61.24,54.32,75.76Z"/><path class="cls-4" d="M153.72,60.22c1.35,18.72-7.47,21.85-14.52,21.85S123.83,77,124.78,60.92c1-16.88,7.37-41.22,14.42-41.22S152.48,43.09,153.72,60.22Z"/><rect class="cls-4" y="71" width="144" height="33"/><g class="cls-5"><path class="cls-6" d="M114.77,89.56a.6.6,0,0,0-.76-.39L102.7,92.86C98.25,90.68,90,90.37,75.63,94.4a6.46,6.46,0,0,0-1.3-1.05L84.59,90a.59.59,0,0,0,.38-.76.59.59,0,0,0-.75-.38L72.9,92.55c-5.05-2.48-15-2.54-33.23,3.4-20.1,6.54-44,17.8-39.12,20.47,3.13,1.7,17.18-.48,32.17-4-2.75,1.94-3.83,3.49-2.38,4.28,4.92,2.67,36.85-4.25,56.94-10.78,20.3-6.61,20.79-9.75,16.84-12.3l10.26-3.34A.6.6,0,0,0,114.77,89.56Z"/></g><path class="cls-7" d="M131.67,51.78c0,25.18-7.82,28.44-17.47,28.44S96.73,73.36,96.73,51.78c0-23.1,7.82-55.22,17.47-55.22S131.67,28.68,131.67,51.78Z"/><path class="cls-8" d="M114.2,90a.6.6,0,0,1-.6-.6V40.24a.6.6,0,1,1,1.2,0v49.2A.6.6,0,0,1,114.2,90Z"/><path class="cls-8" d="M114.36,70.35a.66.66,0,0,1-.27-.06.61.61,0,0,1-.26-.81L119.61,58a.59.59,0,0,1,.8-.27.6.6,0,0,1,.27.81L114.9,70A.61.61,0,0,1,114.36,70.35Z"/><path class="cls-9" d="M102.25,67.41c0,14.33-8.28,16.18-18.5,16.18s-18.51-3.9-18.51-16.18C65.24,46.62,73.52,36,83.75,36S102.25,44.8,102.25,67.41Z"/><path class="cls-8" d="M84.4,90a.6.6,0,0,1-.6-.6V62.09a.6.6,0,0,1,.6-.6.6.6,0,0,1,.6.6V89.44A.6.6,0,0,1,84.4,90Z"/><path class="cls-8" d="M84.74,78.06a.56.56,0,0,1-.25,0,.6.6,0,0,1-.29-.8l3.56-7.79a.6.6,0,0,1,.8-.29.59.59,0,0,1,.29.79l-3.56,7.79A.6.6,0,0,1,84.74,78.06Z"/></g><path class="cls-10" d="M22.18,86.64a8.54,8.54,0,0,1-3.51-4A7.62,7.62,0,0,1,15.15,87l-1-1.22a7.13,7.13,0,0,0,3.7-6.43v-.75h-3V77.23h7.58v1.33h-2.9v.75a6.8,6.8,0,0,0,3.6,6.14Zm3.34-5.32h2.16V82.7H25.52V90H23.87V75.74h1.65Z"/><path class="cls-10" d="M32.19,83.81a3.5,3.5,0,1,1,0-7,3.5,3.5,0,1,1,0,7Zm0-5.62a2.11,2.11,0,1,0,2,2.13A2,2,0,0,0,32.19,78.19ZM30.64,89.58V85.13h1.63v3.14h8v1.31Zm5.54-8.29h2.2V79.05h-2.2l0-1.33h2.24v-2H40V86.08H38.38V82.62H36.14Z"/></svg>