<svg id="Layer_1" data-name="Layer 1" xmlns="http://www.w3.org/2000/svg" xmlns:xlink="http://www.w3.org/1999/xlink" viewBox="0 0 375 152"><defs><style>.cls-1{fill:none;}.cls-2{clip-path:url(#clip-path);}.cls-3{fill:#ffd400;}.cls-4{fill:#ffeca8;}.cls-5{fill:#fff6d3;}.cls-6{fill:#fffbec;}.cls-7{fill:#fb0;}.cls-8{fill:#ffe682;}.cls-9{fill:#ffca00;}.cls-10{opacity:0.8;}.cls-11{fill:#171717;}</style><clipPath id="clip-path"><rect class="cls-1" width="375" height="152"/></clipPath></defs><g class="cls-2"><rect class="cls-3" x="-5.56" y="-4.03" width="383.32" height="159.11"/><path class="cls-4" d="M256.37,38C260,54.23,251,68,239,70.71s-25.72-5.54-30.45-21.53c-5.9-20,6.11-30.95,18.11-33.64S252.19,19.27,256.37,38Z"/><path class="cls-5" d="M229,55.35c7.22,10.12,5.82,24.39-2.61,29.58s-23.93,1.89-30.78-8.56c-7.58-11.56-3.8-22.88,4.63-28.07S220.68,43.73,229,55.35Z"/><path class="cls-5" d="M225.46,83.12l.45,3.28a.72.72,0,0,0,1.09.52l2.62-1.61a.72.72,0,0,0,0-1.25l-3.07-1.67A.72.72,0,0,0,225.46,83.12Z"/><path class="cls-4" d="M238.25,68.45l-.94,4.42a1,1,0,0,0,1.2,1.12l4.08-1.17a1,1,0,0,0,.43-1.59L239.88,68A1,1,0,0,0,238.25,68.45Z"/><path class="cls-6" d="M257.23,156.41a33,33,0,0,0-7.39-7.92c-4.26-3.45-6.83-5.52-9.65-25.1-5-34.85-12.28-37.53-12.35-37.55l.27-.87c.32.1,7.88,2.88,13,38.29,2.77,19.22,5.23,21.22,9.32,24.52a34.25,34.25,0,0,1,7.57,8.11Z"/><path class="cls-5" d="M250.22,153.29c-7.6-15.06-7.24-27.5-7-36.59,0-1.46.08-2.85.09-4.17.15-27.11-3.15-39.82-3.18-39.95l.88-.23c0,.12,3.36,12.93,3.21,40.18,0,1.33-.05,2.73-.09,4.2-.28,9.48-.62,21.29,6.88,36.15Z"/><path class="cls-7" d="M329.48,129.17c-3.35,12.36-28.07,16.56-55.2,9.39s-46.42-23-43.07-35.4c1.37-5.06,6.32-8.75,13.55-10.86,7.42-26.46,32.82-34.48,50.81-29.71s36.14,24.46,28.86,51.26h0l.08.61C328.83,119.43,330.73,124.54,329.48,129.17Z"/><path class="cls-8" d="M324.91,123.36c-3.13,11.71-26.25,15.69-51.63,8.89S229.87,110.44,233,98.73c1.29-4.79,5.91-8.28,12.67-10.28,7-25.05,30.71-32.65,47.53-28.13s33.8,23.16,27,48.54h0l.07.57C324.3,114.14,326.09,119,324.91,123.36Z"/><path class="cls-9" d="M320.27,109.44a.32.32,0,0,0-.11-.12c-2.09,2.8-7,4.4-13.74,4.7,6.32-25-3.12-43.06-8.66-51a1.65,1.65,0,0,0,.69-.91c.41-1.54-1.91-3.53-5.2-4.4s-6.29-.34-6.71,1.21a1.65,1.65,0,0,0,.14,1.14C278,64.13,260.89,75,253.8,99.48c-5.36-3.68-8.45-7.51-8.41-10.93a30,30,0,0,0-4.84,1.92c.63,3.73,3.35,8.3,10.62,13.21,6.84,4.61,16.54,8.74,27.33,11.64,18,4.82,37.22,5.66,44.64-1.83A26.31,26.31,0,0,0,320.27,109.44ZM258,102A57.72,57.72,0,0,1,278.6,70.74a54.26,54.26,0,0,1,13-7.47l.21-.08.15.17c3.91,4.91,16.83,23.67,9.66,50.43,0,.09,0,.17,0,.25a101.63,101.63,0,0,1-21.75-3.54A97.35,97.35,0,0,1,258,102Z"/><path class="cls-7" d="M291.78,63.19l.15.17a.65.65,0,0,1-.19,0l-.17,0Z"/><g class="cls-10"><path class="cls-8" d="M144.9,80.79s6.18-6.61,10-3c6.5,6.18-4,9.25-4,9.25s10.75,6.06,5.93,8.46-9.73-2.2-9.73-2.2-1.76,7.81-6.62,5.32,1-9.25,1-9.25-10.38,3.82-8.94-.85S139.81,84,139.81,84s-5.49-4.73-1.75-7.2C142.73,73.68,144.9,80.79,144.9,80.79Z"/><circle class="cls-3" cx="145.71" cy="87.5" r="2.41"/></g><g class="cls-10"><path class="cls-8" d="M171.82,93.8s-.14-10.18,4.94-7,1.6,7.8,1.6,7.8,6.24-3.66,7.11,0-4.93,5.84-4.93,5.84,5.51,5.09,1.74,6.68-5.81-5.37-5.81-5.37,1.74,4.69-3.63,5.61-1-7.93-1-7.93-6.74,2.18-6.82-2.91S171.82,93.8,171.82,93.8Z"/><ellipse class="cls-3" cx="175.88" cy="98.09" rx="2.1" ry="2.56"/></g><g class="cls-10"><path class="cls-8" d="M108.29,118s8.59-5.46,8.55.54S111,124,111,124s6.39,3.4,3.73,6.06-7.57-1.15-7.57-1.15-1.44,7.37-4.78,5,1.54-7.76,1.54-7.76-3.08,3.94-6.68-.15,6.23-5,6.23-5-5.39-4.61-1.1-7.33S108.29,118,108.29,118Z"/><ellipse class="cls-3" cx="106.75" cy="123.72" rx="2.56" ry="2.1" transform="translate(-48.96 74.16) rotate(-31.56)"/></g><g class="cls-10"><path class="cls-8" d="M334.55,66s-9.44-8.83-4.3-14.24c8.81-9.3,13.2,5.69,13.2,5.69s8.66-15.35,12.09-8.46-3.14,13.9-3.14,13.9,11.16,2.5,7.6,9.45-13.22-1.38-13.22-1.38,5.46,14.83-1.22,12.77-6.48-10.46-6.48-10.46-6.75,7.84-10.28,2.51C324.39,69.06,334.55,66,334.55,66Z"/><circle class="cls-3" cx="344.13" cy="64.8" r="3.45"/></g><g class="cls-10"><path class="cls-8" d="M382.4,124.45s1,12.89-6.44,13.41c-12.78.9-5.89-13.12-5.89-13.12s-16.75,5.48-14.63-1.92,11.7-8.14,11.7-8.14-6.54-9.38.78-12.1,8.82,10,8.82,10,6-14.62,9.52-8.6S384,116,384,116s10.27-1.23,9.27,5.09C392,129,382.4,124.45,382.4,124.45Z"/><circle class="cls-3" cx="374.56" cy="118.83" r="3.45"/></g><g class="cls-10"><path class="cls-8" d="M360.7,33s-14.54.21-10-7,11.15-2.28,11.15-2.28-5.23-8.92,0-10.17,8.35,7.06,8.35,7.06,7.26-7.89,9.54-2.49-7.67,8.29-7.67,8.29,6.69-2.49,8,5.19S368.74,33,368.74,33s3.11,9.64-4.15,9.75S360.7,33,360.7,33Z"/><ellipse class="cls-3" cx="366.83" cy="27.18" rx="3.65" ry="3.01"/></g><g class="cls-10"><path class="cls-8" d="M190.86,146.59s-13.19.19-9.08-6.4,10.12-2.07,10.12-2.07-4.75-8.09,0-9.22,7.58,6.4,7.58,6.4,6.58-7.15,8.65-2.26-7,7.53-7,7.53,6.07-2.26,7.27,4.7-10.28,1.32-10.28,1.32,2.82,8.74-3.77,8.84S190.86,146.59,190.86,146.59Z"/><ellipse class="cls-3" cx="196.42" cy="141.33" rx="3.31" ry="2.73"/></g><g class="cls-10"><path class="cls-8" d="M78.89,51.81S83,42.42,86,46.16C92.23,54.09,83.44,57,83.44,57s11.72-1.57,9.45,4.2c-.93,2.4-3.4,5.39-9.29,2.45,4.87,4,3.62,7.45-1,8.28C77,72.88,77.26,62,77.26,62s-5.66,8.4-8.49,4.89C62.91,59.6,73.69,57,73.69,57s-7.75-2.87-4-6.72C75,44.71,78.89,51.81,78.89,51.81Z"/><ellipse class="cls-3" cx="79.05" cy="57.71" rx="2.27" ry="2.06"/></g><g class="cls-10"><path class="cls-8" d="M288.24,8.24S284.9-.88,289.36-.27c9.46,1.3,5.35,9,5.35,9s7-8.76,9.2-3.34c.94,2.25,1.22,5.9-4.72,7.76,5.92-.49,7.36,2.71,4.75,6.32-3.13,4.32-10.13-3.24-10.13-3.24s1.66,9.44-2.57,8.9c-8.77-1.11-3.17-10-3.17-10s-7.16,3.13-7.14-1.94C281,5.93,288.24,8.24,288.24,8.24Z"/><ellipse class="cls-3" cx="292.22" cy="12.15" rx="2.15" ry="1.95" transform="translate(73.4 206.21) rotate(-43.95)"/></g></g><path class="cls-11" d="M26.34,115c3.16,0,5.11,2.61,5.42,6.5h4.1v-8h2.48v21.38H35.86V123.52H31.78c-.26,4-2.2,6.67-5.44,6.67-3.44,0-5.43-3.07-5.43-7.58S22.9,115,26.34,115Zm0,2c-1.76,0-3,2.21-3,5.64s1.27,5.62,3,5.62,3.09-2.24,3.09-5.62S28.16,117,26.34,117Z"/><path class="cls-11" d="M54.34,125.63a50.36,50.36,0,0,1-9.09.72H42.56v-6.79h7.1V117H42.44v-2h9.7v6.48H45v2.91a57,57,0,0,0,9-.65Zm-9.43,8.78V128.1h2.45v4.32H59.65v2ZM56.62,129v-15.5h2.45V129Z"/><path class="cls-11" d="M68.34,115.17c3.43,0,5.42,3,5.42,7.51s-2,7.46-5.42,7.46-5.48-3-5.48-7.49S64.9,115.17,68.34,115.17Zm0,2c-1.8,0-3,2-3,5.47s1.25,5.5,3,5.5,3.09-2.06,3.09-5.5S70.16,117.18,68.34,117.18Zm9,17.71V113.51h2.45v21.38Z"/></svg>