<svg id="Layer_1" data-name="Layer 1" xmlns="http://www.w3.org/2000/svg" xmlns:xlink="http://www.w3.org/1999/xlink" viewBox="0 0 375 152"><defs><style>.cls-1{fill:none;}.cls-2{clip-path:url(#clip-path);}.cls-3{fill:#eac7a3;}.cls-4{fill:#fff;}.cls-5{fill:#f8e8d4;}.cls-11,.cls-6{fill:#847367;}.cls-7{fill:#fff1df;}.cls-8{fill:#eedbc4;}.cls-9{fill:#ef6660;}.cls-10{fill:#dd4e46;}.cls-11{opacity:0.7;}.cls-12{fill:#171717;}</style><clipPath id="clip-path"><rect class="cls-1" width="375" height="152"/></clipPath></defs><g class="cls-2"><rect class="cls-3" x="-5.56" y="-4.03" width="383.32" height="159.11"/><rect class="cls-4" x="177.29" y="66.72" width="37.7" height="11.97" transform="translate(31.87 -56.81) rotate(17.91)"/><circle class="cls-4" cx="180.3" cy="62.06" r="6.71"/><circle class="cls-4" cx="177.28" cy="71.4" r="6.71"/><circle class="cls-4" cx="215.69" cy="73.5" r="6.71"/><circle class="cls-4" cx="212.67" cy="82.84" r="6.71"/><rect class="cls-4" x="151.98" y="108.04" width="32.83" height="10.43" transform="translate(-17.99 32.98) rotate(-10.62)"/><circle class="cls-4" cx="151.85" cy="111.7" r="5.84"/><circle class="cls-4" cx="153.42" cy="120.1" r="5.84"/><circle class="cls-4" cx="183.69" cy="105.73" r="5.84"/><circle class="cls-4" cx="185.26" cy="114.13" r="5.84"/><path class="cls-5" d="M282.07,168.37c-34.22,0-29.95-13.88-26.9-23.38,3.63-11.28,10.45-18.76,26.9-18.76S305.34,133.71,309,145C312,154.49,316.29,168.37,282.07,168.37Z"/><path class="cls-6" d="M240,74c-9.41,12.11-13.33,31.76-1.38,35.19,10.22,2.93,16.2-9.68,24.84-22.36,6.81-10,12.6-19.91,5.84-25.2S249.43,61.85,240,74Z"/><path class="cls-6" d="M323.15,74.36c9,12.47,12.1,32.26,0,35.22-10.32,2.54-15.81-10.29-24-23.3C292.8,76,287.39,65.9,294.35,60.88S314.21,61.9,323.15,74.36Z"/><path class="cls-7" d="M281.15,136c-37.24,0-39.92-18.46-33.68-41.5C253,74,260.58,59.85,281.15,59.85S309.28,74,314.81,94.45C321.05,117.49,318.38,136,281.15,136Z"/><path d="M281.14,105.07c4.46,0,8.08,1.13,8.08,3.81s-3.62,5.86-8.08,5.86-8.08-3.19-8.08-5.86S276.68,105.07,281.14,105.07Z"/><circle cx="268.14" cy="97.46" r="3.94"/><circle cx="294.14" cy="97.46" r="3.94"/><path class="cls-1" d="M289.05,135.16a11.81,11.81,0,0,1,16.94-12,11.68,11.68,0,0,1,3.92-1.18,11.5,11.5,0,0,1,5.11.53c3.69-7.37,2.73-17.2-.21-28-5.53-20.45-13.11-34.6-33.66-34.6S253,74,247.47,94.45c-3,10.9-3.9,20.77-.14,28.15a12.18,12.18,0,0,1,2.52-.59,11.82,11.82,0,0,1,6.59,1.13,11.68,11.68,0,0,1,3.92-1.18,11.83,11.83,0,0,1,13.14,10.35,12.33,12.33,0,0,1-.08,3.33c2.4.2,4.95.31,7.73.31s5.5-.12,8-.33C289.1,135.46,289.07,135.31,289.05,135.16Z"/><path class="cls-8" d="M273.5,132.31A11.83,11.83,0,0,0,260.36,122a11.68,11.68,0,0,0-3.92,1.18,11.82,11.82,0,0,0-6.59-1.13,12.18,12.18,0,0,0-2.52.59c3.59,7.06,11.51,11.83,26.09,13A12.33,12.33,0,0,0,273.5,132.31Z"/><path class="cls-8" d="M309.91,122a11.68,11.68,0,0,0-3.92,1.18,11.81,11.81,0,0,0-16.94,12c0,.15.05.3.07.46,14.51-1.25,22.36-6.05,25.9-13.13A11.5,11.5,0,0,0,309.91,122Z"/><rect class="cls-8" x="227.28" y="140.14" width="58.81" height="31.86" rx="15.93" transform="translate(381.4 -117.23) rotate(83.23)"/><rect class="cls-8" x="276.27" y="140.14" width="58.81" height="31.86" rx="15.93" transform="translate(114.66 441.21) rotate(-83.23)"/><rect class="cls-9" x="253.29" y="129.99" width="55.71" height="11.91" rx="3.71"/><path class="cls-1" d="M289,135.1a11.8,11.8,0,0,1,.52-5.11H273a12.44,12.44,0,0,1,.53,2.32,11.83,11.83,0,0,1-2.57,8.85l.08.75h19.92l.16-1.37A11.83,11.83,0,0,1,289,135.1Z"/><path class="cls-10" d="M273.5,132.31A12.44,12.44,0,0,0,273,130H257a3.71,3.71,0,0,0-3.7,3.71v4.5a3.71,3.71,0,0,0,3.7,3.71h14l-.08-.75A11.83,11.83,0,0,0,273.5,132.31Z"/><path class="cls-10" d="M309,138.2v-4.5a3.72,3.72,0,0,0-3.71-3.71H289.52a11.82,11.82,0,0,0,1.57,10.55l-.16,1.37h14.36A3.72,3.72,0,0,0,309,138.2Z"/><rect class="cls-5" x="279.17" y="141.82" width="58.81" height="31.86" rx="15.93" transform="translate(501.61 -130.08) rotate(96.77)"/><rect class="cls-7" x="295.11" y="129.2" width="31.86" height="15.64" rx="7.82" transform="translate(18.32 -35.71) rotate(6.77)"/><ellipse class="cls-11" cx="310.4" cy="142.37" rx="9.35" ry="9.25" transform="translate(132.43 433.82) rotate(-83.23)"/><circle class="cls-7" cx="300.53" cy="134.81" r="9.25"/><circle class="cls-7" cx="311.51" cy="133.08" r="9.25"/><circle class="cls-7" cx="321.83" cy="137.34" r="9.25"/><rect class="cls-5" x="224.3" y="141.82" width="58.81" height="31.86" rx="15.93" transform="translate(380.45 -112.78) rotate(83.23)"/><rect class="cls-7" x="235.31" y="129.2" width="31.86" height="15.64" rx="7.82" transform="translate(516.89 243.48) rotate(173.23)"/><ellipse class="cls-11" cx="251.88" cy="142.37" rx="9.25" ry="9.35" transform="translate(-15.03 30.69) rotate(-6.77)"/><circle class="cls-7" cx="261.75" cy="134.81" r="9.25"/><circle class="cls-7" cx="250.78" cy="133.08" r="9.25"/><circle class="cls-7" cx="240.45" cy="137.34" r="9.25"/></g><path class="cls-12" d="M21.32,125.63V114.92h2.47v3.51h5v-3.55h2.45v10.75Zm2.28,8.62v-6.72h2.47v4.72H38v2Zm5.21-13.92h-5v3.36h5Zm8.52-.72h3.14v2.06H37.33V129H34.86V113.51h2.47Z"/><path class="cls-12" d="M53,129.42a45,45,0,0,1-8.33.58H42.3v-8.76H49v-3.89H42.3v-2h9.16v7.85H44.74V128a48.18,48.18,0,0,0,8-.55Zm0-5.25h3.69v-3.51H52.93v-2h3.69v-5.14h2.45v21.38H56.62v-8.71H52.93Z"/><path class="cls-12" d="M63.61,126.54l-1.32-1.94c3.91-.84,7.56-3.48,8.21-7.37H63.34v-2h9.84C73,121,69.37,124.72,63.61,126.54Zm2.3,7.8v-6.67h2.47v4.7h12v2ZM77.38,129V124.5h-4.2v-2h4.2v-2.76H73.45v-2h3.93v-4.25h2.45V129Z"/></svg>