<svg id="Layer_1" data-name="Layer 1" xmlns="http://www.w3.org/2000/svg" xmlns:xlink="http://www.w3.org/1999/xlink" viewBox="0 0 375 152"><defs><style>.cls-1{fill:none;}.cls-2{clip-path:url(#clip-path);}.cls-3{fill:#a7d9ff;}.cls-4{fill:#f2fcff;}.cls-5{fill:#c5e5ff;}.cls-6{fill:#0068a1;}.cls-7{fill:#e3f2ff;}.cls-8{fill:#6abfff;}.cls-9{fill:#3dafff;}.cls-10{fill:#171717;}</style><clipPath id="clip-path"><rect class="cls-1" width="375" height="152"/></clipPath></defs><g class="cls-2"><rect class="cls-3" x="-7.58" y="-6.05" width="383.32" height="159.11"/><path class="cls-4" d="M271.58,104c-16.33,0-31.7,2-45.73,2.23-5.87.08-21.82-2-20.9-8.17,1-6.41,10.45-8.37,16-10.24h0c20.48-4.77,41.06-13.59,37.35-23.91-3.84-10.68-40.62-17.48-84.21-15.76-15.79.46-6.48,2.4-.53,2.43,64.09.34,59.5,11.11,35.41,19-12.79,4.19-35.2,6.36-54.18,9-21.39,2.94-46.88,5.52-50.1,16.92-3.62,12.76,18.93,22.47,72,20.76-9.25,3.58-14.56,7.73-14.56,12.15,0,5,6.72,9.62,18.22,13.48C173.24,155,207.56,165,253.67,165c33.43-.06,61.63-6.41,70.62-15.17,33.82-4.15,56.74-12.17,56.74-21.39C381,114.92,332,104,271.58,104Z"/><path class="cls-5" d="M263.28,127.54c0,16.48-6.34,18.61-14.15,18.61S235,141.66,235,127.54c0-15.12,6.34-36.13,14.16-36.13S263.28,112.42,263.28,127.54Z"/><path class="cls-6" d="M249.13,152.64a.46.46,0,0,1-.47-.46V120a.47.47,0,1,1,.93,0v32.19A.46.46,0,0,1,249.13,152.64Z"/><path class="cls-6" d="M249.26,139.77a.55.55,0,0,1-.25-.07.47.47,0,0,1-.15-.65l4.69-7.54a.46.46,0,0,1,.64-.15.47.47,0,0,1,.15.64l-4.69,7.55A.47.47,0,0,1,249.26,139.77Z"/><path class="cls-7" d="M275.18,137.28c0,10.56-4.05,11.92-9.06,11.92s-9.06-2.87-9.06-11.92c0-9.68,4.05-23.13,9.06-23.13S275.18,127.6,275.18,137.28Z"/><path class="cls-6" d="M266.12,153.36a.3.3,0,0,1-.3-.3V132.45a.3.3,0,0,1,.3-.3.29.29,0,0,1,.3.3v20.61A.29.29,0,0,1,266.12,153.36Z"/><path class="cls-6" d="M266.2,145.11a.28.28,0,0,1-.15,0,.3.3,0,0,1-.1-.41l3-4.84a.3.3,0,0,1,.51.32l-3,4.83A.31.31,0,0,1,266.2,145.11Z"/><path class="cls-6" d="M137.69,127.17a1.43,1.43,0,0,1-1.43-1.43V101.86a1.44,1.44,0,0,1,2.87,0v23.88A1.44,1.44,0,0,1,137.69,127.17Z"/><ellipse class="cls-8" cx="137.69" cy="67.87" rx="10.74" ry="12.09"/><ellipse class="cls-8" cx="137.69" cy="84.85" rx="13.44" ry="15.12"/><ellipse class="cls-8" cx="137.69" cy="101.32" rx="15.1" ry="17"/><path class="cls-7" d="M347.44,74.74c0,19.27-6,21.76-13.37,21.76S320.7,91.25,320.7,74.74c0-17.68,6-42.25,13.37-42.25S347.44,57.06,347.44,74.74Z"/><path class="cls-6" d="M334.07,104a.49.49,0,0,1-.49-.49V65.91a.49.49,0,0,1,.49-.49.48.48,0,0,1,.49.49v37.64A.48.48,0,0,1,334.07,104Z"/><path class="cls-6" d="M334.2,89a.42.42,0,0,1-.22,0,.49.49,0,0,1-.22-.66l4.43-8.82a.49.49,0,1,1,.87.44l-4.42,8.82A.48.48,0,0,1,334.2,89Z"/><path class="cls-5" d="M324.93,86.7c0,11-6.34,12.38-14.16,12.38s-14.16-3-14.16-12.38c0-15.91,6.34-24.05,14.16-24.05S324.93,69.4,324.93,86.7Z"/><path class="cls-6" d="M311.28,104a.49.49,0,0,1-.49-.49V82.63a.49.49,0,1,1,1,0v20.92A.49.49,0,0,1,311.28,104Z"/><path class="cls-6" d="M311.54,94.88a.52.52,0,0,1-.21,0,.5.5,0,0,1-.24-.65l2.73-6a.48.48,0,0,1,.65-.24.5.5,0,0,1,.24.65l-2.73,6A.48.48,0,0,1,311.54,94.88Z"/><path class="cls-6" d="M185.38,64.28a1,1,0,0,1-1-1V44.65a1,1,0,0,1,2,0V63.27A1,1,0,0,1,185.38,64.28Z"/><ellipse class="cls-9" cx="185.38" cy="18.14" rx="8.38" ry="9.43"/><ellipse class="cls-9" cx="185.38" cy="31.39" rx="10.48" ry="11.79"/><ellipse class="cls-9" cx="185.38" cy="44.23" rx="11.78" ry="13.25"/><path class="cls-6" d="M171.57,70.85a.76.76,0,0,1-.76-.76V57.45a.76.76,0,1,1,1.52,0V70.09A.76.76,0,0,1,171.57,70.85Z"/><ellipse class="cls-8" cx="171.57" cy="39.44" rx="5.69" ry="6.4"/><ellipse class="cls-8" cx="171.57" cy="48.44" rx="7.12" ry="8.01"/><ellipse class="cls-8" cx="171.57" cy="57.16" rx="8" ry="9"/><path class="cls-7" d="M268,44.94c0,10.44-3.24,11.78-7.24,11.78s-7.24-2.84-7.24-11.78c0-9.57,3.24-22.88,7.24-22.88S268,35.37,268,44.94Z"/><path class="cls-6" d="M260.74,60.81a.27.27,0,0,1-.26-.27V40.16a.27.27,0,1,1,.53,0V60.54A.27.27,0,0,1,260.74,60.81Z"/><path class="cls-6" d="M260.81,52.65a.27.27,0,0,1-.12,0,.26.26,0,0,1-.12-.35l2.4-4.78a.28.28,0,0,1,.36-.12.27.27,0,0,1,.11.36l-2.39,4.78A.27.27,0,0,1,260.81,52.65Z"/><path class="cls-7" d="M256.36,42.94c0,8.05-2.51,9.09-5.6,9.09s-5.59-2.19-5.59-9.09c0-7.39,2.51-17.67,5.59-17.67S256.36,35.55,256.36,42.94Z"/><path class="cls-6" d="M250.76,55.19a.2.2,0,0,1-.2-.21V39.24a.2.2,0,0,1,.2-.2.2.2,0,0,1,.21.2V55A.21.21,0,0,1,250.76,55.19Z"/><path class="cls-6" d="M250.82,48.89a.18.18,0,0,1-.1,0,.2.2,0,0,1-.09-.27l1.85-3.69a.22.22,0,0,1,.28-.1.21.21,0,0,1,.09.28L251,48.78A.21.21,0,0,1,250.82,48.89Z"/></g><path class="cls-10" d="M20.72,132.35v-2h8.4V128c-3.34-.29-5.42-1.68-5.42-3.77,0-2.33,2.64-3.84,6.69-3.84s6.7,1.51,6.7,3.84c0,2.11-2.14,3.53-5.52,3.77v2.4H40v2Zm1.2-12.89v-2H38.84v2Zm8.47,2.78c-2.23,0-4.2.63-4.2,2s2,2,4.2,2,4.2-.65,4.2-2S32.62,122.24,30.39,122.24Zm-3.81-8.08h7.58v2H26.58Z"/><path class="cls-10" d="M49.88,134.92v-7.78h-8.4V125.2H60.8v1.94H52.33v7.78Zm9-11.84c-3.17-.52-6.63-2.61-7.71-5-.93,2.38-4.41,4.44-7.65,5l-1.08-2c3.79-.43,7.46-3,7.46-6V114h2.59v1.08c0,3.07,4.06,5.69,7.51,6Z"/></svg>