<svg id="Layer_1" data-name="Layer 1" xmlns="http://www.w3.org/2000/svg" xmlns:xlink="http://www.w3.org/1999/xlink" viewBox="0 0 144 104"><defs><style>.cls-1{fill:none;}.cls-2{clip-path:url(#clip-path);}.cls-3{fill:#ffbbcb;}.cls-4{fill:#ffcfdb;}.cls-5,.cls-6{fill:#ffb4c5;}.cls-6{opacity:0.7;}.cls-7{fill:#ffeef1;}.cls-13,.cls-8{fill:#ff9eb2;}.cls-8{opacity:0.5;}.cls-9{fill:#ffb0c1;}.cls-10{fill:#ffdde5;}.cls-11{fill:#fff;}.cls-12{fill:#ff6381;}.cls-14{fill:#171717;}</style><clipPath id="clip-path"><rect class="cls-1" width="144" height="104"/></clipPath></defs><g class="cls-2"><rect class="cls-3" x="-4.22" y="-3.05" width="152.44" height="110.1"/><path class="cls-4" d="M139.42,74.65a2.79,2.79,0,0,0-1.55-1.37,2.78,2.78,0,0,0,.28-2c-.65-2.13-4.38-2.83-8.62-1.74-.64-4.32-2.75-7.49-5-7.25a2.75,2.75,0,0,0-1.77,1,2.79,2.79,0,0,0-1.86-.89c-2.23,0-4,3.29-4.32,7.65-4.31-.72-8,.3-8.43,2.48a2.76,2.76,0,0,0,.45,2A2.81,2.81,0,0,0,107.22,76c-.74,2.1,1.88,4.87,5.94,6.47-2,3.88-2.18,7.68-.25,8.79a2.81,2.81,0,0,0,2.06.19,2.79,2.79,0,0,0,1,1.82c1.77,1.34,5.2-.29,8-3.66,3.06,3.12,6.63,4.44,8.27,2.95a2.72,2.72,0,0,0,.82-1.89,2.79,2.79,0,0,0,2-.37c1.83-1.27,1.34-5-1-8.73C138,79.66,140.33,76.68,139.42,74.65Zm-16,4Z"/><path class="cls-5" d="M129.05,76.3a.89.89,0,0,0-1.16-.53l-3.59,1.34-.17-3.83a.9.9,0,1,0-1.8.08l.16,3.83-3.69-1a.91.91,0,0,0-.48,1.75l3.69,1-2.12,3.2a.91.91,0,0,0,.26,1.25.86.86,0,0,0,.53.15.91.91,0,0,0,.72-.4l2.12-3.2,2.38,3a.9.9,0,0,0,.75.34.9.9,0,0,0,.67-1.47l-2.39-3,3.59-1.34A.89.89,0,0,0,129.05,76.3Z"/><path class="cls-4" d="M148,38.6a3.34,3.34,0,0,0-1.21-2.17,3.32,3.32,0,0,0,1.14-2.21c.13-2.67-3.82-5-9.06-5.44,1-5.17-.1-9.61-2.7-10.23a3.39,3.39,0,0,0-2.44.48,3.29,3.29,0,0,0-1.74-1.76c-2.5-1-5.92,2.09-8,6.93-4.6-2.56-9.17-2.88-10.56-.59a3.33,3.33,0,0,0-.3,2.46,3.38,3.38,0,0,0-2.22,1.12c-1.67,2.08.17,6.27,4.14,9.73-3.86,3.58-5.57,7.83-3.83,9.86a3.34,3.34,0,0,0,2.25,1,3.32,3.32,0,0,0,.38,2.46c1.46,2.24,6,1.78,10.53-.93,2.21,4.78,5.72,7.72,8.19,6.69a3.35,3.35,0,0,0,1.69-1.81,3.36,3.36,0,0,0,2.45.39c2.58-.7,3.55-5.17,2.38-10.3C144.28,43.69,148.16,41.26,148,38.6Zm-19.71-1.88h0Z"/><path class="cls-6" d="M135.53,36.29a1.08,1.08,0,0,0-1.1-1.07l-4.61.07,1.35-4.41a1.08,1.08,0,0,0-.72-1.36,1.1,1.1,0,0,0-1.36.72l-1.35,4.41L124,32a1.08,1.08,0,0,0-1.51.26,1.09,1.09,0,0,0,.26,1.52l3.78,2.65L122.8,39.2a1.09,1.09,0,0,0-.22,1.52,1.12,1.12,0,0,0,.55.39,1.1,1.1,0,0,0,1-.17l3.69-2.77,1.49,4.36a1.08,1.08,0,0,0,.72.69,1,1,0,0,0,.67,0,1.08,1.08,0,0,0,.67-1.38l-1.49-4.37,4.61-.07A1.08,1.08,0,0,0,135.53,36.29Z"/><path class="cls-4" d="M37.38,60.06A1.6,1.6,0,0,0,36.8,59a1.62,1.62,0,0,0,.55-1.07c.06-1.28-1.84-2.39-4.37-2.62.49-2.49,0-4.63-1.3-4.93a1.61,1.61,0,0,0-1.18.23,1.62,1.62,0,0,0-.84-.85c-1.2-.46-2.85,1-3.85,3.34-2.21-1.23-4.42-1.38-5.09-.28A1.56,1.56,0,0,0,20.58,54a1.62,1.62,0,0,0-1.07.54c-.81,1,.08,3,2,4.7C19.64,61,18.82,63,19.66,64a1.6,1.6,0,0,0,1.08.5,1.63,1.63,0,0,0,.18,1.19c.71,1.08,2.9.86,5.08-.45,1.07,2.3,2.76,3.72,3.95,3.23a1.62,1.62,0,0,0,.82-.88,1.59,1.59,0,0,0,1.18.19c1.24-.33,1.71-2.49,1.15-5C35.61,62.51,37.49,61.34,37.38,60.06Zm-9.5-.91Z"/><path class="cls-6" d="M31.4,58.94a.53.53,0,0,0-.54-.51l-2.22,0,.65-2.13a.52.52,0,0,0-.34-.65.53.53,0,0,0-.66.35l-.65,2.12-1.82-1.28a.53.53,0,0,0-.61.86L27,59l-1.78,1.33a.54.54,0,0,0-.1.74.61.61,0,0,0,.26.19.53.53,0,0,0,.47-.09l1.78-1.33.72,2.1a.5.5,0,0,0,.35.33.44.44,0,0,0,.32,0,.53.53,0,0,0,.33-.67l-.72-2.1,2.22,0A.52.52,0,0,0,31.4,58.94Z"/><path class="cls-4" d="M97.78,46.34a2.81,2.81,0,0,0-1.34-1.63,2.85,2.85,0,0,0,.6-2c-.3-2.26-4-3.57-8.44-3.14,0-4.48-1.58-8-3.85-8.14a2.83,2.83,0,0,0-2,.78A2.83,2.83,0,0,0,81,31c-2.24-.41-4.62,2.68-5.6,7.05-4.25-1.42-8.12-1-8.93,1.15a2.89,2.89,0,0,0,.13,2.11A2.88,2.88,0,0,0,65,42.58c-1.08,2,1.12,5.22,5,7.5-2.66,3.6-3.44,7.42-1.66,8.85a2.84,2.84,0,0,0,2,.53,2.84,2.84,0,0,0,.7,2C72.6,63.1,76.34,62,79.7,59c2.6,3.65,6,5.57,7.91,4.32a2.81,2.81,0,0,0,1.13-1.78,2.88,2.88,0,0,0,2.11,0c2.06-1,2.17-4.89.38-9C95.51,51.17,98.38,48.54,97.78,46.34ZM81,47.84Z"/><path class="cls-4" d="M57.08,6a2.59,2.59,0,0,0-1.62-1,2.56,2.56,0,0,0-.08-1.88c-.92-1.82-4.4-1.84-8-.17C46.06-.8,43.65-3.31,41.7-2.73A2.51,2.51,0,0,0,40.28-1.5,2.55,2.55,0,0,0,38.46-2c-2,.32-3.11,3.62-2.64,7.59-4,0-7.13,1.56-7.19,3.6a2.51,2.51,0,0,0,.73,1.73,2.59,2.59,0,0,0-1,1.58c-.32,2,2.48,4.07,6.41,4.86-1.19,3.81-.72,7.26,1.2,7.94a2.51,2.51,0,0,0,1.88-.16A2.54,2.54,0,0,0,39,26.62c1.81.92,4.64-1.1,6.6-4.59,3.26,2.31,6.69,2.92,7.93,1.31a2.52,2.52,0,0,0,.43-1.83,2.56,2.56,0,0,0,1.76-.67c1.44-1.43.39-4.75-2.32-7.69C56.58,10.76,58.23,7.69,57.08,6ZM43.37,12.23h0Z"/><path class="cls-5" d="M48,9.19a.82.82,0,0,0-1.14-.29l-3,1.79L43.1,7.27a.82.82,0,1,0-1.61.36l.77,3.42-3.49-.32a.82.82,0,0,0-.16,1.64l3.49.33-1.38,3.22a.83.83,0,0,0,.94,1.13.85.85,0,0,0,.58-.48l1.38-3.22,2.64,2.31a.79.79,0,0,0,.73.19.88.88,0,0,0,.43-.26.83.83,0,0,0-.07-1.17l-2.64-2.31,3-1.79A.83.83,0,0,0,48,9.19Z"/><path class="cls-7" d="M88.53,26.32a3.08,3.08,0,0,0-.66-2.2,3.09,3.09,0,0,0,1.46-1.78c.65-2.39-2.48-5.25-7.13-6.7,1.93-4.48,1.8-8.72-.43-9.79a3.13,3.13,0,0,0-2.3,0,3.14,3.14,0,0,0-1.24-1.94c-2.07-1.35-5.76.74-8.58,4.72C66,5.36,61.92,4.17,60.21,6a3.08,3.08,0,0,0-.76,2.17,3.07,3.07,0,0,0-2.22.57c-1.93,1.56-1.08,5.71,1.83,9.62-4.2,2.49-6.58,6-5.41,8.17a3.13,3.13,0,0,0,1.84,1.39,3,3,0,0,0-.14,2.3c.88,2.31,5.09,2.79,9.71,1.23,1.07,4.75,3.66,8.11,6.1,7.66a3.09,3.09,0,0,0,1.89-1.31,3.07,3.07,0,0,0,2.14.84c2.47-.12,4.23-4,4.17-8.86C84.21,30.21,88.21,28.77,88.53,26.32ZM71.06,20.75h0Z"/><path class="cls-8" d="M77.75,21.79A1,1,0,0,0,77,20.6l-4.19-.84L74.87,16a1,1,0,0,0-1.76-1L71,18.77l-2.9-3.14A1,1,0,1,0,66.64,17l2.89,3.14-3.88,1.78a1,1,0,0,0-.49,1.34,1,1,0,0,0,1.33.49L70.37,22l.5,4.24a1,1,0,0,0,.51.77,1.05,1.05,0,0,0,.61.12A1,1,0,0,0,72.87,26l-.49-4.24,4.18.84A1,1,0,0,0,77.75,21.79Z"/><path class="cls-7" d="M97.6,74.07a2.34,2.34,0,0,0-1-1.41,2.34,2.34,0,0,0,.6-1.63c-.14-1.88-3.1-3.14-6.79-3,.25-3.69-.91-6.69-2.77-6.89a2.37,2.37,0,0,0-1.66.54,2.29,2.29,0,0,0-1.37-1.07c-1.83-.45-3.94,2-5,5.53-3.43-1.38-6.64-1.2-7.41.51a2.32,2.32,0,0,0,0,1.74,2.4,2.4,0,0,0-1.45,1c-1,1.6.67,4.36,3.73,6.42-2.37,2.84-3.19,5.94-1.8,7.2a2.33,2.33,0,0,0,1.66.54,2.29,2.29,0,0,0,.47,1.67c1.22,1.44,4.35.72,7.26-1.56,2,3.13,4.66,4.87,6.29,3.94a2.3,2.3,0,0,0,1-1.41,2.3,2.3,0,0,0,1.74.06c1.74-.71,2-3.91.76-7.38C95.49,77.94,98,75.91,97.6,74.07Zm-13.9.41Z"/><path class="cls-9" d="M88.75,73.55a.76.76,0,0,0-.86-.65l-3.21.45.56-3.19a.77.77,0,0,0-1.51-.26l-.56,3.19-2.86-1.52a.75.75,0,0,0-1,.32.76.76,0,0,0,.32,1l2.86,1.52-2.33,2.25a.77.77,0,0,0,0,1.08.82.82,0,0,0,.42.22.78.78,0,0,0,.66-.2l2.33-2.25,1.42,2.9a.77.77,0,0,0,.56.42A.74.74,0,0,0,86,78.8a.78.78,0,0,0,.36-1l-1.43-2.91,3.21-.45A.76.76,0,0,0,88.75,73.55Z"/><path class="cls-10" d="M133,80.52a2.36,2.36,0,0,0-1,1.39,2.36,2.36,0,0,0-1.74-.1c-1.75.68-2.1,3.88-.91,7.37-3.6.83-6.13,2.8-5.79,4.65a2.39,2.39,0,0,0,1,1.43,2.33,2.33,0,0,0-.63,1.62c.1,1.88,3,3.2,6.73,3.14-.33,3.68.77,6.7,2.63,6.94a2.36,2.36,0,0,0,1.67-.51,2.28,2.28,0,0,0,1.35,1.1c1.81.49,4-1.89,5.06-5.43,3.4,1.46,6.61,1.34,7.42-.35a2.39,2.39,0,0,0,0-1.75,2.31,2.31,0,0,0,1.46-.94c1-1.58-.57-4.37-3.6-6.49,2.43-2.79,3.32-5.88,1.95-7.17a2.33,2.33,0,0,0-1.64-.56,2.37,2.37,0,0,0-.45-1.69c-1.18-1.45-4.33-.8-7.29,1.42C137.27,81.42,134.6,79.62,133,80.52Zm4.43,13.18h0Z"/><path class="cls-11" d="M66.36,29.79a3.09,3.09,0,0,0-2.21-.57,3,3,0,0,0-.74-2.15c-1.69-1.78-5.72-.62-9.35,2.56-2.78-3.94-6.43-6-8.48-4.68a3.05,3.05,0,0,0-1.23,1.92,3,3,0,0,0-2.28,0c-2.21,1.06-2.35,5.25-.44,9.68C37,38,33.92,40.85,34.55,43.22A3.05,3.05,0,0,0,36,45a3,3,0,0,0-.66,2.17c.32,2.43,4.27,3.86,9.07,3.42-.06,4.83,1.67,8.65,4.11,8.78a3,3,0,0,0,2.12-.83,3.07,3.07,0,0,0,1.87,1.3c2.41.45,5-2.86,6-7.57,4.57,1.56,8.74,1.09,9.62-1.2A3,3,0,0,0,68,48.78a3,3,0,0,0,1.81-1.37c1.17-2.16-1.18-5.63-5.32-8.1C67.41,35.45,68.26,31.34,66.36,29.79ZM52.63,41.68h0Z"/><path class="cls-12" d="M57,36.57a1,1,0,0,0-1.41,0l-2.87,3.1L50.62,36a1,1,0,1,0-1.74,1L51,40.7l-4.15.82a1,1,0,1,0,.39,2l4.14-.83-.49,4.2A1,1,0,0,0,51.71,48a1,1,0,0,0,.6-.12,1,1,0,0,0,.51-.75l.49-4.2,3.84,1.77a1,1,0,0,0,.91,0,1,1,0,0,0,.42-.46A1,1,0,0,0,58,42.85l-3.84-1.77L57,38A1,1,0,0,0,57,36.57Z"/><path class="cls-11" d="M39.8,20.77a2,2,0,0,0-.95-1.19,2.06,2.06,0,0,0,.46-1.45c-.19-1.63-2.82-2.62-6-2.37.08-3.23-1-5.81-2.68-5.91a2,2,0,0,0-1.42.53,2.1,2.1,0,0,0-1.24-.89c-1.61-.32-3.37,1.88-4.12,5-3-1.08-5.84-.81-6.45.72a2.07,2.07,0,0,0,.07,1.52,2,2,0,0,0-1.23.9c-.8,1.43.74,3.78,3.5,5.47-2,2.56-2.58,5.3-1.31,6.35a2,2,0,0,0,1.46.41,2.07,2.07,0,0,0,.48,1.44c1.12,1.21,3.83.47,6.28-1.63,1.83,2.66,4.25,4.08,5.64,3.21a2,2,0,0,0,.84-1.27,2.12,2.12,0,0,0,1.53,0c1.49-.69,1.62-3.49.38-6.48C38.1,24.23,40.2,22.36,39.8,20.77Zm-12.12.87Z"/><path class="cls-12" d="M32.05,20.64a.68.68,0,0,0-.78-.54l-2.78.52.37-2.81a.67.67,0,1,0-1.33-.17l-.37,2.8-2.55-1.22A.67.67,0,0,0,24,20.43l2.56,1.22L24.64,23.7a.66.66,0,0,0,0,.94.65.65,0,0,0,.37.18.68.68,0,0,0,.58-.2l1.95-2.05,1.34,2.49a.7.7,0,0,0,.5.34.73.73,0,0,0,.41-.07.68.68,0,0,0,.27-.91l-1.35-2.49,2.78-.51A.68.68,0,0,0,32.05,20.64Z"/><path class="cls-11" d="M10.92,41.22a2.52,2.52,0,0,0,.23-1.84,2.46,2.46,0,0,0,1.65-.83c1.26-1.55-.11-4.68-3.06-7.27,2.88-2.66,4.17-5.83,2.88-7.35a2.47,2.47,0,0,0-1.68-.78,2.51,2.51,0,0,0-.28-1.84C9.57,19.64,6.17,20,2.8,22c-1.64-3.57-4.26-5.77-6.1-5a2.54,2.54,0,0,0-1.27,1.36A2.49,2.49,0,0,0-6.4,18c-1.92.52-2.66,3.86-1.79,7.69-3.9.46-6.8,2.26-6.65,4.25a2.48,2.48,0,0,0,.9,1.62,2.53,2.53,0,0,0-.86,1.65c-.1,2,2.85,3.72,6.76,4.08-.77,3.85,0,7.17,2,7.64a2.5,2.5,0,0,0,1.82-.35,2.5,2.5,0,0,0,1.3,1.32c1.86.71,4.42-1.56,6-5.17C6.46,42.67,9.87,42.92,10.92,41.22Zm-11-9.81h0Z"/><path class="cls-12" d="M4.45,34.36a.81.81,0,0,0-.19-1.13l-2.81-2,2.76-2.06a.8.8,0,0,0,.16-1.13.82.82,0,0,0-1.14-.17L.48,29.94-.63,26.68a.82.82,0,0,0-1-.51.82.82,0,0,0-.51,1l1.11,3.26-3.44.05a.82.82,0,0,0-.81.82.84.84,0,0,0,.17.47.82.82,0,0,0,.66.33l3.44,0-1,3.28a.81.81,0,0,0,.12.73.81.81,0,0,0,.41.29.82.82,0,0,0,1-.54l1-3.28,2.81,2A.8.8,0,0,0,4.45,34.36Z"/><path class="cls-11" d="M106.28,25.66a2.42,2.42,0,0,0-1.47-1,2.31,2.31,0,0,0,0-1.77c-.77-1.75-4-1.94-7.54-.55-1-3.62-3.17-6.1-5-5.66a2.42,2.42,0,0,0-1.4,1.09,2.4,2.4,0,0,0-1.69-.56c-1.9.2-3.09,3.26-2.85,7-3.76-.15-6.78,1.13-6.93,3a2.37,2.37,0,0,0,.6,1.67,2.38,2.38,0,0,0-1,1.43c-.4,1.88,2.13,4,5.78,4.88-1.3,3.54-1,6.8.74,7.53a2.39,2.39,0,0,0,1.78,0,2.42,2.42,0,0,0,1,1.44c1.66,1,4.42-.81,6.43-4,3,2.33,6.15,3.07,7.39,1.62a2.42,2.42,0,0,0,.49-1.71,2.4,2.4,0,0,0,1.7-.53c1.42-1.28.59-4.46-1.81-7.35C105.59,30.1,107.28,27.29,106.28,25.66ZM93.09,30.83Z"/><path class="cls-12" d="M97.61,28.2a.78.78,0,0,0-1-.33l-2.93,1.54-.55-3.25a.78.78,0,0,0-1.54.26l.56,3.25-3.27-.47a.78.78,0,1,0-.22,1.54l3.27.47-1.46,3a.78.78,0,0,0,.35,1,.8.8,0,0,0,1-.36l1.46-3,2.37,2.31a.73.73,0,0,0,.67.2.75.75,0,0,0,.43-.22.78.78,0,0,0,0-1.1l-2.36-2.3,2.92-1.54A.78.78,0,0,0,97.61,28.2Z"/><path class="cls-7" d="M159.12,58a3.17,3.17,0,0,0-2.07-1.11,3.19,3.19,0,0,0-.23-2.34c-1.26-2.19-5.59-2-10,.31-1.83-4.62-5-7.59-7.38-6.75a3.14,3.14,0,0,0-1.7,1.62,3.16,3.16,0,0,0-2.29-.5c-2.48.52-3.63,4.7-2.8,9.61-5,.31-8.77,2.4-8.71,4.93a3.14,3.14,0,0,0,1,2.12,3.14,3.14,0,0,0-1.2,2c-.26,2.52,3.35,4.91,8.28,5.63-1.23,4.83-.42,9.09,2,9.81a3.11,3.11,0,0,0,2.33-.32,3.18,3.18,0,0,0,1.56,1.76c2.31,1,5.7-1.67,7.91-6.13,4.21,2.67,8.51,3.21,9.95,1.13a3.15,3.15,0,0,0,.41-2.32,3.16,3.16,0,0,0,2.16-.93c1.7-1.88.17-5.94-3.39-9.42C158.81,63.94,160.65,60,159.12,58Zm-16.66,8.61Z"/><path class="cls-13" d="M148.05,62.53a1,1,0,0,0-1.43-.29L143,64.66l-1.18-4.2a1,1,0,1,0-2,.55L141,65.22,136.64,65a1,1,0,0,0-1.07,1,1,1,0,0,0,1,1.07l4.36.17-1.52,4.1a1,1,0,0,0,.61,1.32,1,1,0,0,0,.63,0,1,1,0,0,0,.69-.64L142.85,68l3.43,2.71a1,1,0,0,0,.91.18.94.94,0,0,0,.53-.35,1,1,0,0,0-.17-1.45l-3.42-2.7L147.76,64A1,1,0,0,0,148.05,62.53Z"/><path class="cls-11" d="M128,56.44a3.78,3.78,0,0,0-1.84-2.11,3.76,3.76,0,0,0,.74-2.69c-.48-3-5.38-4.58-11.25-3.87-.1-5.92-2.36-10.55-5.36-10.63a3.75,3.75,0,0,0-2.58,1.1,3.74,3.74,0,0,0-2.33-1.54c-3-.46-6,3.7-7.16,9.51-5.66-1.74-10.76-1-11.76,1.81a3.78,3.78,0,0,0,.24,2.79,3.69,3.69,0,0,0-2.17,1.75c-1.36,2.68,1.65,6.86,6.82,9.74-3.4,4.84-4.3,9.92-1.9,11.75a3.76,3.76,0,0,0,2.72.62,3.75,3.75,0,0,0,1,2.61c2.13,2.13,7,.55,11.38-3.48,3.55,4.74,8.1,7.16,10.58,5.45a3.72,3.72,0,0,0,1.43-2.4,3.74,3.74,0,0,0,2.79-.13c2.68-1.38,2.7-6.53.21-11.9C125.11,62.9,128.82,59.32,128,56.44ZM105.82,59Z"/><path class="cls-12" d="M113.75,56.8a1.23,1.23,0,0,0-1.47-.92L107.22,57l.46-5.17a1.22,1.22,0,1,0-2.43-.22l-.47,5.17-4.77-2a1.23,1.23,0,0,0-1.61.64A1.24,1.24,0,0,0,99.05,57l4.77,2L100.41,63a1.22,1.22,0,0,0,.12,1.72,1.19,1.19,0,0,0,.69.3,1.26,1.26,0,0,0,1-.41l3.41-3.92,2.66,4.46a1.22,1.22,0,0,0,2.1-1.26l-2.66-4.45,5.06-1.16A1.23,1.23,0,0,0,113.75,56.8Z"/></g><path class="cls-14" d="M15,83.13V76.55h1.63v2h3.28v-2h1.65v6.59Zm11.31,1.4v1.29H22.5c.16,1.67,2.49,2.84,4.53,3.06l-.76,1.25c-1.82-.15-4.19-1.54-4.67-2.8-.54,1.26-2.64,2.54-4.71,2.77l-.75-1.22c2.23-.14,4.24-1.38,4.6-3.06H16.89V84.53Zm-6.4-4.65H16.64v1.94h3.28Zm4.62,3.88V80.43H22.3V79.05h2.24V75.74h1.64v8Z"/><path class="cls-14" d="M28.28,82.77V81.44h5.86V79.05h1.64v2.39h5.39v1.33Zm11,7.44c-2-.08-4-1.12-4.62-2.13-.52.9-2.53,2-4.71,2.1l-.77-1.27c2.43,0,4.26-1,4.56-2.1H29.81V85.52h9.86v1.29H35.55C35.87,88,37.81,88.9,40,89ZM33.84,76a13.06,13.06,0,0,1-.77,4.56l-1.58-.3a8,8,0,0,0,.69-3H29.36V76Zm-1.38,8.79V83.57H37v1.26ZM39.78,76a16.91,16.91,0,0,1-.51,4.56l-1.57-.25a10.21,10.21,0,0,0,.43-3H34.94V76Z"/></svg>