<svg id="Layer_1" data-name="Layer 1" xmlns="http://www.w3.org/2000/svg" xmlns:xlink="http://www.w3.org/1999/xlink" viewBox="0 0 375 152"><defs><style>.cls-1{fill:none;}.cls-2{clip-path:url(#clip-path);}.cls-3{fill:#ffbbcb;}.cls-4{fill:#ffcfdb;}.cls-5,.cls-6{fill:#ffb4c5;}.cls-6{opacity:0.7;}.cls-7{opacity:0.8;}.cls-8{fill:#ffeef1;}.cls-10,.cls-9{fill:#ff9eb2;}.cls-9{opacity:0.5;}.cls-11{fill:#ffb0c1;}.cls-12{fill:#ffdde5;}.cls-13{fill:#fff;}.cls-14{fill:#ff6381;}.cls-15{fill:#171717;}</style><clipPath id="clip-path"><rect class="cls-1" width="375" height="152"/></clipPath></defs><g class="cls-2"><rect class="cls-3" x="-5.56" y="-4.03" width="383.32" height="159.11"/><path class="cls-4" d="M352.56,126.05a4.22,4.22,0,0,0-2.67-1.65,4.21,4.21,0,0,0-.11-3.14c-1.51-3-7.3-3.11-13.37-.38-2.08-6.32-6.05-10.53-9.31-9.6a4.21,4.21,0,0,0-2.39,2,4.23,4.23,0,0,0-3-.86c-3.34.5-5.22,6-4.49,12.59-6.66,0-11.89,2.51-12,5.89a4.17,4.17,0,0,0,1.2,2.9,4.22,4.22,0,0,0-1.76,2.6c-.55,3.34,4.08,6.81,10.59,8.17-2,6.34-1.29,12.08,1.89,13.24a4.22,4.22,0,0,0,3.13-.24,4.2,4.2,0,0,0,1.93,2.47c3,1.56,7.74-1.77,11-7.54,5.4,3.89,11.09,5,13.17,2.29a4.18,4.18,0,0,0,.74-3,4.22,4.22,0,0,0,2.95-1.08c2.41-2.37.71-7.9-3.76-12.83C351.68,133.93,354.45,128.85,352.56,126.05Zm-22.89,10.14h0Z"/><path class="cls-5" d="M337.45,131.19a1.38,1.38,0,0,0-1.89-.49l-5,2.93-1.24-5.7a1.38,1.38,0,0,0-2.69.59l1.24,5.69-5.81-.58a1.36,1.36,0,0,0-1.5,1.23,1.38,1.38,0,0,0,1.23,1.51l5.8.58-2.35,5.34a1.37,1.37,0,0,0,.7,1.81,1.37,1.37,0,0,0,1.82-.7l2.35-5.34,4.35,3.89a1.38,1.38,0,0,0,1.21.31,1.33,1.33,0,0,0,.73-.42,1.38,1.38,0,0,0-.11-2L331.91,136l5-2.94A1.37,1.37,0,0,0,337.45,131.19Z"/><path class="cls-4" d="M352.27,67.3a5.45,5.45,0,0,0-2.61-3.12,5.45,5.45,0,0,0,1.13-3.9c-.62-4.34-7.7-6.81-16.27-5.92,0-8.62-3.15-15.41-7.52-15.6a5.49,5.49,0,0,0-3.77,1.53A5.44,5.44,0,0,0,319.87,38c-4.32-.75-8.85,5.22-10.66,13.64C301,49,293.58,49.88,292.05,54a5.48,5.48,0,0,0,.28,4.06,5.47,5.47,0,0,0-3.21,2.49c-2.05,3.87,2.23,10,9.68,14.35-5.08,7-6.51,14.32-3.07,17a5.47,5.47,0,0,0,3.94,1A5.49,5.49,0,0,0,301,96.73c3.06,3.14,10.23,1,16.65-4.77,5.05,7,11.61,10.62,15.26,8.19a5.49,5.49,0,0,0,2.15-3.45,5.43,5.43,0,0,0,4.06-.12c3.93-1.93,4.09-9.43.61-17.31C348,76.63,353.45,71.51,352.27,67.3ZM320,70.43h0Z"/><path class="cls-6" d="M331.59,67.46a1.79,1.79,0,0,0-2.11-1.38l-7.39,1.56.8-7.51a1.78,1.78,0,1,0-3.54-.38l-.8,7.51-6.9-3.09a1.78,1.78,0,1,0-1.45,3.25l6.89,3.09L312,76.11a1.78,1.78,0,1,0,2.65,2.39l5.06-5.6,3.77,6.55a1.77,1.77,0,0,0,1.35.88,1.78,1.78,0,0,0,1.74-2.66l-3.77-6.55,7.39-1.55A1.78,1.78,0,0,0,331.59,67.46Z"/><path class="cls-4" d="M146,59a2.46,2.46,0,0,0-1.77-.51,2.48,2.48,0,0,0-.57-1.75c-1.34-1.47-4.61-.6-7.58,1.91-2.19-3.24-5.11-5-6.78-3.94a2.41,2.41,0,0,0-1,1.53,2.49,2.49,0,0,0-1.84,0c-1.8.82-2,4.21-.48,7.84-3.74,1.07-6.28,3.31-5.8,5.24a2.52,2.52,0,0,0,1.14,1.45,2.45,2.45,0,0,0-.56,1.75c.22,2,3.39,3.2,7.27,2.93-.11,3.91,1.23,7,3.21,7.18A2.44,2.44,0,0,0,133,82a2.49,2.49,0,0,0,1.49,1.09c1.94.4,4.06-2.23,5-6,3.67,1.34,7,1,7.78-.8a2.46,2.46,0,0,0-.08-1.84,2.49,2.49,0,0,0,1.49-1.08c1-1.72-.89-4.58-4.2-6.65C146.81,63.63,147.55,60.31,146,59ZM134.8,68.41Z"/><path class="cls-6" d="M138.37,64.35a.81.81,0,0,0-1.14,0l-2.36,2.46-1.62-3a.8.8,0,1,0-1.41.76l1.61,3-3.35.59a.81.81,0,0,0,.28,1.59l3.36-.59-.46,3.39a.83.83,0,0,0,.69.92.8.8,0,0,0,.49-.09.83.83,0,0,0,.42-.6l.46-3.39,3.07,1.5a.81.81,0,1,0,.7-1.45L136,68l2.35-2.46A.81.81,0,0,0,138.37,64.35Z"/><path class="cls-4" d="M183.38,105.28a3.79,3.79,0,0,0-1.76-2.19,3.72,3.72,0,0,0,.84-2.67c-.36-3-5.2-4.81-11.12-4.32.14-5.94-1.94-10.67-5-10.87a3.78,3.78,0,0,0-2.62,1,3.76,3.76,0,0,0-2.28-1.63c-3-.58-6.18,3.47-7.55,9.25-5.61-2-10.75-1.46-11.86,1.35a3.75,3.75,0,0,0,.13,2.8A3.79,3.79,0,0,0,140,99.67c-1.47,2.64,1.39,7,6.46,10-3.61,4.72-4.7,9.77-2.38,11.7a3.8,3.8,0,0,0,2.71.73,3.72,3.72,0,0,0,.89,2.66c2.05,2.21,7,.83,11.54-3,3.38,4.89,7.84,7.49,10.39,5.87a3.73,3.73,0,0,0,1.54-2.34,3.7,3.7,0,0,0,2.8,0c2.74-1.27,3-6.43.68-11.91C180.27,111.65,184.13,108.2,183.38,105.28ZM161.08,107Z"/><path class="cls-6" d="M169.12,105.08a1.24,1.24,0,0,0-1.44-1l-5.11,1,.66-5.16a1.23,1.23,0,1,0-2.43-.32l-.67,5.17-4.7-2.23a1.23,1.23,0,1,0-1.06,2.22l4.71,2.23-3.58,3.78a1.24,1.24,0,0,0,.05,1.74,1.26,1.26,0,0,0,.69.32,1.2,1.2,0,0,0,1-.37l3.58-3.79,2.49,4.57a1.24,1.24,0,0,0,.92.63,1.18,1.18,0,0,0,.75-.14,1.23,1.23,0,0,0,.49-1.66l-2.5-4.57,5.12-1A1.22,1.22,0,0,0,169.12,105.08Z"/><path class="cls-4" d="M289.17,87.67a5.73,5.73,0,0,0-3.26-2.8,5.74,5.74,0,0,0,.52-4.27c-1.39-4.42-9.2-5.79-18-3.39-1.46-9-5.93-15.55-10.53-15a5.79,5.79,0,0,0-3.67,2.24,5.75,5.75,0,0,0-3.9-1.81c-4.63,0-8.34,7-8.78,16.07-9-1.4-16.62.83-17.51,5.38a5.79,5.79,0,0,0,1,4.18,5.79,5.79,0,0,0-2.93,3.15c-1.47,4.39,4,10.09,12.56,13.32-4.1,8.14-4.33,16.06-.29,18.31a5.77,5.77,0,0,0,4.29.35,5.8,5.8,0,0,0,2.09,3.76c3.72,2.76,10.84-.73,16.55-7.84,6.47,6.42,13.94,9.09,17.33,5.94a5.79,5.79,0,0,0,1.65-4,5.75,5.75,0,0,0,4.22-.83c3.77-2.68,2.66-10.54-2.33-18.16C286.28,98.14,291.13,91.87,289.17,87.67ZM256,96.47h0Z"/><g class="cls-7"><path class="cls-8" d="M256.13,76.3a4.71,4.71,0,0,0,.49-3.46,4.71,4.71,0,0,0,3.15-1.52c2.42-2.89-.07-8.84-5.57-13.82,5.53-4.94,8.05-10.88,5.65-13.79a4.69,4.69,0,0,0-3.14-1.53,4.7,4.7,0,0,0-.47-3.47c-2-3.19-8.43-2.66-14.86,1-3-6.78-7.86-11-11.37-9.64a4.73,4.73,0,0,0-2.43,2.52,4.73,4.73,0,0,0-3.44-.63c-3.66.92-5.14,7.2-3.62,14.46-7.38.75-12.91,4.07-12.68,7.83a4.69,4.69,0,0,0,1.65,3.09,4.62,4.62,0,0,0-1.66,3.08c-.26,3.76,5.25,7.11,12.63,7.91-1.57,7.24-.12,13.53,3.53,14.47a4.67,4.67,0,0,0,3.44-.61,4.7,4.7,0,0,0,2.42,2.53c3.5,1.41,8.39-2.8,11.42-9.56C247.68,78.91,254.11,79.48,256.13,76.3ZM235.56,57.45h0Z"/><path class="cls-9" d="M244.13,63.16A1.53,1.53,0,0,0,243.8,61l-5.25-3.84,5.27-3.8a1.54,1.54,0,0,0-1.8-2.49l-5.26,3.81-2-6.19a1.53,1.53,0,1,0-2.91.94l2,6.18h-6.5a1.53,1.53,0,1,0,0,3.06l6.5,0-2,6.18a1.51,1.51,0,0,0,.22,1.37,1.44,1.44,0,0,0,.76.56,1.53,1.53,0,0,0,1.93-1l2-6.17L242,63.49A1.53,1.53,0,0,0,244.13,63.16Z"/></g><path class="cls-8" d="M108.33,107.74a2.37,2.37,0,0,0,.43-1.73,2.38,2.38,0,0,0,1.67-.61c1.38-1.34.41-4.49-2.12-7.3,3-2.23,4.63-5.11,3.56-6.71a2.42,2.42,0,0,0-1.51-.94,2.41,2.41,0,0,0-.07-1.78c-.85-1.72-4.14-1.78-7.59-.23-1.18-3.6-3.44-6-5.28-5.47a2.45,2.45,0,0,0-1.37,1.15,2.4,2.4,0,0,0-1.71-.49c-1.9.28-3,3.39-2.57,7.16-3.78,0-6.76,1.41-6.83,3.33a2.42,2.42,0,0,0,.68,1.65,2.34,2.34,0,0,0-1,1.48c-.32,1.89,2.31,3.87,6,4.65-1.16,3.6-.75,6.87,1.06,7.53a2.43,2.43,0,0,0,1.78-.13,2.35,2.35,0,0,0,1.09,1.4c1.71.89,4.4-1,6.29-4.27C103.91,108.64,107.14,109.26,108.33,107.74ZM98.85,97.13Z"/><path class="cls-10" d="M102.91,100.46a.79.79,0,0,0-.06-1.1l-2.47-2.21,2.86-1.67a.76.76,0,0,0,.29-1.06.78.78,0,0,0-1.07-.29L99.59,95.8l-.69-3.25a.78.78,0,1,0-1.53.33l.69,3.24-3.29-.34a.79.79,0,0,0-.86.7A.74.74,0,0,0,94,97a.79.79,0,0,0,.6.39l3.29.34-1.34,3a.8.8,0,0,0,0,.71.75.75,0,0,0,.36.32.77.77,0,0,0,1-.4l1.34-3,2.47,2.22A.79.79,0,0,0,102.91,100.46Z"/><path class="cls-8" d="M289.71,136a3.59,3.59,0,0,0-1.91-1.84,3.53,3.53,0,0,0,.48-2.61c-.7-2.77-5.46-3.9-11-2.75-.57-5.59-3.08-9.79-5.93-9.61a3.53,3.53,0,0,0-2.34,1.24,3.61,3.61,0,0,0-2.34-1.26c-2.85-.19-5.39,4-6,9.57-5.49-1.19-10.26-.09-11,2.67a3.55,3.55,0,0,0,.46,2.62,3.49,3.49,0,0,0-1.92,1.83c-1.07,2.65,2.12,6.36,7.24,8.66-2.82,4.86-3.26,9.73-.85,11.26a3.62,3.62,0,0,0,2.63.38,3.54,3.54,0,0,0,1.15,2.39c2.19,1.83,6.7-.06,10.48-4.22,3.74,4.19,8.24,6.11,10.45,4.29a3.54,3.54,0,0,0,1.16-2.38,3.56,3.56,0,0,0,2.63-.36c2.42-1.51,2-6.39-.77-11.27C287.54,142.3,290.76,138.61,289.71,136ZM269,140.15h0Z"/><path class="cls-11" d="M276.3,137.45a1.16,1.16,0,0,0-1.46-.75l-4.69,1.5v-4.92a1.16,1.16,0,1,0-2.32,0l0,4.93-4.68-1.54a1.16,1.16,0,1,0-.72,2.2l4.68,1.54-2.91,4a1.15,1.15,0,0,0,.25,1.62,1.14,1.14,0,0,0,.68.23,1.17,1.17,0,0,0,.94-.48l2.91-4,2.88,4a1.14,1.14,0,0,0,.94.48,1.15,1.15,0,0,0,.95-1.84l-2.88-4,4.69-1.51A1.16,1.16,0,0,0,276.3,137.45Z"/><path class="cls-12" d="M344.38,132.47a3.56,3.56,0,0,0-1.21,2.36,3.53,3.53,0,0,0-2.63.3c-2.46,1.46-2.16,6.34.54,11.28-5.19,2.16-8.48,5.78-7.49,8.46a3.57,3.57,0,0,0,1.87,1.88,3.59,3.59,0,0,0-.53,2.6c.64,2.79,5.38,4,10.9,3,.45,5.61,2.88,9.85,5.74,9.73a3.5,3.5,0,0,0,2.36-1.19,3.6,3.6,0,0,0,2.31,1.31c2.85.25,5.47-3.88,6.2-9.45,5.46,1.3,10.25.3,11-2.45a3.56,3.56,0,0,0-.4-2.62,3.53,3.53,0,0,0,1.95-1.79c1.12-2.63-2-6.4-7.07-8.81,2.93-4.8,3.46-9.66,1.08-11.24a3.51,3.51,0,0,0-2.61-.43,3.61,3.61,0,0,0-1.1-2.41c-2.16-1.88-6.71-.09-10.57,4C351.08,132.7,346.62,130.69,344.38,132.47Zm10,18.62h0Z"/><path class="cls-13" d="M232.45,74.38a4.68,4.68,0,0,0-3.45-.29,4.7,4.7,0,0,0-1.67-3c-3-2.23-8.74.55-13.36,6.25C208.79,72.12,202.78,70,200,72.48a4.65,4.65,0,0,0-1.35,3.19,4.6,4.6,0,0,0-3.4.65c-3,2.15-2.17,8.48,1.82,14.63-6.54,3.33-10.46,8.37-8.9,11.76a4.69,4.69,0,0,0,2.62,2.27,4.64,4.64,0,0,0-.43,3.43c1.1,3.56,7.39,4.69,14.48,2.79,1.14,7.25,4.72,12.54,8.43,12.1a4.61,4.61,0,0,0,3-1.79,4.65,4.65,0,0,0,3.14,1.47c3.73,0,6.74-5.58,7.12-12.91,7.25,1.16,13.39-.62,14.12-4.27a4.67,4.67,0,0,0-.79-3.38,4.63,4.63,0,0,0,2.37-2.52c1.2-3.53-3.23-8.14-10.08-10.77C235.49,82.59,235.7,76.21,232.45,74.38ZM214.93,95.74Z"/><path class="cls-14" d="M220.11,87a1.52,1.52,0,0,0-2.1.44l-3.5,5.4-4-5a1.52,1.52,0,1,0-2.36,1.91l4.05,5-6,2.3a1.52,1.52,0,1,0,1.09,2.83l6-2.3.34,6.43a1.51,1.51,0,0,0,1.59,1.43,1.55,1.55,0,0,0,.88-.33,1.53,1.53,0,0,0,.56-1.26l-.33-6.43,6.21,1.67A1.53,1.53,0,0,0,224.34,98a1.53,1.53,0,0,0-1.08-1.86l-6.21-1.67,3.51-5.39A1.53,1.53,0,0,0,220.11,87Z"/><path class="cls-13" d="M191.3,70.92a3.12,3.12,0,0,0-1.73-1.54,3.13,3.13,0,0,0,.31-2.3c-.7-2.39-4.9-3.2-9.67-2-.7-4.87-3.05-8.44-5.53-8.18a3.14,3.14,0,0,0-2,1.17,3.14,3.14,0,0,0-2.09-1c-2.49-.07-4.56,3.67-4.88,8.58-4.84-.84-9,.29-9.49,2.74a3.09,3.09,0,0,0,.5,2.26,3.11,3.11,0,0,0-1.61,1.67c-.84,2.35,2.09,5.48,6.65,7.3-2.29,4.35-2.49,8.62-.33,9.87a3.1,3.1,0,0,0,2.31.22,3.13,3.13,0,0,0,1.09,2.05c2,1.52,5.85-.29,9-4.07,3.42,3.52,7.42,5,9.28,3.36a3.12,3.12,0,0,0,.93-2.12,3.09,3.09,0,0,0,2.28-.41c2.06-1.41,1.53-5.65-1.09-9.81C189.64,76.54,192.31,73.2,191.3,70.92Zm-18,4.43h0Z"/><path class="cls-14" d="M179.64,72.72a1,1,0,0,0-1.3-.6l-4,1.49-.17-4.31a1,1,0,0,0-2,.08l.17,4.3-4.15-1.17a1,1,0,0,0-.55,2l4.14,1.17-2.39,3.58A1,1,0,0,0,171,80.35l2.39-3.58,2.67,3.38a1,1,0,0,0,.84.39,1,1,0,0,0,.58-.22,1,1,0,0,0,.17-1.42L175,75.51,179,74A1,1,0,0,0,179.64,72.72Z"/><path class="cls-13" d="M155.12,107.4a3.34,3.34,0,0,0-.12-2.51,3.46,3.46,0,0,0,2-1.49c1.33-2.37-1.23-6.25-5.77-9,3.25-4.23,4.24-8.77,2.16-10.5A3.36,3.36,0,0,0,151,83.2a3.39,3.39,0,0,0-.79-2.39c-1.84-2-6.31-.76-10.37,2.7-3-4.39-7-6.74-9.32-5.3a3.41,3.41,0,0,0-1.38,2.11,3.37,3.37,0,0,0-2.52,0c-2.46,1.14-2.67,5.77-.63,10.7-5.12,1.51-8.59,4.59-7.92,7.22a3.39,3.39,0,0,0,1.57,2,3.35,3.35,0,0,0-.76,2.39c.31,2.7,4.66,4.33,10,3.92-.14,5.33,1.72,9.58,4.43,9.76a3.41,3.41,0,0,0,2.35-.89,3.38,3.38,0,0,0,2,1.47c2.66.53,5.56-3.1,6.81-8.28C149.49,110.37,154.11,109.92,155.12,107.4ZM138.07,96.81h0Z"/><path class="cls-14" d="M144.89,99.71a1.12,1.12,0,0,0-.52-1.48l-4.22-2,3.22-3.39a1.1,1.1,0,1,0-1.6-1.52l-3.22,3.39-2.23-4.11a1.11,1.11,0,0,0-1.94,1.06l2.23,4.1L132,96.6a1.1,1.1,0,0,0-.56,1.89,1.1,1.1,0,0,0,1,.28l4.59-.85-.61,4.64a1.08,1.08,0,0,0,.34.94,1.1,1.1,0,0,0,.61.3,1.12,1.12,0,0,0,1.24-1l.61-4.64,4.22,2A1.11,1.11,0,0,0,144.89,99.71Z"/><path class="cls-13" d="M294.89,69.9a3.64,3.64,0,0,0-1.55-2.22,3.66,3.66,0,0,0,1-2.52c-.16-2.9-4.7-5-10.43-4.88.52-5.7-1.18-10.39-4.07-10.77a3.62,3.62,0,0,0-2.58.79,3.62,3.62,0,0,0-2.09-1.71c-2.82-.75-6.17,2.93-7.87,8.4-5.26-2.25-10.25-2.09-11.5.54a3.7,3.7,0,0,0,0,2.71,3.63,3.63,0,0,0-2.27,1.45c-1.59,2.45.88,6.78,5.56,10.08-3.77,4.31-5.15,9.1-3,11.11a3.65,3.65,0,0,0,2.56.88,3.58,3.58,0,0,0,.68,2.61c1.84,2.27,6.72,1.26,11.31-2.18,2.93,4.93,7.06,7.72,9.62,6.33a3.67,3.67,0,0,0,1.63-2.16,3.63,3.63,0,0,0,2.69.16c2.72-1,3.27-6,1.42-11.43C291.49,75.82,295.42,72.76,294.89,69.9Zm-21.56.17Z"/><path class="cls-14" d="M281.18,68.79a1.18,1.18,0,0,0-1.31-1l-5,.6,1-4.93a1.19,1.19,0,0,0-2.33-.46l-1,4.93-4.39-2.45A1.18,1.18,0,1,0,267,67.5L271.4,70l-3.68,3.42a1.18,1.18,0,0,0-.07,1.67,1.21,1.21,0,0,0,.64.36,1.19,1.19,0,0,0,1-.3L273,71.69l2.11,4.56a1.18,1.18,0,0,0,.84.67,1.24,1.24,0,0,0,.73-.09,1.19,1.19,0,0,0,.58-1.57l-2.11-4.56,5-.6A1.17,1.17,0,0,0,281.18,68.79Z"/><path class="cls-8" d="M379.74,67.46a4.82,4.82,0,0,0-3.39-1.14,4.83,4.83,0,0,0-.94-3.44c-2.46-3-8.91-1.57-14.93,3-4-6.47-9.45-10.11-12.81-8.23a4.81,4.81,0,0,0-2.13,2.87,4.84,4.84,0,0,0-3.57-.17c-3.58,1.43-4.23,8-1.72,15.14-7.37,1.75-12.53,5.86-11.78,9.64a4.8,4.8,0,0,0,2.07,2.91,4.77,4.77,0,0,0-1.26,3.34c.25,3.85,6.28,6.5,13.86,6.31-.61,7.56,1.71,13.73,5.53,14.2a4.87,4.87,0,0,0,3.41-1.08,4.8,4.8,0,0,0,2.79,2.23c3.73,1,8.12-4,10.28-11.23,7,2.91,13.59,2.62,15.21-.87a4.84,4.84,0,0,0,0-3.58,4.8,4.8,0,0,0,3-2c2.06-3.25-1.27-9-7.51-13.25C380.8,76.43,382.56,70.08,379.74,67.46ZM357,84.65Z"/><path class="cls-10" d="M364.31,77.09a1.57,1.57,0,0,0-2.22-.06l-4.82,4.56-2.85-6a1.57,1.57,0,1,0-2.83,1.35l2.85,6-6.59.85a1.57,1.57,0,0,0,.4,3.11l6.59-.85-1.22,6.53a1.55,1.55,0,0,0,1.25,1.82,1.49,1.49,0,0,0,1-.12,1.56,1.56,0,0,0,.87-1.13l1.22-6.53,5.83,3.18a1.57,1.57,0,0,0,1.43,0,1.56,1.56,0,0,0,.07-2.79l-5.83-3.18,4.83-4.56A1.58,1.58,0,0,0,364.31,77.09Z"/><path class="cls-13" d="M331.08,101.57a5.09,5.09,0,0,0-2.93-2.39,5.08,5.08,0,0,0,.36-3.76c-1.32-3.86-8.22-4.88-15.9-2.59C311.13,85,307.06,79.3,303,79.89a5.07,5.07,0,0,0-3.18,2,5.06,5.06,0,0,0-3.47-1.51c-4.07.06-7.18,6.31-7.37,14.32-7.95-1-14.59,1.1-15.27,5.12a5.09,5.09,0,0,0,1,3.65,5.13,5.13,0,0,0-2.5,2.83c-1.2,3.9,3.78,8.78,11.34,11.44-3.43,7.24-3.46,14.21.15,16.1a5.08,5.08,0,0,0,3.77.22,5.07,5.07,0,0,0,1.92,3.25c3.33,2.34,9.52-.88,14.38-7.25,5.83,5.5,12.45,7.69,15.36,4.84a5,5,0,0,0,1.37-3.53,5.07,5.07,0,0,0,3.69-.81c3.26-2.45,2.11-9.33-2.45-15.92C328.76,110.85,332.89,105.22,331.08,101.57ZM302.13,110h0Z"/><path class="cls-14" d="M312.21,105.31a1.66,1.66,0,0,0-2.17-.89l-6.48,2.71-.57-7a1.66,1.66,0,0,0-3.3.27l.56,7-6.83-1.62a1.66,1.66,0,1,0-.77,3.23l6.84,1.62-3.66,6a1.65,1.65,0,0,0,.56,2.27,1.61,1.61,0,0,0,1,.24,1.64,1.64,0,0,0,1.28-.79l3.66-6,4.57,5.33a1.68,1.68,0,0,0,1.4.58,1.67,1.67,0,0,0,1.12-2.74l-4.58-5.33,6.49-2.7A1.66,1.66,0,0,0,312.21,105.31Z"/><path class="cls-8" d="M196.67,127.59a2.41,2.41,0,0,0-1.14-1.42,2.44,2.44,0,0,0,.55-1.74c-.24-2-3.38-3.12-7.23-2.81.09-3.86-1.26-6.93-3.22-7.06a2.41,2.41,0,0,0-1.7.65,2.44,2.44,0,0,0-1.49-1.06c-1.92-.38-4,2.25-4.9,6-3.64-1.28-7-.94-7.71.88a2.42,2.42,0,0,0,.09,1.82,2.46,2.46,0,0,0-1.47,1.08c-.95,1.72.9,4.52,4.2,6.53-2.34,3.06-3.05,6.35-1.54,7.6a2.47,2.47,0,0,0,1.75.48,2.44,2.44,0,0,0,.58,1.72c1.34,1.44,4.57.54,7.5-2,2.2,3.17,5.1,4.87,6.76,3.82a2.52,2.52,0,0,0,1-1.53,2.48,2.48,0,0,0,1.82,0c1.78-.83,1.92-4.19.44-7.75C194.65,131.73,197.16,129.49,196.67,127.59Zm-14.48,1.09Z"/><path class="cls-9" d="M187.41,127.46a.8.8,0,0,0-.93-.64l-3.33.63.43-3.36a.79.79,0,0,0-.68-.89.8.8,0,0,0-.9.69l-.43,3.35-3.06-1.45a.8.8,0,0,0-.68,1.45l3,1.45-2.32,2.46a.79.79,0,0,0,0,1.12.91.91,0,0,0,.45.22.78.78,0,0,0,.68-.25l2.32-2.46,1.63,3a.78.78,0,0,0,.6.41.81.81,0,0,0,.48-.09.8.8,0,0,0,.32-1.08l-1.62-3,3.32-.63A.8.8,0,0,0,187.41,127.46Z"/></g><path class="cls-15" d="M21.56,124.6v-9.87H24v3h4.92v-3.07H31.4v9.89Zm17,2.09v1.94H32.79c.24,2.5,3.75,4.25,6.8,4.58l-1.13,1.88c-2.74-.22-6.29-2.31-7-4.2-.82,1.89-4,3.81-7.06,4.15l-1.13-1.83c3.34-.21,6.36-2.06,6.89-4.58H24.39v-1.94Zm-9.6-7H24v2.9h4.92Zm6.93,5.8v-5H32.5v-2.06h3.36v-5h2.45v12Z"/><path class="cls-15" d="M41.48,124.05v-2h8.78v-3.57h2.45v3.57H60.8v2ZM58,135.21c-3-.12-6-1.68-6.94-3.2-.77,1.35-3.79,3-7.05,3.15l-1.16-1.9c3.65-.07,6.39-1.44,6.84-3.14h-5.9v-2H58.54v2H52.38c.48,1.8,3.38,3.12,6.69,3.21ZM49.81,114a19.81,19.81,0,0,1-1.15,6.85l-2.38-.46a12,12,0,0,0,1-4.44H43.09v-2Zm-2.07,13.18v-1.89h6.82v1.89Zm11-13.18a25,25,0,0,1-.77,6.85l-2.35-.39a15,15,0,0,0,.65-4.51H51.46v-2Z"/></svg>