<svg id="Layer_1" data-name="Layer 1" xmlns="http://www.w3.org/2000/svg" xmlns:xlink="http://www.w3.org/1999/xlink" viewBox="0 0 375 152"><defs><style>.cls-1{fill:none;}.cls-2{clip-path:url(#clip-path);}.cls-3{fill:#007ff0;}.cls-4{opacity:0.7;}.cls-5{fill:#424242;}.cls-6{fill:#fff;}.cls-7{fill:#77c1ff;}</style><clipPath id="clip-path"><rect class="cls-1" width="375" height="152"/></clipPath></defs><g class="cls-2"><rect class="cls-3" x="-5.56" y="-4.03" width="383.32" height="159.11"/><g class="cls-4"><path class="cls-5" d="M179.37,174.72a14.72,14.72,0,1,1,13.94-9.95h0A14.75,14.75,0,0,1,179.37,174.72Zm0-26.11a11.39,11.39,0,1,0,3.67.61A11.43,11.43,0,0,0,179.4,148.61Z"/><path class="cls-6" d="M219.89,175a1,1,0,0,1-.38-.07L200,168.3a1.17,1.17,0,1,1,.76-2.21l17.43,6L212.54,150a1.17,1.17,0,0,1,2.27-.58L221,173.57a1.17,1.17,0,0,1-1.13,1.46Z"/><path class="cls-6" d="M201,168.58a1.17,1.17,0,0,1-1-1.84l15.49-22a1.17,1.17,0,1,1,1.92,1.34l-15.49,22A1.18,1.18,0,0,1,201,168.58Z"/><path class="cls-6" d="M212.57,153.25a1.26,1.26,0,0,1-.38-.06l-20.71-7.08a1.17,1.17,0,1,1,.76-2.22L213,151a1.17,1.17,0,0,1-.38,2.27Z"/><path class="cls-6" d="M179.39,161.18a1.18,1.18,0,0,1-.94-1.88L193,140.08c3.54-4.8,1.1-7.66-1.05-10.18-.24-.28-.46-.55-.67-.81a1.17,1.17,0,1,1,1.81-1.47l.65.76c2.16,2.54,5.78,6.79,1.14,13.1l-14.55,19.23A1.16,1.16,0,0,1,179.39,161.18Z"/><rect class="cls-5" x="189.07" y="128.58" width="14.09" height="3.05" rx="1.45" transform="translate(74.54 -71.41) rotate(25.34)"/><rect class="cls-5" x="214.41" y="142.35" width="12.1" height="4.78" rx="2.32" transform="translate(58.71 -63.56) rotate(18.88)"/><path class="cls-6" d="M204.77,163.29a1.16,1.16,0,0,1-1-.56l-9.78-16a1.17,1.17,0,0,1,2-1.22l9.78,16a1.18,1.18,0,0,1-.39,1.61A1.13,1.13,0,0,1,204.77,163.29Z"/></g><g class="cls-4"><path class="cls-5" d="M108.46,126.13A11.5,11.5,0,1,1,120,114h0a11.51,11.51,0,0,1-10.85,12.12C108.88,126.13,108.67,126.13,108.46,126.13Zm0-20.41-.5,0a8.9,8.9,0,1,0,9.39,8.4h0A8.92,8.92,0,0,0,108.47,105.72Z"/><path class="cls-5" d="M141.85,124.29a11.5,11.5,0,0,1-.62-23,11.54,11.54,0,0,1,12.12,10.85h0a11.51,11.51,0,0,1-10.85,12.12Zm0-20.41h-.49a8.91,8.91,0,1,0,9.38,8.4h0A8.91,8.91,0,0,0,141.87,103.88Z"/><circle class="cls-6" cx="126.33" cy="113.64" r="2.9"/><path class="cls-6" d="M125.79,114.59a.92.92,0,0,1-.05-1.83l14.39-.8L129.54,97.63A.92.92,0,1,1,131,96.54l11.59,15.7a.92.92,0,0,1,.1.93.93.93,0,0,1-.78.53l-16.07.88Z"/><path class="cls-6" d="M126.33,114.56a.76.76,0,0,1-.21,0,.91.91,0,0,1-.68-1.1L130.2,93a.92.92,0,0,1,1.79.42l-4.77,20.47A.93.93,0,0,1,126.33,114.56Z"/><path class="cls-6" d="M113.1,101a.91.91,0,0,1,0-1.82l17.08-1a.92.92,0,0,1,.1,1.83l-17.08.94Z"/><path class="cls-6" d="M108.47,115.54a1,1,0,0,1-.24,0,.91.91,0,0,1-.65-1.12l4.9-18.19c1.15-4.51-1.45-5.87-3.75-7.06l-.73-.39a.93.93,0,0,1-.36-1.25.92.92,0,0,1,1.25-.35c.21.12.45.24.69.36,2.31,1.21,6.18,3.23,4.67,9.16l-4.9,18.2A.92.92,0,0,1,108.47,115.54Z"/><rect class="cls-5" x="106.3" y="86.87" width="11.01" height="2.38" rx="1.14" transform="translate(5.24 -6.28) rotate(3.29)"/><rect class="cls-5" x="129.02" y="89.65" width="9.46" height="3.74" rx="1.82" transform="translate(-4.84 7.52) rotate(-3.16)"/><path class="cls-6" d="M127.47,109.63a.9.9,0,0,1-.54-.18l-11.79-8.76a.92.92,0,1,1,1.09-1.47L128,108a.92.92,0,0,1-.55,1.65Z"/></g><path class="cls-6" d="M336.45,95.5c-18,14-60.14,35.4-82.7,42.42A5.28,5.28,0,0,1,247.2,135l-5.57-10.85,90.68-46.51,5.56,10.85A5.3,5.3,0,0,1,336.45,95.5Z"/><path class="cls-7" d="M311,49.19a4.2,4.2,0,0,0-1.54,2.11c-.54,1.41-.41,6.6-10.31,10.2-6.55,2.39-14.45,1.42-19.66-2.25a4.1,4.1,0,0,0-4.82,0c-4.8,3.54-4.95,9.92-15.77,22.46-14.81,17.18-25.83,25.83-17.31,42.45,1.22,2.37,3.94,2.36,7.52,1.6,27-9.23,60.83-26.56,80.07-41.08,2.69-2.42,4.31-4.66,3.09-7L318.55,50.79C316.78,47.11,312.32,48.23,311,49.19Z"/><path class="cls-6" d="M251.83,89.73l10.91,5.21a4,4,0,0,0,5.44-2,4.26,4.26,0,0,0-2.05-5.55l-8.61-4.11C255.53,85.59,253.62,87.71,251.83,89.73Z"/><path class="cls-6" d="M266.28,71.84a78.17,78.17,0,0,1-4.86,6.83l10.59,5a4,4,0,0,0,5.44-2,4.26,4.26,0,0,0-2.05-5.55Z"/><circle class="cls-6" cx="194.15" cy="73.05" r="18.75"/><path class="cls-3" d="M182.29,82.74h0a16.66,16.66,0,0,1-5.38-1.07.92.92,0,0,1,.67-1.71,14.64,14.64,0,0,0,4.75,1,.92.92,0,0,1,0,1.83Zm5.05-1A.92.92,0,0,1,187,80a12.22,12.22,0,0,0,4-2.67.92.92,0,1,1,1.3,1.29,14,14,0,0,1-4.59,3.07A.84.84,0,0,1,187.34,81.73Zm-14.44-2.8a.92.92,0,0,1-.65-.27,13.46,13.46,0,0,1-3-4.62.92.92,0,1,1,1.7-.68,11.81,11.81,0,0,0,2.62,4,.92.92,0,0,1-.65,1.56Zm21.59-4.35a.93.93,0,0,1-.35-.08.9.9,0,0,1-.49-1.19,12.44,12.44,0,0,0,.93-4.71.93.93,0,0,1,.91-.94.89.89,0,0,1,.92.88v.06A14.11,14.11,0,0,1,195.34,74,.93.93,0,0,1,194.49,74.58Zm-25.37-5a.9.9,0,0,1-.92-.9v0a14.68,14.68,0,0,1,1-5.38.91.91,0,1,1,1.7.67A13,13,0,0,0,170,68.6.93.93,0,0,1,169.12,69.53Zm25.35-5.12a.9.9,0,0,1-.84-.56,12.28,12.28,0,0,0-2.69-4,.92.92,0,0,1,0-1.3.91.91,0,0,1,1.29,0,13.94,13.94,0,0,1,3.09,4.57.91.91,0,0,1-.85,1.27Zm-21.61-4.26a.91.91,0,0,1-.65-.27.92.92,0,0,1,0-1.3,13.51,13.51,0,0,1,4.62-3,.92.92,0,1,1,.68,1.7,11.58,11.58,0,0,0-4,2.62A.92.92,0,0,1,172.86,60.15Zm14.43-2.87a.87.87,0,0,1-.35-.07,12.37,12.37,0,0,0-4.67-.91.94.94,0,0,1-.94-.89.9.9,0,0,1,.84-.94h.18a13.91,13.91,0,0,1,5.29,1.06.91.91,0,0,1-.35,1.76Z"/><path class="cls-3" d="M214.57,92.93h0l-.17,0a10.16,10.16,0,0,1-4.3-2.42.8.8,0,1,1,1.1-1.16,8.52,8.52,0,0,0,3.53,2l.15.05a.8.8,0,0,1-.26,1.56Zm4.54-.27a.79.79,0,0,1-.76-.55.81.81,0,0,1,.49-1,10.18,10.18,0,0,0,3.6-2.22.81.81,0,0,1,1.14,0,.82.82,0,0,1,0,1.14,11.73,11.73,0,0,1-4.17,2.57A.85.85,0,0,1,219.11,92.66Zm-11-5.79a.81.81,0,0,1-.76-.52,15.13,15.13,0,0,1-.9-4.76.81.81,0,0,1,1.61,0,13.37,13.37,0,0,0,.8,4.25.81.81,0,0,1-.47,1A.72.72,0,0,1,208.13,86.87Zm17.65-.25a.75.75,0,0,1-.38-.1.8.8,0,0,1-.32-1.09,16.07,16.07,0,0,0,1.54-4.09.81.81,0,0,1,1-.62.77.77,0,0,1,.61.93l-.78-.17.78.2a17.53,17.53,0,0,1-1.71,4.52A.79.79,0,0,1,225.78,86.62ZM207.73,77.8a.55.55,0,0,1-.18,0,.8.8,0,0,1-.6-1,18.34,18.34,0,0,1,1.66-4.5.8.8,0,0,1,1.08-.34.81.81,0,0,1,.34,1.08,17.19,17.19,0,0,0-1.52,4.12A.79.79,0,0,1,207.73,77.8Zm20.09-.09A.8.8,0,0,1,227,77a13.62,13.62,0,0,0-.87-4.24.8.8,0,0,1,1.5-.58,15.62,15.62,0,0,1,1,4.74.8.8,0,0,1-.77.84ZM212,69.81a.79.79,0,0,1-.58-.25.8.8,0,0,1,0-1.13,10.89,10.89,0,0,1,4.2-2.56.81.81,0,0,1,1,.52.8.8,0,0,1-.52,1,9.26,9.26,0,0,0-3.58,2.19A.81.81,0,0,1,212,69.81Zm12.41-.44a.78.78,0,0,1-.57-.23,7.32,7.32,0,0,0-3.55-2,.81.81,0,0,1-.62-.94.79.79,0,0,1,.92-.63h0A9,9,0,0,1,225,68a.81.81,0,0,1,0,1.14A.85.85,0,0,1,224.45,69.37Z"/><circle class="cls-6" cx="332.81" cy="160.27" r="18.57"/><path class="cls-3" d="M344,168.66a14.08,14.08,0,0,1-4.85-.86.91.91,0,0,1,.63-1.71,11.93,11.93,0,0,0,4.7.75.93.93,0,0,1,.94.87.91.91,0,0,1-.87.94Zm5.48-1.19a.93.93,0,0,1-.83-.53.91.91,0,0,1,.45-1.2A12.19,12.19,0,0,0,353,163a.92.92,0,0,1,1.28-.07.91.91,0,0,1,.09,1.26l0,0a14.17,14.17,0,0,1-4.42,3.21A1,1,0,0,1,349.52,167.47Zm-15-2.56.64-.64-.65.64a14,14,0,0,1-3.2-4.42.91.91,0,1,1,1.65-.76,12.19,12.19,0,0,0,2.79,3.85l-.59.69Zm21.8-4.8A.78.78,0,0,1,356,160a.91.91,0,0,1-.51-1.17,11.56,11.56,0,0,0,.81-4.23c0-.15,0-.29,0-.44a.91.91,0,1,1,1.82-.06c0,.16,0,.33,0,.5a13.44,13.44,0,0,1-.94,4.89A.91.91,0,0,1,356.32,160.11ZM331,156.05a.91.91,0,0,1-.9-.88c0-.17,0-.34,0-.51a13.94,13.94,0,0,1,.87-4.88.91.91,0,0,1,1.17-.53.89.89,0,0,1,.53,1.16,12.28,12.28,0,0,0-.76,4.25c0,.15,0,.3,0,.45a.91.91,0,0,1-.87.94Zm25-5.92a.92.92,0,0,1-.82-.51,12.82,12.82,0,0,0-2.84-3.84.91.91,0,0,1,1.23-1.33,14.79,14.79,0,0,1,3.25,4.38.91.91,0,0,1-.82,1.3Zm-21.49-3.48a.88.88,0,0,1-.64-.26.89.89,0,0,1,0-1.28h0a16.7,16.7,0,0,1,4.39-3.16.91.91,0,1,1,.79,1.64,14.42,14.42,0,0,0-3.9,2.81A.88.88,0,0,1,334.46,146.65Zm14.12-3.35a1,1,0,0,1-.33-.06,11.09,11.09,0,0,0-4.66-.81.92.92,0,0,1-.94-.87.91.91,0,0,1,.87-.95,13.47,13.47,0,0,1,5.39.93.92.92,0,0,1,.52,1.18A.91.91,0,0,1,348.58,143.3Z"/><circle class="cls-6" cx="364.45" cy="54.74" r="14.06"/><path class="cls-3" d="M354.79,68.65h-.05a10.14,10.14,0,0,1-4-1.16.68.68,0,1,1,.64-1.21,8.66,8.66,0,0,0,3.44,1,.69.69,0,0,1,0,1.38Zm3.83-.52a.69.69,0,0,1-.23-1.34A10.76,10.76,0,0,0,361.55,65l0,0,.06,0a.68.68,0,0,1,.84,1.07l-.06.06h0a12.65,12.65,0,0,1-3.57,2A1,1,0,0,1,358.62,68.13Zm-10.56-3a.66.66,0,0,1-.52-.24,11.18,11.18,0,0,1-2.08-3.57.69.69,0,0,1,1.3-.45A9.54,9.54,0,0,0,348.58,64a.69.69,0,0,1-.07,1A.7.7,0,0,1,348.06,65.16Zm16.32-2a.7.7,0,0,1-.62-1,9.08,9.08,0,0,0,1-3.47.69.69,0,0,1,1.37.1,10.47,10.47,0,0,1-1.1,4A.68.68,0,0,1,364.38,63.18ZM345.59,58h0a.68.68,0,0,1-.64-.73,10.21,10.21,0,0,1,1.15-4A.69.69,0,0,1,347,53a.68.68,0,0,1,.29.93,8.68,8.68,0,0,0-1,3.44A.67.67,0,0,1,345.59,58Zm19.35-2.37a.67.67,0,0,1-.65-.47A9.26,9.26,0,0,0,362.52,52a.69.69,0,0,1,.06-1,.66.66,0,0,1,.95.06l-.51.45.52-.45a10.62,10.62,0,0,1,2,3.62.69.69,0,0,1-.43.87ZM349,51.22a.7.7,0,0,1-.53-.25.68.68,0,0,1,0-.9l.08-.08a10.66,10.66,0,0,1,3.57-2,.69.69,0,0,1,.44,1.31A9,9,0,0,0,349.57,51l-.09.08A.72.72,0,0,1,349,51.22ZM360,49.85a.67.67,0,0,1-.31-.07,9.13,9.13,0,0,0-3.47-1,.68.68,0,0,1-.64-.73.7.7,0,0,1,.74-.64,10.47,10.47,0,0,1,4,1.1.69.69,0,0,1,.3.92A.68.68,0,0,1,360,49.85Z"/><path class="cls-3" d="M382.38,56.89H382a.6.6,0,0,1-.57-.63.6.6,0,0,1,.6-.57h0a6.68,6.68,0,0,0,3-.61h0a.6.6,0,0,1,.59,1l-.08,0A7.74,7.74,0,0,1,382.38,56.89Zm-3.61-1a.6.6,0,0,1-.29-.08,10.87,10.87,0,0,1-2.84-2.26.59.59,0,0,1,0-.85.6.6,0,0,1,.85,0,10.09,10.09,0,0,0,2.53,2,.6.6,0,0,1,.24.81A.61.61,0,0,1,378.77,55.92Zm9.06-2.09a.55.55,0,0,1-.3-.09.6.6,0,0,1-.22-.82,7.66,7.66,0,0,0,1-3,.58.58,0,0,1,.66-.53.6.6,0,0,1,.53.66,8.73,8.73,0,0,1-1.11,3.51A.6.6,0,0,1,387.83,53.83ZM374.11,51a.62.62,0,0,1-.54-.32,13.76,13.76,0,0,1-1.26-3.37.61.61,0,0,1,.45-.72.6.6,0,0,1,.72.45,12.4,12.4,0,0,0,1.16,3.08.61.61,0,0,1-.25.81A.58.58,0,0,1,374.11,51Zm14.56-3.83a.6.6,0,0,1-.59-.47A11.76,11.76,0,0,0,387,43.58a.64.64,0,0,1,.24-.84.59.59,0,0,1,.8.23l0,0a13.44,13.44,0,0,1,1.24,3.39.61.61,0,0,1-.46.72Zm-16-2.82h-.06a.61.61,0,0,1-.54-.66,8.22,8.22,0,0,1,1.14-3.51.6.6,0,1,1,1,.63,7,7,0,0,0-1,3A.6.6,0,0,1,372.64,44.31Zm12.83-3.25a.59.59,0,0,1-.44-.19,10.66,10.66,0,0,0-2.57-2,.61.61,0,0,1-.25-.81.62.62,0,0,1,.82-.25A11.55,11.55,0,0,1,385.9,40a.6.6,0,0,1,0,.85A.58.58,0,0,1,385.47,41.06Zm-9.32-2.41a.59.59,0,0,1-.52-.29.57.57,0,0,1,.18-.8l.12-.06a6.67,6.67,0,0,1,3.58-.72.59.59,0,0,1,.55.64.6.6,0,0,1-.64.56,5.6,5.6,0,0,0-3,.6A.59.59,0,0,1,376.15,38.65Z"/><circle class="cls-6" cx="77.21" cy="51.18" r="13.29"/><path class="cls-3" d="M85,58.07h0a10.09,10.09,0,0,1-3.76-1,.66.66,0,0,1-.29-.88.65.65,0,0,1,.87-.29,8.54,8.54,0,0,0,3.28.9.65.65,0,0,1,0,1.3Zm3.63-.45a.65.65,0,0,1-.21-1.27,8.58,8.58,0,0,0,2.9-1.63l.07-.06a.65.65,0,0,1,.83,1l-.42-.5.42.5a10,10,0,0,1-3.39,1.93A.64.64,0,0,1,88.6,57.62Zm-10-2.77a.62.62,0,0,1-.47-.21l.49-.43-.5.42a10,10,0,0,1-1.94-3.42.65.65,0,0,1,.42-.82.66.66,0,0,1,.82.41,8.52,8.52,0,0,0,1.67,3,.67.67,0,0,1-.06.93A.64.64,0,0,1,78.55,54.85ZM94,52.92a.63.63,0,0,1-.3-.07.66.66,0,0,1-.28-.88,8.11,8.11,0,0,0,1-3.25.65.65,0,1,1,1.29.09,9.45,9.45,0,0,1-1.09,3.77A.63.63,0,0,1,94,52.92ZM76.31,48h0a.65.65,0,0,1-.6-.7,10.05,10.05,0,0,1,1-3.76.64.64,0,0,1,.87-.29.65.65,0,0,1,.29.87A8.92,8.92,0,0,0,77,47.43.64.64,0,0,1,76.31,48ZM94.54,45.8a.64.64,0,0,1-.61-.44,9.36,9.36,0,0,0-1.72-3,.65.65,0,0,1,.07-.91.64.64,0,0,1,.91.06,10.41,10.41,0,0,1,2,3.37.65.65,0,0,1-.4.83A.52.52,0,0,1,94.54,45.8Zm-15-4.17a.66.66,0,0,1-.58-.36.67.67,0,0,1,0-.63l0-.08.1-.08,0,0a11.81,11.81,0,0,1,3.37-1.89.65.65,0,0,1,.43,1.23,10,10,0,0,0-2.89,1.6l0,.06-.2.1A.59.59,0,0,1,79.53,41.63Zm10.31-1.27a.67.67,0,0,1-.3-.08,8.21,8.21,0,0,0-3.25-.94.65.65,0,0,1,.1-1.3,9.74,9.74,0,0,1,3.76,1.09.65.65,0,0,1-.31,1.23Z"/><path class="cls-3" d="M63.47,68.17l-.48,0a.55.55,0,0,1-.52-.6.58.58,0,0,1,.6-.53,5.33,5.33,0,0,0,2.81-.57.57.57,0,0,1,.78.22.54.54,0,0,1-.19.75l-.29-.49.28.5A6.3,6.3,0,0,1,63.47,68.17Zm-3.54-.94a.59.59,0,0,1-.26-.07A10.75,10.75,0,0,1,57,65.07a.57.57,0,0,1,.82-.78,9.94,9.94,0,0,0,2.43,1.87.56.56,0,0,1,.24.76A.57.57,0,0,1,59.93,67.23Zm8.56-2a.52.52,0,0,1-.3-.08.57.57,0,0,1-.19-.78,6.61,6.61,0,0,0,.91-2.84.57.57,0,0,1,1.13.11A7.79,7.79,0,0,1,69,65,.57.57,0,0,1,68.49,65.24Zm-13-2.65a.51.51,0,0,1-.47-.28l.5-.27-.52.23a12.71,12.71,0,0,1-1.18-3.21.57.57,0,1,1,1.12-.24,11.3,11.3,0,0,0,1,2.91.57.57,0,0,1-.5.86Zm13.79-3.66a.57.57,0,0,1-.55-.44,12.38,12.38,0,0,0-1.09-2.91.57.57,0,1,1,1-.53,13.82,13.82,0,0,1,1.2,3.18.58.58,0,0,1-.43.69ZM54.15,56.27h-.07a.56.56,0,0,1-.5-.62,8.26,8.26,0,0,1,1.05-3.31.57.57,0,1,1,1,.57,7.28,7.28,0,0,0-.9,2.86A.57.57,0,0,1,54.15,56.27Zm12.07-3A.55.55,0,0,1,65.8,53a9.17,9.17,0,0,0-2.39-1.9.58.58,0,0,1-.23-.78.57.57,0,0,1,.77-.22,10.31,10.31,0,0,1,2.69,2.13.57.57,0,0,1-.42,1Zm-8.79-2.3a.55.55,0,0,1-.51-.31.56.56,0,0,1,.25-.76h0a7.22,7.22,0,0,1,3.43-.7.57.57,0,0,1,.54.59.55.55,0,0,1-.59.55,6.19,6.19,0,0,0-2.89.58A.49.49,0,0,1,57.43,50.93Z"/></g><path class="cls-6" d="M29.36,130.24v-4H20.72v-2H40v2H31.83v4Zm1-7.75c-4.66,0-7.37-1.8-7.37-4.28S25.74,114,30.37,114s7.41,1.83,7.41,4.25S35,122.49,30.37,122.49Zm-7.15,11.78v-6h2.47v4.08H37.76v1.94Zm7.15-18.34c-3,0-4.85.87-4.85,2.33s1.87,2.26,4.85,2.26,4.87-.84,4.87-2.26S33.37,115.93,30.37,115.93Z"/><path class="cls-6" d="M52.33,121.41v2.23H60.8v2H41.48v-2h8.4v-2.23H44v-7.32H58.33v2H46.5v3.31h12v2Zm-1.18,13.51c-4.73,0-7.41-1.51-7.41-3.91s2.68-3.89,7.39-3.89,7.44,1.53,7.44,3.89S55.86,134.92,51.15,134.92Zm0-5.83c-3,0-4.87.72-4.87,1.94s1.87,1.9,4.87,1.9,4.9-.68,4.9-1.9S54.15,129.09,51.13,129.09Z"/></svg>