<svg id="Layer_1" data-name="Layer 1" xmlns="http://www.w3.org/2000/svg" xmlns:xlink="http://www.w3.org/1999/xlink" viewBox="0 0 144 104"><defs><style>.cls-1{fill:none;}.cls-2{clip-path:url(#clip-path);}.cls-3{fill:#007ff0;}.cls-4{opacity:0.7;}.cls-5{fill:#424242;}.cls-6{fill:#fff;}.cls-7{fill:#77c1ff;}</style><clipPath id="clip-path"><rect class="cls-1" width="144" height="104"/></clipPath></defs><g class="cls-2"><rect class="cls-3" x="-4.48" y="-3.23" width="152.96" height="110.47"/><g class="cls-4"><path class="cls-5" d="M51.57,122.49a11.27,11.27,0,1,1,10.66-7.63h0a11.32,11.32,0,0,1-10.66,7.63Zm0-20a8.73,8.73,0,0,0-7.85,12.57,8.73,8.73,0,0,0,16.1-1h0a8.73,8.73,0,0,0-8.25-11.56Z"/><path class="cls-6" d="M82.58,122.72a1,1,0,0,1-.29,0l-14.92-5.1a.9.9,0,1,1,.58-1.7l13.35,4.57L77,103.52a.89.89,0,0,1,1.73-.45l4.76,18.53a.9.9,0,0,1-.26.88A.94.94,0,0,1,82.58,122.72Z"/><path class="cls-6" d="M68.15,117.78a.91.91,0,0,1-.52-.16.9.9,0,0,1-.21-1.25L79.28,99.52a.89.89,0,0,1,1.25-.21.91.91,0,0,1,.22,1.25L68.88,117.4A.88.88,0,0,1,68.15,117.78Z"/><path class="cls-6" d="M77,106a.93.93,0,0,1-.29-.05l-15.87-5.42a.9.9,0,1,1,.58-1.7l15.87,5.43a.89.89,0,0,1,.56,1.13A.9.9,0,0,1,77,106Z"/><path class="cls-6" d="M51.56,112.11a.89.89,0,0,1-.71-1.44L62,96c2.71-3.68.84-5.87-.8-7.8l-.52-.62a.9.9,0,0,1,1.39-1.13c.16.19.32.39.5.59,1.65,2,4.42,5.2.87,10L52.28,111.75A.92.92,0,0,1,51.56,112.11Z"/><rect class="cls-5" x="58.98" y="87.14" width="10.79" height="2.33" rx="1.11" transform="translate(43.98 -19.05) rotate(25.34)"/><rect class="cls-5" x="78.39" y="97.69" width="9.27" height="3.66" rx="1.78" transform="translate(36.68 -21.51) rotate(18.88)"/><path class="cls-6" d="M71,113.73a.91.91,0,0,1-.76-.43L62.75,101a.89.89,0,0,1,.3-1.23.9.9,0,0,1,1.23.3l7.49,12.29a.9.9,0,0,1-.77,1.37Z"/></g><g class="cls-4"><path class="cls-5" d="M82.09,18.76a8.3,8.3,0,1,1,8.1-10.14h0a8.31,8.31,0,0,1-6.25,9.93A8.4,8.4,0,0,1,82.09,18.76ZM82.12,4a6.42,6.42,0,0,0-5.45,3,6.42,6.42,0,0,0,6.86,9.68A6.42,6.42,0,0,0,85.52,5,6.29,6.29,0,0,0,82.12,4Z"/><path class="cls-5" d="M105.62,13.41a8.29,8.29,0,1,1,8.09-10.14h0a8.31,8.31,0,0,1-6.25,9.93A8.24,8.24,0,0,1,105.62,13.41Zm0-14.72a6.31,6.31,0,0,0-1.42.16,6.41,6.41,0,1,0,1.42-.16Z"/><circle class="cls-6" cx="94.68" cy="7.6" r="2.09"/><path class="cls-6" d="M94.3,8.35A.66.66,0,0,1,94.16,7l10.12-2.3L95-4.17a.66.66,0,0,1,0-.93.65.65,0,0,1,.93,0l10.14,9.76a.66.66,0,0,1-.31,1.12L94.45,8.33Z"/><path class="cls-6" d="M94.68,8.26h0a.67.67,0,0,1-.62-.7l.92-15.13a.67.67,0,0,1,.7-.62.65.65,0,0,1,.61.7L95.34,7.64A.66.66,0,0,1,94.68,8.26Z"/><path class="cls-6" d="M83.64.23A.65.65,0,0,1,83-.28a.66.66,0,0,1,.49-.79l12-2.73a.66.66,0,0,1,.79.49.66.66,0,0,1-.5.79L83.79.22Z"/><path class="cls-6" d="M82.1,11.12H82a.66.66,0,0,1-.59-.72L82.73-3.12c.27-3.35-1.74-4-3.52-4.57l-.56-.19a.66.66,0,0,1-.41-.84.65.65,0,0,1,.84-.4l.54.17C81.41-8.37,84.4-7.4,84-3L82.76,10.52A.66.66,0,0,1,82.1,11.12Z"/><path class="cls-6" d="M94.9,4.62a.66.66,0,0,1-.3-.07L85.16-.25a.67.67,0,0,1-.29-.89.66.66,0,0,1,.89-.29l9.44,4.8a.67.67,0,0,1,.29.89A.66.66,0,0,1,94.9,4.62Z"/></g><g class="cls-4"><path class="cls-5" d="M-6.24,63.71A8.83,8.83,0,0,1-15,55.39,8.74,8.74,0,0,1-12.8,49,8.74,8.74,0,0,1-6.72,46.1a8.82,8.82,0,0,1,9.28,8.32h0A8.82,8.82,0,0,1-5.75,63.7Zm0-15.63h-.38a6.78,6.78,0,0,0-4.71,2.26A6.81,6.81,0,0,0-13,55.28a6.8,6.8,0,0,0,7.18,6.43A6.82,6.82,0,0,0,.58,54.53,6.84,6.84,0,0,0-6.23,48.08Z"/><path class="cls-5" d="M19.35,62.3a8.81,8.81,0,1,1,8.8-9.3,8.82,8.82,0,0,1-8.31,9.29Zm0-15.63H19a6.82,6.82,0,1,0,.38,0Z"/><circle class="cls-6" cx="7.45" cy="54.15" r="2.22"/><path class="cls-6" d="M7,54.87a.7.7,0,0,1,0-1.4l11-.61-8.11-11A.7.7,0,0,1,11,41.05l8.88,12a.7.7,0,0,1-.53,1.12l-12.31.68Z"/><path class="cls-6" d="M7.45,54.85l-.16,0A.71.71,0,0,1,6.76,54L10.42,38.3a.71.71,0,0,1,.84-.52.7.7,0,0,1,.52.84L8.13,54.31A.7.7,0,0,1,7.45,54.85Z"/><path class="cls-6" d="M-2.69,44.47a.69.69,0,0,1-.69-.66.7.7,0,0,1,.66-.74l13.08-.72a.7.7,0,1,1,.08,1.4l-13.09.72Z"/><rect class="cls-5" x="-7.89" y="33.64" width="8.43" height="1.82" rx="0.87" transform="translate(1.98 0.27) rotate(3.29)"/><rect class="cls-5" x="9.51" y="35.77" width="7.25" height="2.86" rx="1.39" transform="translate(-2.03 0.78) rotate(-3.16)"/><path class="cls-6" d="M8.33,51.07a.7.7,0,0,1-.42-.13l-9-6.71a.7.7,0,0,1-.15-1,.7.7,0,0,1,1-.15l9,6.71a.7.7,0,0,1,.15,1A.69.69,0,0,1,8.33,51.07Z"/></g><path class="cls-6" d="M131.78,53.55C119.72,62.9,91.43,77.3,76.3,82a3.54,3.54,0,0,1-4.4-2l-3.74-7.28L129,41.54l3.73,7.28A3.56,3.56,0,0,1,131.78,53.55Z"/><path class="cls-7" d="M114.73,22.47a2.83,2.83,0,0,0-1,1.41c-.36.95-.28,4.44-6.91,6.85a15,15,0,0,1-13.2-1.51,2.75,2.75,0,0,0-3.23,0C87.13,31.57,87,35.85,79.78,44.27,69.84,55.79,62.44,61.6,68.16,72.75c.82,1.59,2.64,1.58,5,1.07C91.35,67.63,114,56,126.94,46.26c1.8-1.62,2.88-3.13,2.07-4.72l-9.23-18C118.59,21.08,115.59,21.83,114.73,22.47Z"/><path class="cls-6" d="M75,49.68l7.31,3.49A2.71,2.71,0,0,0,86,51.85a2.86,2.86,0,0,0-1.37-3.73l-5.78-2.76C77.49,46.89,76.21,48.32,75,49.68Z"/><path class="cls-6" d="M84.7,37.67a52.76,52.76,0,0,1-3.26,4.58l7.1,3.39a2.71,2.71,0,0,0,3.65-1.32,2.86,2.86,0,0,0-1.37-3.73Z"/><circle class="cls-6" cx="48.93" cy="34.36" r="13.8"/><path class="cls-3" d="M40.2,41.49h0a12.13,12.13,0,0,1-4-.79.68.68,0,0,1-.39-.87.69.69,0,0,1,.88-.39,10.52,10.52,0,0,0,3.49.7.69.69,0,0,1,.66.69A.67.67,0,0,1,40.2,41.49Zm3.72-.74a.68.68,0,0,1-.63-.42.67.67,0,0,1,.37-.88,9.08,9.08,0,0,0,2.93-2,.68.68,0,0,1,1,.95,10.62,10.62,0,0,1-3.37,2.26A.85.85,0,0,1,43.92,40.75ZM33.29,38.69a.71.71,0,0,1-.48-.2,9.87,9.87,0,0,1-2.22-3.4.68.68,0,1,1,1.26-.5,8.51,8.51,0,0,0,1.92,2.95.68.68,0,0,1,0,1A.69.69,0,0,1,33.29,38.69Zm15.89-3.21a.58.58,0,0,1-.26,0,.68.68,0,0,1-.37-.88,8.9,8.9,0,0,0,.69-3.46.69.69,0,0,1,.68-.7.66.66,0,0,1,.67.66v0a10.39,10.39,0,0,1-.79,4A.67.67,0,0,1,49.18,35.48ZM30.51,31.77a.66.66,0,0,1-.67-.66v0a10.83,10.83,0,0,1,.73-4,.67.67,0,0,1,.88-.38.66.66,0,0,1,.38.87,9.49,9.49,0,0,0-.64,3.47A.69.69,0,0,1,30.51,31.77ZM49.16,28a.67.67,0,0,1-.62-.41,9.09,9.09,0,0,0-2-2.93.68.68,0,0,1,1-1,10.41,10.41,0,0,1,2.26,3.37.66.66,0,0,1-.36.88A.58.58,0,0,1,49.16,28Zm-15.9-3.13a.68.68,0,0,1-.48-1.15,9.9,9.9,0,0,1,3.4-2.23.67.67,0,0,1,.88.38.66.66,0,0,1-.38.87,8.54,8.54,0,0,0-2.94,1.93A.69.69,0,0,1,33.26,24.87Zm10.62-2.11a.8.8,0,0,1-.26-.05A8.93,8.93,0,0,0,40.19,22a.68.68,0,0,1-.69-.65.65.65,0,0,1,.63-.69h.06a10.48,10.48,0,0,1,4,.77.68.68,0,0,1,.36.88A.67.67,0,0,1,43.88,22.76Z"/><path class="cls-3" d="M64,49H63.8a7.46,7.46,0,0,1-3.17-1.78.59.59,0,1,1,.81-.85,6.49,6.49,0,0,0,2.67,1.49.61.61,0,0,1,.42.71A.59.59,0,0,1,64,49Zm3.33-.21a.6.6,0,0,1-.56-.39.59.59,0,0,1,.37-.75A7.62,7.62,0,0,0,69.75,46a.58.58,0,0,1,.83,0,.6.6,0,0,1,0,.84,8.59,8.59,0,0,1-3.07,1.89A.58.58,0,0,1,67.29,48.78Zm-8.08-4.24a.59.59,0,0,1-.55-.38,11.22,11.22,0,0,1-.67-3.5.59.59,0,0,1,.57-.61.57.57,0,0,1,.61.57,9.94,9.94,0,0,0,.59,3.12.58.58,0,0,1-.34.76A.52.52,0,0,1,59.21,44.54Zm13-.2a.55.55,0,0,1-.28-.07.59.59,0,0,1-.24-.8,11.85,11.85,0,0,0,1.14-3,.61.61,0,0,1,.7-.47.56.56,0,0,1,.46.67s0,.09,0,.11A13.13,13.13,0,0,1,72.72,44,.59.59,0,0,1,72.2,44.34ZM58.91,37.87l-.13,0a.57.57,0,0,1-.44-.7,13.89,13.89,0,0,1,1.21-3.31.59.59,0,0,1,1.05.54,12.47,12.47,0,0,0-1.11,3A.6.6,0,0,1,58.91,37.87Zm14.79-.1a.6.6,0,0,1-.59-.56,9.91,9.91,0,0,0-.65-3.12.6.6,0,0,1,.34-.76.58.58,0,0,1,.76.33,11.07,11.07,0,0,1,.73,3.49.58.58,0,0,1-.56.61ZM62.08,32a.59.59,0,0,1-.41-1,8,8,0,0,1,3.09-1.88.59.59,0,0,1,.36,1.12,6.85,6.85,0,0,0-2.63,1.62A.61.61,0,0,1,62.08,32Zm9.12-.35a.58.58,0,0,1-.41-.17A5.41,5.41,0,0,0,68.19,30a.63.63,0,0,1-.47-.7.59.59,0,0,1,.66-.47h.06a6.56,6.56,0,0,1,3.17,1.77.59.59,0,0,1-.41,1Z"/><circle class="cls-6" cx="120.52" cy="99.55" r="14.22"/><path class="cls-3" d="M129.12,106a10.76,10.76,0,0,1-3.72-.66.69.69,0,0,1-.41-.89.71.71,0,0,1,.9-.42,9.14,9.14,0,0,0,3.59.57.69.69,0,0,1,.72.67.68.68,0,0,1-.66.72Zm4.19-.91a.7.7,0,0,1-.29-1.33,9.32,9.32,0,0,0,2.94-2.12.7.7,0,0,1,1,0,.68.68,0,0,1,.05,1l-.51-.47.51.47A10.46,10.46,0,0,1,133.6,105,.59.59,0,0,1,133.31,105.06Zm-11-1.76a.69.69,0,0,1-.46-.18l0,0a10.62,10.62,0,0,1-2.45-3.39.69.69,0,1,1,1.26-.58,9.16,9.16,0,0,0,2.14,3,.71.71,0,0,1,0,1A.69.69,0,0,1,122.3,103.3Zm16.22-3.88a.74.74,0,0,1-.25,0,.69.69,0,0,1-.39-.9,9,9,0,0,0,.62-3.24c0-.11,0-.22,0-.33a.7.7,0,0,1,1.4-.06v.39a10.2,10.2,0,0,1-.72,3.75A.7.7,0,0,1,138.52,99.42ZM119.1,96.31a.69.69,0,0,1-.69-.67c0-.13,0-.26,0-.39a10.8,10.8,0,0,1,.67-3.74.69.69,0,0,1,1.3.48,9.53,9.53,0,0,0-.58,3.26c0,.11,0,.22,0,.34a.71.71,0,0,1-.67.72Zm19.14-4.53a.7.7,0,0,1-.63-.4,9.71,9.71,0,0,0-2.18-2.93.71.71,0,0,1,0-1,.69.69,0,0,1,1,0,11,11,0,0,1,2.48,3.35.7.7,0,0,1-.32.93A.82.82,0,0,1,138.24,91.78Zm-16.46-2.66a.7.7,0,0,1-.49-.2.68.68,0,0,1-.11-.85l.11-.15a12.66,12.66,0,0,1,3.36-2.41.7.7,0,0,1,.61,1.25,11.16,11.16,0,0,0-3,2.11l0,0A.73.73,0,0,1,121.78,89.12Zm10.82-2.58a.78.78,0,0,1-.26,0,8.79,8.79,0,0,0-3.26-.63h-.31a.67.67,0,0,1-.72-.68.69.69,0,0,1,.67-.71,10.28,10.28,0,0,1,4.13.71.69.69,0,0,1,.39.9A.68.68,0,0,1,132.6,86.54Z"/><path class="cls-3" d="M107.36,119.29a.61.61,0,0,1,0-1.22,5.56,5.56,0,0,0,2.93-.93.63.63,0,0,1,.85.13.6.6,0,0,1-.11.83l0,0a6.79,6.79,0,0,1-3.59,1.17Zm-3.4-.62a.64.64,0,0,1-.23,0,11.46,11.46,0,0,1-3.13-1.9.61.61,0,0,1-.08-.86.62.62,0,0,1,.86-.07,10.1,10.1,0,0,0,2.8,1.7.61.61,0,0,1-.22,1.18Zm8.87-3.11a.58.58,0,0,1-.26-.06.6.6,0,0,1-.29-.81,7.05,7.05,0,0,0,.63-3v-.11a.61.61,0,0,1,.59-.62.63.63,0,0,1,.63.59v.14a8.32,8.32,0,0,1-.75,3.52A.62.62,0,0,1,112.83,115.56Zm-14.19-1.29a.59.59,0,0,1-.48-.25l.5-.35-.52.31a13.5,13.5,0,0,1-1.63-3.27.61.61,0,0,1,.39-.77.6.6,0,0,1,.77.38,11.92,11.92,0,0,0,1.47,3,.62.62,0,0,1-.15.86A.59.59,0,0,1,98.64,114.27Zm14.24-5.52a.61.61,0,0,1-.58-.41,12.89,12.89,0,0,0-1.5-3,.6.6,0,0,1,.16-.84.61.61,0,0,1,.85.16,14.11,14.11,0,0,1,1.64,3.24.61.61,0,0,1-.37.78Zm-16.37-1.07a.6.6,0,0,1-.61-.59V107a8.82,8.82,0,0,1,.73-3.56.61.61,0,1,1,1.11.5,7.66,7.66,0,0,0-.62,3.12A.61.61,0,0,1,96.51,107.68ZM109,103a.62.62,0,0,1-.4-.15,9.89,9.89,0,0,0-2.77-1.75.6.6,0,0,1-.33-.79.61.61,0,0,1,.79-.34,11.41,11.41,0,0,1,3.11,2,.61.61,0,0,1,.06.86A.6.6,0,0,1,109,103Zm-9.63-1.41a.58.58,0,0,1-.51-.28.61.61,0,0,1,.17-.83l.34.51-.34-.51a7.78,7.78,0,0,1,3.59-1.15.63.63,0,0,1,.65.57.61.61,0,0,1-.57.64,6.55,6.55,0,0,0-3,1A.61.61,0,0,1,99.37,101.63Z"/><circle class="cls-6" cx="144.75" cy="16.42" r="10.77"/><path class="cls-3" d="M137.37,27.07h0a7.75,7.75,0,0,1-3.05-.88.53.53,0,0,1-.22-.71.52.52,0,0,1,.71-.22,6.78,6.78,0,0,0,2.64.76.51.51,0,0,1,.48.56A.52.52,0,0,1,137.37,27.07Zm2.93-.4a.53.53,0,0,1-.18-1,8.25,8.25,0,0,0,2.42-1.36.53.53,0,0,1,.74.07.51.51,0,0,1-.06.72l0,0a9.39,9.39,0,0,1-2.72,1.54A.47.47,0,0,1,140.3,26.67Zm-8.09-2.26a.53.53,0,0,1-.4-.18,8.54,8.54,0,0,1-1.59-2.73.53.53,0,1,1,1-.35,7.51,7.51,0,0,0,1.4,2.39.52.52,0,0,1-.06.74A.48.48,0,0,1,132.21,24.41Zm12.49-1.54a.53.53,0,0,1-.24-.06.52.52,0,0,1-.23-.7,7.22,7.22,0,0,0,.73-2.66.53.53,0,0,1,1,.08,8.07,8.07,0,0,1-.84,3A.53.53,0,0,1,144.7,22.87Zm-14.4-3.95h0a.52.52,0,0,1-.48-.56,7.57,7.57,0,0,1,.87-3,.52.52,0,0,1,.71-.22.53.53,0,0,1,.22.71,6.55,6.55,0,0,0-.75,2.63A.53.53,0,0,1,130.3,18.92Zm14.83-1.84a.52.52,0,0,1-.5-.36,7.07,7.07,0,0,0-1.36-2.4.55.55,0,0,1,0-.76.5.5,0,0,1,.72,0l.06.06a8.17,8.17,0,0,1,1.55,2.74.52.52,0,0,1-.34.66A.45.45,0,0,1,145.13,17.08Zm-12.2-3.37a.48.48,0,0,1-.38-.17.51.51,0,0,1,0-.72l.35.39-.32-.41a8.18,8.18,0,0,1,2.72-1.57.53.53,0,0,1,.67.34.53.53,0,0,1-.33.66,6.87,6.87,0,0,0-2.36,1.35A.59.59,0,0,1,132.93,13.71Zm8.35-1.06a.46.46,0,0,1-.23-.05,7,7,0,0,0-2.66-.72.53.53,0,0,1-.49-.56.51.51,0,0,1,.56-.49,8.14,8.14,0,0,1,3.06.82.53.53,0,0,1,.23.71A.5.5,0,0,1,141.28,12.65Z"/></g><path class="cls-6" d="M20.21,86.89V84.21H14.45V82.88H27.33v1.33H21.86v2.68Zm.67-5.17c-3.11,0-4.91-1.2-4.91-2.84S17.79,76,20.88,76s4.95,1.22,4.95,2.84S24,81.72,20.88,81.72Zm-4.77,7.86v-4h1.65v2.72h8v1.29Zm4.77-12.22c-2,0-3.23.57-3.23,1.55s1.24,1.5,3.23,1.5,3.25-.56,3.25-1.5S22.88,77.36,20.88,77.36Z"/><path class="cls-6" d="M35.52,81v1.49h5.65v1.33H28.29V82.49h5.6V81H30V76.12h9.54v1.35H31.63v2.21h8V81Zm-.78,9c-3.16,0-5-1-5-2.61s1.79-2.6,4.93-2.6,5,1,5,2.6S37.87,90,34.74,90Zm0-3.89c-2,0-3.25.48-3.25,1.29s1.25,1.27,3.25,1.27S38,88.24,38,87.42,36.74,86.13,34.72,86.13Z"/></svg>