<svg id="Layer_1" data-name="Layer 1" xmlns="http://www.w3.org/2000/svg" xmlns:xlink="http://www.w3.org/1999/xlink" viewBox="0 0 375 152"><defs><style>.cls-1{fill:none;}.cls-2{clip-path:url(#clip-path);}.cls-3{fill:#ffa400;}.cls-4{fill:#e78c00;}.cls-5{fill:#ffb638;}.cls-6{fill:#d8911a;}.cls-7{fill:#f1f1f1;}.cls-8{fill:#fff;}.cls-9{fill:#171717;}</style><clipPath id="clip-path"><rect class="cls-1" width="375" height="152"/></clipPath></defs><g class="cls-2"><rect class="cls-3" x="-5.56" y="-4.03" width="387.94" height="165.15"/><polygon class="cls-4" points="364.7 68.24 306.2 89.6 256.11 147.08 295.67 190.06 390.7 162.11 364.91 68.41 364.7 68.24"/><path class="cls-4" d="M202,75.93a4.62,4.62,0,0,1,2.47-5.53l2.78-1.19-1.38-2.69a4.62,4.62,0,0,1,1.63-5.83,3.63,3.63,0,0,1,5.3,1.38l.2.4c8.24-10.6,25.14-18.57,44.14-14.42l7.49-3.22a6.84,6.84,0,0,1,9.37,4.4,4.15,4.15,0,0,1,.11.48l1.85-.79a6.85,6.85,0,0,1,9.37,4.4,8.69,8.69,0,0,1-.83,6.89,6.83,6.83,0,0,1,8.37,4.71,8.56,8.56,0,0,1-.08,5.18,65.3,65.3,0,0,0,5.39,5c1.67,1.24,1.15,1.74,16.17-.3,17.88-2.45,25.18,4.7,11.18,18.58-5.8,5.73-8.43,9.93-10.21,14.86s-2.43,9.83-1.64,17.94c1.92,19.64-8.27,20.46-20.46,7.16C283,122.18,283.08,122.87,281,122.77a31.53,31.53,0,0,0-3.37.09,8.5,8.5,0,0,1-3.21,3.93,6.83,6.83,0,0,1-9.45-1.72,8.73,8.73,0,0,1-3.76,5.84h0a6.87,6.87,0,0,1-10-2.61l-.91-1.79c-.13.1-.25.21-.39.31h0a6.86,6.86,0,0,1-10-2.61l-2.26-4.43c-21.07-8-30.67-26.95-30.19-41.7l-.42.18A3.62,3.62,0,0,1,202,75.93Z"/><path class="cls-5" d="M207.71,69.62a4.64,4.64,0,0,1,2.48-5.53L213,62.9l-1.37-2.69a4.61,4.61,0,0,1,1.63-5.83,3.62,3.62,0,0,1,5.3,1.38l.2.4c8.24-10.6,25.13-18.57,44.14-14.42l7.49-3.22a6.85,6.85,0,0,1,9.37,4.39c0,.16.06.33.1.49l1.85-.79A6.85,6.85,0,0,1,291.05,47a8.72,8.72,0,0,1-.83,6.89,6.85,6.85,0,0,1,8.37,4.72,8.56,8.56,0,0,1-.08,5.18,65.47,65.47,0,0,0,5.38,5c1.68,1.24,1.16,1.74,16.18-.3C338,66,345.25,73.19,331.25,87.06c-5.8,5.73-8.43,9.94-10.21,14.87s-2.43,9.83-1.64,17.93c1.91,19.65-8.28,20.47-20.46,7.17-10.25-11.16-10.17-10.47-12.26-10.57a29,29,0,0,0-3.37.09,8.61,8.61,0,0,1-3.21,3.93,6.84,6.84,0,0,1-9.45-1.72,8.69,8.69,0,0,1-3.76,5.83h0a6.86,6.86,0,0,1-10-2.6l-.91-1.8c-.14.1-.25.22-.39.31h0a6.85,6.85,0,0,1-10-2.6l-2.26-4.43c-21.07-8-30.67-26.95-30.2-41.7l-.41.17A3.63,3.63,0,0,1,207.71,69.62Z"/><path class="cls-6" d="M255.2,97.41A1.62,1.62,0,0,1,257,96.07c.19,0,4.48.67,5.87-3s-2.24-6-2.42-6.13a1.61,1.61,0,0,1-.48-2.22c0-.06.09-.09.13-.14a1.52,1.52,0,0,1,.3-.32s.09,0,.14-.06a1.59,1.59,0,0,1,1.05-.22c.18,0,4.48.67,5.86-3s-2.24-6-2.41-6.13a1.62,1.62,0,0,1-.72-1.56v-.07a1.63,1.63,0,0,1,1.84-1.35c.18,0,4.5.63,5.87-3s-2.24-6-2.41-6.13a1.61,1.61,0,0,1,1.73-2.71c2.09,1.33,5.54,5.13,3.7,10a7.66,7.66,0,0,1-5.53,4.81h0A7.77,7.77,0,0,1,265,87h0a7.77,7.77,0,0,1-4.59,12.07,9.9,9.9,0,0,1-3.86.21A1.62,1.62,0,0,1,255.2,97.41Z"/><path class="cls-6" d="M270.61,102.18a1.61,1.61,0,0,1,1.84-1.34c.19,0,4.49.67,5.87-3s-2.24-6-2.41-6.13a1.6,1.6,0,0,1-.49-2.22,1.79,1.79,0,0,1,.13-.14,1.88,1.88,0,0,1,.31-.32S276,89,276,89a1.59,1.59,0,0,1,1.05-.22c.18,0,4.48.67,5.87-3s-2.24-6-2.42-6.13a1.59,1.59,0,0,1-.71-1.56s0,0,0-.07a1.63,1.63,0,0,1,1.84-1.35c.18,0,4.5.63,5.87-3s-2.24-6-2.41-6.13a1.61,1.61,0,1,1,1.74-2.71c2.08,1.33,5.53,5.12,3.69,10A7.67,7.67,0,0,1,285,79.66h0a7.77,7.77,0,0,1-4.57,12.09h0a7.76,7.76,0,0,1-4.59,12.07A9.9,9.9,0,0,1,272,104,1.62,1.62,0,0,1,270.61,102.18Z"/><path class="cls-6" d="M241.12,69.17a5.85,5.85,0,0,1-3.49-7.49,5.89,5.89,0,0,1,3-3.32,5.8,5.8,0,0,1,7.76,2.8,5.89,5.89,0,0,1-3.89,8.17A5.79,5.79,0,0,1,241.12,69.17Zm.9-7.9a2.68,2.68,0,0,0-1.27,3.52,2.58,2.58,0,0,0,1.47,1.34,2.61,2.61,0,0,0,3.33-1.59,2.67,2.67,0,0,0-.08-2A2.53,2.53,0,0,0,244,61.18a2.49,2.49,0,0,0-1.5-.08A2.84,2.84,0,0,0,242,61.27Z"/><path class="cls-6" d="M239.23,74.4a11.39,11.39,0,0,1-6.78-14.6h0A11.39,11.39,0,0,1,247,52.91a11.25,11.25,0,0,1,6.41,5.87,11.49,11.49,0,0,1-7.59,15.94A11.25,11.25,0,0,1,239.23,74.4Zm-3.75-13.5h0a8.11,8.11,0,1,0,15-.76,8,8,0,0,0-9.27-4.43A8.25,8.25,0,0,0,235.48,60.9Z"/><path class="cls-4" d="M209.66,7.37a3.35,3.35,0,0,0-3.14-3.06l-2.19-.06.21-2.17a3.36,3.36,0,0,0-2.66-3.49A2.63,2.63,0,0,0,198.69.94l0,.32c-8.38-4.92-21.87-5.76-33.54,2.11l-5.9-.16a5,5,0,0,0-5.13,5.46c0,.12,0,.24.06.36L152.7,9a5,5,0,0,0-5.13,5.46,6.29,6.29,0,0,0,2.4,4.41,5,5,0,0,0-4.36,5.41A6.18,6.18,0,0,0,147,27.74a47.45,47.45,0,0,1-2.28,4.8c-.8,1.28-.31,1.48-11,4.12-12.68,3.14-15.68,9.9-2.55,15.49,5.44,2.3,8.33,4.43,10.84,7.26s4.27,6,5.91,11.63c4,13.72,11,11.54,15.67-.66,3.91-10.25,4-9.76,5.42-10.39a22.37,22.37,0,0,1,2.29-.84,6.22,6.22,0,0,0,3.21,1.79,5,5,0,0,0,5.9-3.69,6.25,6.25,0,0,0,4.09,2.92h0a5,5,0,0,0,6-4.44l.13-1.45.35.11h0a5,5,0,0,0,6-4.44l.34-3.58c12-11,13.41-26.33,9.14-36.12H207A2.63,2.63,0,0,0,209.66,7.37Z"/><path class="cls-5" d="M208.35,1a3.33,3.33,0,0,0-3.14-3L203-2.12l.21-2.18a3.36,3.36,0,0,0-2.66-3.49,2.63,2.63,0,0,0-3.19,2.35l0,.32C189-10,175.48-10.88,163.81-3l-5.9-.16a5,5,0,0,0-5.13,5.47c0,.12.05.23.06.35l-1.45,0a5,5,0,0,0-5.13,5.47,6.33,6.33,0,0,0,2.4,4.41,5,5,0,0,0-4.37,5.41,6.26,6.26,0,0,0,1.44,3.46,47.45,47.45,0,0,1-2.28,4.8c-.8,1.29-.31,1.48-11,4.13-12.68,3.13-15.68,9.89-2.55,15.48,5.44,2.3,8.33,4.43,10.84,7.27s4.27,6,5.91,11.62c4,13.72,11,11.55,15.67-.66,3.91-10.25,4-9.76,5.42-10.39.6-.27,1.38-.54,2.29-.84a6.15,6.15,0,0,0,3.21,1.79,5,5,0,0,0,5.9-3.69,6.25,6.25,0,0,0,4.09,2.92h0a5,5,0,0,0,6-4.43l.13-1.45c.12,0,.23.08.35.1h0a5,5,0,0,0,6-4.43l.34-3.59c12-11,13.41-26.33,9.14-36.12h.33A2.63,2.63,0,0,0,208.35,1Z"/><path class="cls-6" d="M183.86,32.39a1.16,1.16,0,0,0-1.6-.41c-.12.07-2.84,1.65-4.75-.44s-.1-4.64,0-4.77a1.17,1.17,0,0,0-.27-1.62.75.75,0,0,0-.13-.06,1,1,0,0,0-.29-.13h-.1a1.11,1.11,0,0,0-.77.14c-.11.06-2.83,1.64-4.74-.44s-.1-4.65,0-4.77a1.16,1.16,0,0,0,.07-1.24s0,0,0,0a1.16,1.16,0,0,0-1.59-.42c-.12.07-2.86,1.63-4.75-.43s-.1-4.65,0-4.77A1.16,1.16,0,1,0,163,11.62c-1,1.45-2.36,4.93.19,7.7a5.53,5.53,0,0,0,5,1.76h0A5.62,5.62,0,0,0,174.48,28h0a5.62,5.62,0,0,0,6.31,6.89,7.32,7.32,0,0,0,2.66-.89A1.18,1.18,0,0,0,183.86,32.39Z"/><path class="cls-6" d="M174.77,39.72a1.16,1.16,0,0,0-1.6-.41c-.12.07-2.84,1.65-4.75-.44s-.1-4.64,0-4.77a1.17,1.17,0,0,0-.27-1.62.75.75,0,0,0-.13-.06,1,1,0,0,0-.28-.13h-.11a1.11,1.11,0,0,0-.77.14c-.11.07-2.83,1.65-4.74-.44s-.1-4.65,0-4.77a1.18,1.18,0,0,0,.06-1.24s0,0,0,0a1.16,1.16,0,0,0-1.59-.42c-.12.07-2.86,1.63-4.75-.43s-.1-4.65,0-4.77A1.16,1.16,0,1,0,153.89,19c-1,1.45-2.35,4.93.19,7.7a5.53,5.53,0,0,0,5,1.76h0a5.62,5.62,0,0,0,6.31,6.91h0a5.62,5.62,0,0,0,6.31,6.89,7.32,7.32,0,0,0,2.66-.89A1.17,1.17,0,0,0,174.77,39.72Z"/><path class="cls-6" d="M183.53,10.64a4.27,4.27,0,0,1-4.8-4.45,4.19,4.19,0,0,1,4.47-4,4.26,4.26,0,0,1,4,4.48,4.2,4.2,0,0,1-3.64,3.93Zm-.86-6.07a1.87,1.87,0,0,0-1.61,1.75,1.89,1.89,0,1,0,3.78.26,1.89,1.89,0,0,0-.48-1.38,1.91,1.91,0,0,0-1.31-.64A1.61,1.61,0,0,0,182.67,4.57Z"/><path class="cls-6" d="M184.09,14.61a8.3,8.3,0,0,1-9.36-8.68A8.14,8.14,0,0,1,177.47.26,8.24,8.24,0,0,1,189.09,1h0a8.25,8.25,0,0,1-.66,11.63A8.09,8.09,0,0,1,184.09,14.61Zm-2-14A5.72,5.72,0,0,0,179,2a5.78,5.78,0,0,0-2,4.05,6,6,0,0,0,9.83,4.83,5.91,5.91,0,0,0,.45-8.33h0A5.93,5.93,0,0,0,182.11.6Z"/><path class="cls-4" d="M107.57,139.26a2.83,2.83,0,0,1-1.07-3.55l.81-1.66-1.71-.69A2.83,2.83,0,0,1,104,130a2.21,2.21,0,0,1,3-1.48l.26.1c-.43-8.2,4.2-18.65,14.66-24.34l2.17-4.48a4.2,4.2,0,0,1,6.1-1.72c.09,0,.16.13.24.18l.54-1.1a4.2,4.2,0,0,1,6.1-1.72A5.31,5.31,0,0,1,139.46,99a4.18,4.18,0,0,1,5.76-1.16,5.17,5.17,0,0,1,2,2.42,36.68,36.68,0,0,0,4.49.16c1.28-.09,1.23.35,7.37-6.61,7.29-8.29,13.53-7.9,12.61,4.13-.4,5,.07,8,1.22,11s2.81,5.53,6.42,9c8.74,8.33,4.36,12.78-6.61,11.5-9.21-1.06-8.89-.77-9.9,0a17.12,17.12,0,0,0-1.52,1.39,5.2,5.2,0,0,1,.08,3.1,4.18,4.18,0,0,1-5.06,3A5.28,5.28,0,0,1,157,141h0a4.2,4.2,0,0,1-5.68,2.81l-1.14-.47c0,.1,0,.2-.06.3h0a4.19,4.19,0,0,1-5.68,2.81l-2.82-1.15c-12.93,4.75-25-.2-30.66-7.22l-.12.25A2.21,2.21,0,0,1,107.57,139.26Z"/><path class="cls-5" d="M107.67,134.07a2.85,2.85,0,0,1-1.06-3.55l.81-1.66-1.71-.7a2.83,2.83,0,0,1-1.59-3.35,2.22,2.22,0,0,1,3-1.48l.25.1c-.43-8.2,4.21-18.65,14.66-24.33l2.18-4.49a4.2,4.2,0,0,1,6.1-1.72c.09.06.16.13.24.19L131.1,92a4.2,4.2,0,0,1,6.1-1.72,5.36,5.36,0,0,1,2.37,3.53,4.18,4.18,0,0,1,5.76-1.17,5.25,5.25,0,0,1,2,2.43,41.18,41.18,0,0,0,4.49.16c1.27-.1,1.23.34,7.37-6.62,7.29-8.29,13.53-7.9,12.6,4.13-.39,5,.08,8,1.23,11s2.81,5.53,6.41,9c8.75,8.33,4.36,12.78-6.6,11.51-9.21-1.07-8.9-.78-9.9,0a17.07,17.07,0,0,0-1.53,1.39,5.2,5.2,0,0,1,.09,3.1,4.19,4.19,0,0,1-5.06,3,5.32,5.32,0,0,1,.59,4.2h0a4.19,4.19,0,0,1-5.68,2.81l-1.14-.47c0,.1,0,.2-.06.3h0a4.19,4.19,0,0,1-5.68,2.81l-2.82-1.15c-12.93,4.75-25-.2-30.66-7.22l-.12.25A2.23,2.23,0,0,1,107.67,134.07Z"/><path class="cls-6" d="M140.77,127.93a1,1,0,0,1,.32-1.36c.1-.06,2.34-1.48,1.53-3.73S139.17,121,139,121a1,1,0,0,1-1.11-.83s0-.08,0-.12a1.23,1.23,0,0,1,0-.27l0-.08a1,1,0,0,1,.39-.52c.1-.06,2.35-1.48,1.53-3.73s-3.45-1.89-3.57-1.87a1,1,0,0,1-1-.43l0,0a1,1,0,0,1,.31-1.36c.1-.06,2.34-1.51,1.53-3.73s-3.45-1.89-3.57-1.87a1,1,0,1,1-.28-2c1.49-.22,4.61.16,5.7,3.15a4.7,4.7,0,0,1-.63,4.44h0a4.75,4.75,0,0,1,2.72,7.42h0a4.76,4.76,0,0,1,2.71,7.43,6.17,6.17,0,0,1-1.71,1.64A1,1,0,0,1,140.77,127.93Z"/><path class="cls-6" d="M149.82,124a1,1,0,0,1,.31-1.36c.1-.06,2.35-1.48,1.53-3.73s-3.45-1.88-3.57-1.87a1,1,0,0,1-1.12-.83s0-.08,0-.12a.82.82,0,0,1,0-.27.59.59,0,0,0,0-.08,1,1,0,0,1,.4-.52c.09-.06,2.34-1.48,1.52-3.73s-3.45-1.89-3.57-1.87a1,1,0,0,1-1-.43l0,0a1,1,0,0,1,.31-1.36c.1-.06,2.34-1.51,1.53-3.73s-3.44-1.89-3.57-1.87a1,1,0,0,1-.28-2c1.49-.22,4.61.16,5.7,3.15a4.68,4.68,0,0,1-.63,4.44h0a4.75,4.75,0,0,1,2.72,7.42h0a4.76,4.76,0,0,1,2.71,7.43,6.29,6.29,0,0,1-1.7,1.64A1,1,0,0,1,149.82,124Z"/><path class="cls-6" d="M123,120.49a3.58,3.58,0,1,1,1.63-1.28A3.53,3.53,0,0,1,123,120.49Zm-2.74-4a1.55,1.55,0,0,0,0,1.23,1.61,1.61,0,0,0,2.06.94,1.62,1.62,0,0,0,.91-2.08,1.66,1.66,0,0,0-.85-.9,1.57,1.57,0,0,0-1.22,0,1.59,1.59,0,0,0-.72.56A1.51,1.51,0,0,0,120.22,116.48Z"/><path class="cls-6" d="M124.18,123.67a7,7,0,0,1-9-4h0a7,7,0,0,1,4-9,6.84,6.84,0,0,1,5.31.15,7,7,0,0,1,2.87,10.41A6.85,6.85,0,0,1,124.18,123.67ZM117,118.92h0a5,5,0,1,0,6.63-6.35,4.93,4.93,0,0,0-6.06,1.66A5,5,0,0,0,117,118.92Z"/><polygon class="cls-7" points="386.7 190.18 340.01 228.51 271.49 145.06 315.31 103.22 386.7 190.18"/><polygon class="cls-8" points="433.43 151.86 386.74 190.19 315.34 103.24 364.91 68.41 433.43 151.86"/></g><path class="cls-9" d="M21.63,124.36V115h9.82v9.41Zm16.71,2.76v7.8H35.89V129H23.94v-1.92ZM29,116.89h-4.9v5.52H29Zm6.88,9.1v-5.54H32.5v-2h3.36v-4.9h2.45V126Z"/><path class="cls-9" d="M42.75,131l-1.53-1.87a14.39,14.39,0,0,0,8.42-11.31H42.42v-2h9.86C52.14,122.39,48.9,127.6,42.75,131Zm13.9,3.93V124H52.28V122h4.37v-8.45H59.1v21.38Z"/><path class="cls-9" d="M75.68,129.23a59,59,0,0,1-9.58.67l-2.64,0v-8.64h7.25v-3.94H63.37v-2h9.79v7.87H65.91v4.64a59.06,59.06,0,0,0,9.51-.68Zm1.7,5.66V113.51h2.45v21.38Z"/></svg>