<svg id="Layer_1" data-name="Layer 1" xmlns="http://www.w3.org/2000/svg" xmlns:xlink="http://www.w3.org/1999/xlink" viewBox="0 0 144 104"><defs><style>.cls-1{fill:none;}.cls-2{clip-path:url(#clip-path);}.cls-3{fill:#a7d9ff;}.cls-4{fill:#0068a1;}.cls-5{fill:#3dafff;}.cls-6{fill:#6abfff;}.cls-7{fill:#f2fcff;}.cls-8{fill:#c5e5ff;}.cls-9{fill:#e3f2ff;}.cls-10{fill:#171717;}</style><clipPath id="clip-path"><rect class="cls-1" width="144" height="104"/></clipPath></defs><g class="cls-2"><rect class="cls-3" x="-10.1" y="-7.29" width="164.2" height="118.59"/><path class="cls-4" d="M50.17,17.53a1,1,0,0,1-1-1V-1.82a1,1,0,0,1,1-1,1,1,0,0,1,1,1V16.53A1,1,0,0,1,50.17,17.53Z"/><ellipse class="cls-5" cx="50.17" cy="-2.24" rx="11.61" ry="13.06"/><path class="cls-4" d="M36.56,24a.74.74,0,0,1-.75-.75V10.8a.75.75,0,1,1,1.5,0V23.26A.75.75,0,0,1,36.56,24Z"/><ellipse class="cls-6" cx="36.56" cy="1.91" rx="7.02" ry="7.89"/><ellipse class="cls-6" cx="36.56" cy="10.51" rx="7.89" ry="8.88"/><path class="cls-7" d="M117.45,44.49c-10.74,0-20.85,1.69-30.08,1.86-3.86.07-14.35-1.64-13.74-6.81.62-5.35,6.87-7,10.54-8.55h0c13.47-4,27-11.34,24.56-20-2.53-8.9-9.65-14.82-38.33-13.38C60-2,58.25-.39,62.15,0c18.62,1.87,36,13.47,15.23,18.19-15.83,3.59-36.77,7.1-36.77,7.1h0C23,27.73,9.55,32.54,7.71,37.38,3.9,47.34,20.16,56.13,55.05,54.7c-6.09,3-9.58,6.45-9.58,10.15,0,4.15,4.41,8,12,11.24-4.68,11,17.89,19.32,48.22,19.26,22,0,40.53-5.35,46.44-12.66,22.24-3.47,37.32-10.16,37.32-17.84C189.43,53.6,157.2,44.49,117.45,44.49Z"/><path class="cls-8" d="M85.66,81.62c0,11.26-4.33,12.71-9.67,12.71s-9.68-3.06-9.68-12.71c0-10.33,4.33-24.69,9.68-24.69S85.66,71.29,85.66,81.62Z"/><path class="cls-4" d="M76,98.78a.32.32,0,0,1-.32-.32v-22a.32.32,0,1,1,.63,0v22A.32.32,0,0,1,76,98.78Z"/><path class="cls-4" d="M76.08,90a.33.33,0,0,1-.17,0,.31.31,0,0,1-.1-.44L79,84.33a.31.31,0,0,1,.44-.1.32.32,0,0,1,.1.44l-3.2,5.15A.32.32,0,0,1,76.08,90Z"/><path class="cls-9" d="M93.74,90.5c0,7.22-2.78,8.15-6.2,8.15s-6.19-2-6.19-8.15c0-6.61,2.77-15.81,6.19-15.81S93.74,83.89,93.74,90.5Z"/><path class="cls-4" d="M87.54,101.49a.2.2,0,0,1-.2-.2V87.2a.2.2,0,0,1,.2-.2.2.2,0,0,1,.21.2v14.09A.2.2,0,0,1,87.54,101.49Z"/><path class="cls-4" d="M87.6,95.86a.23.23,0,0,1-.11,0,.21.21,0,0,1-.06-.28l2-3.31a.21.21,0,0,1,.28-.06.22.22,0,0,1,.07.28l-2,3.3A.22.22,0,0,1,87.6,95.86Z"/><path class="cls-4" d="M24.12,63.57a.82.82,0,0,1-.81-.82V49.24a.81.81,0,0,1,.81-.81.82.82,0,0,1,.82.81V62.75A.82.82,0,0,1,24.12,63.57Z"/><ellipse class="cls-6" cx="24.12" cy="30" rx="6.08" ry="6.84"/><ellipse class="cls-6" cx="24.12" cy="39.61" rx="7.6" ry="8.56"/><ellipse class="cls-6" cx="24.12" cy="48.93" rx="8.55" ry="9.62"/><path class="cls-9" d="M135.84,22.16c0,13.94-4.34,15.74-9.68,15.74s-9.67-3.79-9.67-15.74c0-12.79,4.33-30.56,9.67-30.56S135.84,9.37,135.84,22.16Z"/><path class="cls-4" d="M126.16,43.36a.35.35,0,0,1-.35-.35V15.77a.36.36,0,0,1,.71,0V43A.36.36,0,0,1,126.16,43.36Z"/><path class="cls-4" d="M126.25,32.47a.47.47,0,0,1-.16,0,.36.36,0,0,1-.15-.48l3.2-6.38a.34.34,0,0,1,.47-.16.35.35,0,0,1,.16.48l-3.2,6.38A.37.37,0,0,1,126.25,32.47Z"/><path class="cls-8" d="M119.55,30.81c0,7.94-4.59,9-10.25,9s-10.24-2.16-10.24-9c0-11.51,4.59-17.39,10.24-17.39S119.55,18.3,119.55,30.81Z"/><path class="cls-4" d="M109.67,43.36a.35.35,0,0,1-.35-.35V27.87a.35.35,0,1,1,.7,0V43A.35.35,0,0,1,109.67,43.36Z"/><path class="cls-4" d="M109.86,36.73l-.15,0a.36.36,0,0,1-.18-.47l2-4.31a.36.36,0,0,1,.47-.18.35.35,0,0,1,.17.47l-2,4.32A.35.35,0,0,1,109.86,36.73Z"/></g><path class="cls-10" d="M14.45,88.3V87h5.6v-1.6c-2.23-.19-3.62-1.12-3.62-2.51,0-1.55,1.76-2.56,4.47-2.56s4.46,1,4.46,2.56-1.42,2.35-3.68,2.51V87h5.65V88.3Zm.79-8.59V78.38H26.53v1.33Zm5.66,1.85c-1.49,0-2.81.42-2.81,1.3s1.32,1.31,2.81,1.31,2.8-.43,2.8-1.31S22.38,81.56,20.9,81.56Zm-2.55-5.39h5.06v1.31H18.35Z"/><path class="cls-10" d="M33.89,90V84.83H28.28v-1.3H41.17v1.3H35.52V90Zm6-7.9c-2.11-.35-4.41-1.74-5.13-3.32-.63,1.58-3,3-5.11,3.34l-.72-1.34c2.53-.29,5-2,5-4v-.72h1.73v.72c0,2,2.7,3.79,5,4Z"/></svg>