<svg id="Layer_1" data-name="Layer 1" xmlns="http://www.w3.org/2000/svg" xmlns:xlink="http://www.w3.org/1999/xlink" viewBox="0 0 144 104"><defs><style>.cls-1{fill:none;}.cls-2{clip-path:url(#clip-path);}.cls-3{fill:#ffced4;}.cls-4{fill:#f22649;}.cls-5{fill:#ff536c;}.cls-6{fill:#ff7e8a;}.cls-7{fill:#32a572;}.cls-8{fill:#171717;}</style><clipPath id="clip-path"><rect class="cls-1" width="144" height="104"/></clipPath></defs><g class="cls-2"><rect class="cls-3" x="-6.46" y="-4.66" width="156.91" height="113.33"/><ellipse class="cls-4" cx="60.35" cy="77.42" rx="3.09" ry="5.58"/><path class="cls-5" d="M51.45,73.92h0a8.9,8.9,0,0,1,8.9,8.9v9a.3.3,0,0,1-.3.3h0a8.9,8.9,0,0,1-8.9-8.9v-9a.3.3,0,0,1,.3-.3Z"/><path class="cls-6" d="M69.26,73.92h0a.3.3,0,0,1,.3.3v9a8.9,8.9,0,0,1-8.9,8.9h0a.3.3,0,0,1-.3-.3v-9a8.9,8.9,0,0,1,8.9-8.9Z" transform="translate(129.91 166.01) rotate(180)"/><path class="cls-7" d="M57.17,95.66a10.05,10.05,0,0,1-4.73,1.64,9.23,9.23,0,0,1,7.91-5.51A10,10,0,0,1,57.17,95.66Z"/><path class="cls-7" d="M63.53,95.66a10.11,10.11,0,0,0,4.74,1.64,9.23,9.23,0,0,0-7.92-5.51A10.1,10.1,0,0,0,63.53,95.66Z"/><rect class="cls-7" x="59.88" y="91.79" width="0.95" height="33.65" rx="0.47"/><ellipse class="cls-4" cx="128.8" cy="77.42" rx="3.09" ry="5.58"/><path class="cls-5" d="M119.89,73.92h0a8.9,8.9,0,0,1,8.9,8.9v9a.3.3,0,0,1-.3.3h0a8.9,8.9,0,0,1-8.9-8.9v-9a.3.3,0,0,1,.3-.3Z"/><path class="cls-6" d="M137.7,73.92h0a.3.3,0,0,1,.3.3v9a8.9,8.9,0,0,1-8.9,8.9h0a.3.3,0,0,1-.3-.3v-9a8.9,8.9,0,0,1,8.9-8.9Z" transform="translate(266.8 166.01) rotate(180)"/><path class="cls-7" d="M125.62,95.66a10.11,10.11,0,0,1-4.74,1.64,9.23,9.23,0,0,1,7.92-5.51A10.1,10.1,0,0,1,125.62,95.66Z"/><path class="cls-7" d="M132,95.66a10.05,10.05,0,0,0,4.73,1.64,9.23,9.23,0,0,0-7.91-5.51A10,10,0,0,0,132,95.66Z"/><rect class="cls-7" x="128.32" y="91.79" width="0.95" height="33.65" rx="0.47"/><path class="cls-5" d="M125.59,43.2v1.3c0,11.23-11.87,22.65-31,34.68-19.14-12-31-23.45-31-34.68V43.2c0-11.48,8.11-18.38,18-18.38,5.5,0,9.76,3.12,13.06,7.72,3.3-4.6,7.55-7.72,13.06-7.72C117.49,24.82,125.59,31.72,125.59,43.2Z"/></g><path class="cls-8" d="M18.35,83.81a3.5,3.5,0,1,1,0-7,3.5,3.5,0,1,1,0,7Zm0-5.62a2.11,2.11,0,1,0,2,2.13A2,2,0,0,0,18.35,78.19ZM16.8,89.58V85.13h1.63v3.14h8v1.31Zm5.54-8.29h2.21V79.05H22.34l0-1.33h2.24v-2h1.63V86.08H24.55V82.62H22.31Z"/><path class="cls-8" d="M32.37,83.77a3.49,3.49,0,1,1,0-7,3.49,3.49,0,1,1,0,7Zm0-5.61a2.11,2.11,0,0,0,0,4.22,2,2,0,0,0,2-2.1A2,2,0,0,0,32.37,78.16ZM30.59,89.58V85.1h1.63v3.17h8.13v1.31Zm7.8-3.5V75.74H40V86.08Z"/></svg>