<svg id="Layer_1" data-name="Layer 1" xmlns="http://www.w3.org/2000/svg" xmlns:xlink="http://www.w3.org/1999/xlink" viewBox="0 0 375 152"><defs><style>.cls-1{fill:none;}.cls-2{clip-path:url(#clip-path);}.cls-3{fill:#ffced4;}.cls-4{fill:#ff536c;}.cls-5{fill:#f22649;}.cls-6{fill:#ff7e8a;}.cls-7{fill:#32a572;}.cls-8{fill:#171717;}</style><clipPath id="clip-path"><rect class="cls-1" width="375" height="152"/></clipPath></defs><g class="cls-2"><rect class="cls-3" x="-5.56" y="-4.03" width="383.32" height="159.11"/><path class="cls-4" d="M319.07,80.54V82.4c0,16-16.95,32.37-44.3,49.55-27.35-17.18-44.31-33.51-44.31-49.55V80.54c0-16.4,11.58-26.25,25.66-26.25,7.86,0,13.93,4.46,18.65,11,4.72-6.57,10.8-11,18.66-11C307.5,54.29,319.07,64.14,319.07,80.54Z"/><ellipse class="cls-5" cx="207.12" cy="107.02" rx="4.1" ry="7.41"/><path class="cls-4" d="M195.3,102.37h0a11.82,11.82,0,0,1,11.82,11.82v11.91a.4.4,0,0,1-.4.4h0a11.82,11.82,0,0,1-11.82-11.82V102.77a.4.4,0,0,1,.4-.4Z"/><path class="cls-6" d="M218.94,102.37h0a.4.4,0,0,1,.4.4v11.91a11.82,11.82,0,0,1-11.82,11.82h0a.4.4,0,0,1-.4-.4V114.18a11.82,11.82,0,0,1,11.82-11.82Z" transform="translate(426.46 228.86) rotate(180)"/><path class="cls-7" d="M202.9,131.23a13.28,13.28,0,0,1-6.28,2.17,12.24,12.24,0,0,1,10.5-7.3A13.35,13.35,0,0,1,202.9,131.23Z"/><path class="cls-7" d="M211.34,131.23a13.3,13.3,0,0,0,6.29,2.17,13.43,13.43,0,0,0-4.23-5.13,13.28,13.28,0,0,0-6.28-2.17A13.35,13.35,0,0,0,211.34,131.23Z"/><rect class="cls-7" x="206.49" y="126.1" width="1.26" height="39.78" rx="0.63"/><ellipse class="cls-5" cx="152.58" cy="124.5" rx="4.1" ry="7.41"/><path class="cls-4" d="M140.77,119.85h0a11.82,11.82,0,0,1,11.82,11.82v11.91a.4.4,0,0,1-.4.4h0a11.82,11.82,0,0,1-11.82-11.82V120.26a.4.4,0,0,1,.4-.4Z"/><path class="cls-6" d="M164.4,119.85h0a.4.4,0,0,1,.4.4v11.91A11.82,11.82,0,0,1,153,144h0a.4.4,0,0,1-.4-.4V131.67A11.82,11.82,0,0,1,164.4,119.85Z" transform="translate(317.39 263.83) rotate(-180)"/><path class="cls-7" d="M148.36,148.72a13.28,13.28,0,0,1-6.28,2.17,12.27,12.27,0,0,1,10.5-7.31A13.34,13.34,0,0,1,148.36,148.72Z"/><path class="cls-7" d="M156.81,148.72a13.28,13.28,0,0,0,6.28,2.17,12.27,12.27,0,0,0-10.51-7.31A13.43,13.43,0,0,0,156.81,148.72Z"/><rect class="cls-7" x="151.96" y="143.58" width="1.26" height="39.78" rx="0.63"/><ellipse class="cls-5" cx="101.5" cy="92.3" rx="4.1" ry="7.41"/><path class="cls-4" d="M89.68,87.65h0A11.82,11.82,0,0,1,101.5,99.46v11.91a.4.4,0,0,1-.4.4h0A11.82,11.82,0,0,1,89.28,100V88A.4.4,0,0,1,89.68,87.65Z"/><path class="cls-6" d="M113.31,87.65h0a.4.4,0,0,1,.4.4V100a11.82,11.82,0,0,1-11.82,11.82h0a.4.4,0,0,1-.4-.4V99.46A11.82,11.82,0,0,1,113.31,87.65Z" transform="translate(215.21 199.42) rotate(180)"/><path class="cls-7" d="M97.27,116.51A13.28,13.28,0,0,1,91,118.68a12.24,12.24,0,0,1,10.51-7.3A13.43,13.43,0,0,1,97.27,116.51Z"/><path class="cls-7" d="M105.72,116.51a13.28,13.28,0,0,0,6.28,2.17,12.24,12.24,0,0,0-10.5-7.3A13.35,13.35,0,0,0,105.72,116.51Z"/><rect class="cls-7" x="100.87" y="111.38" width="1.26" height="44.68" rx="0.63"/><ellipse class="cls-5" cx="322.04" cy="128.85" rx="4.1" ry="7.41"/><path class="cls-4" d="M310.23,124.2h0A11.82,11.82,0,0,1,322,136v11.91a.4.4,0,0,1-.4.4h0a11.82,11.82,0,0,1-11.82-11.82V124.6a.4.4,0,0,1,.4-.4Z"/><path class="cls-6" d="M333.86,124.2h0a.4.4,0,0,1,.4.4v11.91a11.82,11.82,0,0,1-11.82,11.82h0a.4.4,0,0,1-.4-.4V136a11.82,11.82,0,0,1,11.82-11.82Z" transform="translate(656.31 272.52) rotate(-180)"/><path class="cls-7" d="M317.82,153.06a13.36,13.36,0,0,1-6.28,2.18,12.23,12.23,0,0,1,10.5-7.31A13.28,13.28,0,0,1,317.82,153.06Z"/><path class="cls-7" d="M326.27,153.06a13.36,13.36,0,0,0,6.28,2.18A12.22,12.22,0,0,0,322,147.93,13.36,13.36,0,0,0,326.27,153.06Z"/><rect class="cls-7" x="321.42" y="147.93" width="1.26" height="39.78" rx="0.63"/><ellipse class="cls-5" cx="357.12" cy="83.27" rx="4.1" ry="7.41"/><path class="cls-4" d="M345.3,78.61h0a11.82,11.82,0,0,1,11.82,11.82v11.91a.4.4,0,0,1-.4.4h0A11.82,11.82,0,0,1,344.9,90.92V79a.4.4,0,0,1,.4-.4Z"/><path class="cls-6" d="M368.94,78.61h0a.4.4,0,0,1,.4.4V90.92a11.82,11.82,0,0,1-11.82,11.82h0a.4.4,0,0,1-.4-.4V90.43a11.82,11.82,0,0,1,11.82-11.82Z" transform="translate(726.46 181.35) rotate(-180)"/><path class="cls-7" d="M352.9,107.48a13.28,13.28,0,0,1-6.28,2.17,12.27,12.27,0,0,1,10.5-7.31A13.34,13.34,0,0,1,352.9,107.48Z"/><path class="cls-7" d="M361.34,107.48a13.3,13.3,0,0,0,6.29,2.17,12.3,12.3,0,0,0-10.51-7.31A13.34,13.34,0,0,0,361.34,107.48Z"/><rect class="cls-7" x="356.49" y="102.34" width="1.26" height="62.57" rx="0.63"/></g><path class="cls-8" d="M26.58,125.61a5.25,5.25,0,1,1,0-10.49,5.25,5.25,0,1,1,0,10.49Zm0-8.43a3.17,3.17,0,0,0,0,6.34,3,3,0,0,0,3-3.15A2.92,2.92,0,0,0,26.58,117.18Zm-2.33,17.09V127.6H26.7v4.7H38.75v2Zm8.3-12.43h3.31v-3.36H32.55l0-2h3.36v-3h2.45V129H35.86v-5.18H32.5Z"/><path class="cls-8" d="M47.6,125.56a5.24,5.24,0,1,1,0-10.47,5.24,5.24,0,1,1,0,10.47Zm0-8.43a3.17,3.17,0,0,0,0,6.34,3.17,3.17,0,0,0,0-6.34Zm-2.66,17.14v-6.72h2.44v4.75h12.2v2ZM56.62,129v-15.5h2.45V129Z"/></svg>