<svg id="Layer_1" data-name="Layer 1" xmlns="http://www.w3.org/2000/svg" xmlns:xlink="http://www.w3.org/1999/xlink" viewBox="0 0 144 104"><defs><style>.cls-1{fill:none;}.cls-2{clip-path:url(#clip-path);}.cls-3{fill:#eac7a3;}.cls-4{fill:#f8e8d4;}.cls-10,.cls-5{fill:#847367;}.cls-6{fill:#fff1df;}.cls-7{fill:#eedbc4;}.cls-8{fill:#ef6660;}.cls-9{fill:#dd4e46;}.cls-10{opacity:0.7;}.cls-11{fill:#171717;}</style><clipPath id="clip-path"><rect class="cls-1" width="144" height="104"/></clipPath></defs><g class="cls-2"><rect class="cls-3" x="-5.89" y="-4.25" width="155.78" height="112.51"/><path class="cls-4" d="M101,106.34c-24.53,0-21.47-10-19.28-16.77,2.6-8.08,7.49-13.44,19.28-13.44s16.69,5.36,19.29,13.44C122.5,96.38,125.56,106.34,101,106.34Z"/><path class="cls-5" d="M70.87,38.65c-6.75,8.68-9.56,22.77-1,25.23,7.33,2.1,11.61-6.94,17.81-16,4.88-7.18,9-14.28,4.18-18.06S77.62,30,70.87,38.65Z"/><path class="cls-5" d="M130.48,38.94c6.41,8.94,8.67,23.13,0,25.25-7.4,1.82-11.34-7.38-17.18-16.7-4.61-7.36-8.48-14.62-3.49-18.21S124.06,30,130.48,38.94Z"/><path class="cls-6" d="M100.36,83.1c-26.69,0-28.62-13.24-24.15-29.76,4-14.66,9.41-24.8,24.15-24.8s20.17,10.14,24.14,24.8C129,69.86,127.05,83.1,100.36,83.1Z"/><path d="M100.36,61c3.2,0,5.79.82,5.79,2.73s-2.59,4.21-5.79,4.21-5.8-2.29-5.8-4.21S97.16,61,100.36,61Z"/><circle cx="91.04" cy="55.5" r="2.83"/><circle cx="109.68" cy="55.5" r="2.83"/><rect class="cls-7" x="61.74" y="86.1" width="42.17" height="22.84" rx="11.42" transform="translate(169.89 3.77) rotate(83.23)"/><rect class="cls-7" x="96.86" y="86.1" width="42.17" height="22.84" rx="11.42" transform="translate(7.21 203.14) rotate(-83.23)"/><path class="cls-1" d="M106,82.53a8.47,8.47,0,0,1,12.15-8.62,8.38,8.38,0,0,1,2.8-.85,8.49,8.49,0,0,1,3.67.38c2.64-5.28,1.95-12.33-.15-20.1-4-14.66-9.4-24.8-24.14-24.8S80.18,38.68,76.21,53.34c-2.11,7.82-2.79,14.9-.1,20.19a9,9,0,0,1,1.81-.43,8.49,8.49,0,0,1,4.73.81,8.47,8.47,0,0,1,12.23,6.57,8.65,8.65,0,0,1-.06,2.39c1.72.14,3.55.23,5.54.23s4-.09,5.72-.24C106.06,82.74,106,82.64,106,82.53Z"/><path class="cls-7" d="M94.88,80.48a8.47,8.47,0,0,0-12.23-6.57,8.49,8.49,0,0,0-4.73-.81,9,9,0,0,0-1.81.43c2.58,5.06,8.26,8.47,18.71,9.34A8.65,8.65,0,0,0,94.88,80.48Z"/><path class="cls-7" d="M121,73.06a8.38,8.38,0,0,0-2.8.85A8.47,8.47,0,0,0,106,82.53c0,.11,0,.21,0,.33,10.4-.9,16-4.34,18.57-9.42A8.49,8.49,0,0,0,121,73.06Z"/><rect class="cls-8" x="80.39" y="78.83" width="39.94" height="8.54" rx="2.66"/><path class="cls-1" d="M106,82.48a8.4,8.4,0,0,1,.38-3.65H94.5a9,9,0,0,1,.38,1.65A8.45,8.45,0,0,1,93,86.83l.07.54h14.28l.11-1A8.47,8.47,0,0,1,106,82.48Z"/><path class="cls-9" d="M94.88,80.48a9,9,0,0,0-.38-1.65H83a2.65,2.65,0,0,0-2.65,2.65v3.23A2.66,2.66,0,0,0,83,87.37H93.1L93,86.83A8.45,8.45,0,0,0,94.88,80.48Z"/><path class="cls-9" d="M120.33,84.71V81.48a2.66,2.66,0,0,0-2.66-2.65h-11.3a8.44,8.44,0,0,0,1.12,7.56l-.11,1h10.29A2.67,2.67,0,0,0,120.33,84.71Z"/><rect class="cls-4" x="98.95" y="87.3" width="42.17" height="22.84" rx="11.42" transform="translate(232.22 -8.83) rotate(96.77)"/><rect class="cls-6" x="110.37" y="78.26" width="22.84" height="11.22" rx="5.61" transform="translate(10.74 -13.77) rotate(6.77)"/><ellipse class="cls-10" cx="121.34" cy="87.7" rx="6.71" ry="6.63" transform="translate(19.95 197.85) rotate(-83.23)"/><circle class="cls-6" cx="114.26" cy="82.28" r="6.63"/><circle class="cls-6" cx="122.13" cy="81.04" r="6.63"/><circle class="cls-6" cx="129.53" cy="84.09" r="6.63"/><rect class="cls-4" x="59.6" y="87.3" width="42.17" height="22.84" rx="11.42" transform="translate(169.21 6.96) rotate(83.23)"/><rect class="cls-6" x="67.5" y="78.26" width="22.84" height="11.22" rx="5.61" transform="translate(167.18 157.84) rotate(173.23)"/><ellipse class="cls-10" cx="79.38" cy="87.7" rx="6.63" ry="6.71" transform="translate(-9.79 9.97) rotate(-6.77)"/><circle class="cls-6" cx="86.46" cy="82.28" r="6.63"/><circle class="cls-6" cx="78.59" cy="81.04" r="6.63"/><circle class="cls-6" cx="71.18" cy="84.09" r="6.63"/></g><path class="cls-11" d="M14.85,83.82V76.68h1.64V79h3.35V76.65h1.63v7.17Zm1.52,5.75V85.09H18v3.15h7.92v1.33Zm3.47-9.29H16.49v2.25h3.35Zm5.68-.48h2.1v1.38h-2.1v4.87H23.87V75.74h1.65Z"/><path class="cls-11" d="M36,86.35a29.73,29.73,0,0,1-5.55.38H28.83V80.89h4.46V78.3H28.83V77h6.11v5.23H30.46v3.15A32.09,32.09,0,0,0,35.78,85Zm0-3.51h2.46V80.51H35.92V79.16h2.46V75.74H40V90H38.38V84.19H35.92Z"/><path class="cls-11" d="M43,84.43l-.88-1.3c2.61-.56,5-2.32,5.47-4.91H42.86V76.86h6.56C49.28,80.72,46.88,83.21,43,84.43Zm1.53,5.2V85.18h1.65v3.14h8v1.31Zm7.65-3.55v-3h-2.8V81.74h2.8V79.9H49.6V78.57h2.62V75.74h1.64V86.08Z"/></svg>