<svg id="Layer_1" data-name="Layer 1" xmlns="http://www.w3.org/2000/svg" xmlns:xlink="http://www.w3.org/1999/xlink" viewBox="0 0 144 104"><defs><style>.cls-1{fill:none;}.cls-2{clip-path:url(#clip-path);}.cls-3{fill:#ffa400;}.cls-4{fill:#e78c00;}.cls-5{fill:#ffb638;}.cls-6{fill:#d8911a;}.cls-7{fill:#f1f1f1;}.cls-8{fill:#fff;}.cls-9{fill:#171717;}</style><clipPath id="clip-path"><rect class="cls-1" width="144" height="104"/></clipPath></defs><g class="cls-2"><rect class="cls-3" x="-5.58" y="-4.03" width="155.17" height="112.06"/><polygon class="cls-4" points="140.58 56.36 101.16 60.23 62.69 84.99 78.96 117.1 140.58 117.1 140.58 56.36"/><path class="cls-4" d="M60.79,40.22a2.53,2.53,0,0,1,1.41-3l1.53-.63L63,35.11A2.53,2.53,0,0,1,64,31.93a2,2,0,0,1,2.89.81L67,33c4.61-5.72,13.94-9.92,24.3-7.46l4.13-1.69a3.76,3.76,0,0,1,5.09,2.51,2,2,0,0,1,0,.26l1-.41a3.75,3.75,0,0,1,5.09,2.5,4.76,4.76,0,0,1-.52,3.76,3.74,3.74,0,0,1,4.53,2.66,4.67,4.67,0,0,1-.09,2.84,35.65,35.65,0,0,0,2.9,2.79c.9.69.61,1,8.86,0,9.81-1.16,13.73,2.82,5.93,10.28-3.23,3.08-4.71,5.36-5.73,8s-1.43,5.36-1.08,9.8c.85,10.77-4.73,11.12-11.27,3.72-5.5-6.21-5.47-5.83-6.61-5.91a16.57,16.57,0,0,0-1.84,0,4.75,4.75,0,0,1-1.8,2.12,3.76,3.76,0,0,1-5.16-1,4.78,4.78,0,0,1-2.11,3.16h0a3.76,3.76,0,0,1-5.46-1.53l-.49-1c-.07.05-.13.12-.21.17h0A3.76,3.76,0,0,1,81,67l-1.2-2.45C68.37,60,63.3,49.52,63.71,41.45l-.23.09A2,2,0,0,1,60.79,40.22Z"/><path class="cls-5" d="M64,36.82a2.53,2.53,0,0,1,1.41-3l1.53-.62-.73-1.49a2.55,2.55,0,0,1,.95-3.18,2,2,0,0,1,2.89.81l.11.22c4.61-5.72,13.94-9.91,24.3-7.45l4.13-1.69a3.75,3.75,0,0,1,5.09,2.5c0,.08,0,.17,0,.26l1-.41a3.75,3.75,0,0,1,5.09,2.5,4.76,4.76,0,0,1-.53,3.76,3.74,3.74,0,0,1,4.54,2.66,4.67,4.67,0,0,1-.1,2.84,35.55,35.55,0,0,0,2.9,2.79c.91.69.62,1,8.86,0,9.81-1.16,13.74,2.82,5.94,10.28-3.24,3.08-4.72,5.36-5.74,8s-1.43,5.36-1.08,9.8c.86,10.77-4.73,11.12-11.27,3.72-5.5-6.21-5.46-5.83-6.6-5.91a16.75,16.75,0,0,0-1.85,0,4.68,4.68,0,0,1-1.8,2.12,3.74,3.74,0,0,1-5.15-1,4.77,4.77,0,0,1-2.12,3.16h0A3.76,3.76,0,0,1,90.35,66l-.48-1a1.84,1.84,0,0,1-.22.17h0a3.76,3.76,0,0,1-5.46-1.53L83,61.17C71.55,56.61,66.48,46.12,66.89,38.05l-.23.09A2,2,0,0,1,64,36.82Z"/><path class="cls-6" d="M89.68,52.51a.9.9,0,0,1,1-.72c.1,0,2.44.41,3.24-1.57s-1.17-3.32-1.26-3.38a.89.89,0,0,1-.25-1.23s0,0,.08-.07a.69.69,0,0,1,.17-.17s0,0,.07,0a.83.83,0,0,1,.58-.11c.1,0,2.44.41,3.24-1.58s-1.17-3.31-1.26-3.38a.85.85,0,0,1-.38-.86v0a.88.88,0,0,1,1-.72c.1,0,2.46.39,3.24-1.58S98,33.77,97.94,33.7a.88.88,0,0,1,1-1.47,4.66,4.66,0,0,1,1.92,5.51,4.19,4.19,0,0,1-3.07,2.58h0a4.25,4.25,0,0,1-2.62,6.57h0a4.25,4.25,0,0,1-2.63,6.56,5.56,5.56,0,0,1-2.12.08A.89.89,0,0,1,89.68,52.51Z"/><path class="cls-6" d="M98.07,55.27a.9.9,0,0,1,1-.72c.1,0,2.44.41,3.24-1.57s-1.17-3.32-1.26-3.38a.88.88,0,0,1-.25-1.22.6.6,0,0,1,.08-.08.91.91,0,0,1,.17-.17l.07,0a.88.88,0,0,1,.58-.11c.1,0,2.44.41,3.24-1.57S103.8,43.1,103.71,43a.87.87,0,0,1-.38-.86v0a.88.88,0,0,1,1-.72c.1,0,2.46.39,3.24-1.57s-1.17-3.32-1.26-3.38a.89.89,0,0,1-.24-1.23.88.88,0,0,1,1.22-.24,4.65,4.65,0,0,1,1.92,5.5,4.19,4.19,0,0,1-3.07,2.58h0a4.25,4.25,0,0,1-2.62,6.57h0a4.25,4.25,0,0,1-2.62,6.57,5.53,5.53,0,0,1-2.12.07A.88.88,0,0,1,98.07,55.27Z"/><path class="cls-6" d="M82.26,36.9a3.11,3.11,0,0,1-1.77-1.68,3.2,3.2,0,0,1-.07-2.45A3.28,3.28,0,0,1,82.1,31a3.19,3.19,0,0,1,4.22,1.61A3.23,3.23,0,0,1,84.11,37,3.1,3.1,0,0,1,82.26,36.9Zm.57-4.31a1.47,1.47,0,0,0-.76.81,1.49,1.49,0,0,0,0,1.1,1.39,1.39,0,0,0,.79.75,1.42,1.42,0,0,0,1.84-.84,1.4,1.4,0,0,0,0-1.1,1.37,1.37,0,0,0-.78-.75,1.44,1.44,0,0,0-.82-.06A1.43,1.43,0,0,0,82.83,32.59Z"/><path class="cls-6" d="M81.17,39.75a6.25,6.25,0,0,1-3.57-8.06h0a6.19,6.19,0,1,1,3.56,8.06Zm-1.92-7.43h0a4.47,4.47,0,1,0,3.18-2.78A4.48,4.48,0,0,0,79.25,32.32Z"/><path class="cls-4" d="M72.34-20.53a2.22,2.22,0,0,0-2.07-2l-1.45-.06L69-24.07a2.22,2.22,0,0,0-1.74-2.33,1.74,1.74,0,0,0-2.14,1.53l0,.22c-5.53-3.32-14.48-4-22.28,1.19l-3.91-.15A3.3,3.3,0,0,0,35.44-20a2,2,0,0,0,0,.24l-1,0a3.3,3.3,0,0,0-3.44,3.6,4.17,4.17,0,0,0,1.57,2.94A3.29,3.29,0,0,0,29.7-9.71a4.1,4.1,0,0,0,.94,2.31,33.27,33.27,0,0,1-1.55,3.18c-.54.85-.22,1-7.3,2.67C13.35.45,11.32,4.92,20,8.71a18.17,18.17,0,0,1,7.15,4.89A18.27,18.27,0,0,1,31,21.36c2.54,9.13,7.25,7.73,10.41-.34,2.66-6.78,2.74-6.45,3.66-6.86a14.19,14.19,0,0,1,1.53-.55,4,4,0,0,0,2.12,1.21,3.28,3.28,0,0,0,3.93-2.41,4.17,4.17,0,0,0,2.7,2h0a3.29,3.29,0,0,0,4-2.9l.1-1a2,2,0,0,0,.23.07h0a3.29,3.29,0,0,0,4-2.9L64,5.29c8.07-7.21,9.08-17.39,6.3-23.92h.22A1.75,1.75,0,0,0,72.34-20.53Z"/><path class="cls-5" d="M71.51-24.77a2.22,2.22,0,0,0-2.07-2.05L68-26.87l.15-1.44a2.2,2.2,0,0,0-1.74-2.33,1.74,1.74,0,0,0-2.14,1.53l0,.22c-5.53-3.33-14.48-4-22.28,1.19l-3.91-.15a3.3,3.3,0,0,0-3.44,3.6,1.6,1.6,0,0,0,0,.23l-1,0a3.29,3.29,0,0,0-3.44,3.6,4.17,4.17,0,0,0,1.57,2.94,3.29,3.29,0,0,0-2.94,3.56,4.13,4.13,0,0,0,.94,2.31,33.27,33.27,0,0,1-1.55,3.18c-.54.84-.22,1-7.3,2.67-8.44,2-10.47,6.47-1.79,10.26a18.17,18.17,0,0,1,7.15,4.89,18.22,18.22,0,0,1,3.85,7.75c2.54,9.14,7.25,7.74,10.41-.33,2.66-6.78,2.74-6.46,3.66-6.86a14.19,14.19,0,0,1,1.53-.55,4.08,4.08,0,0,0,2.12,1.21,3.28,3.28,0,0,0,3.93-2.41,4.21,4.21,0,0,0,2.7,2h0a3.3,3.3,0,0,0,4-2.91l.1-1a2,2,0,0,0,.23.07h0a3.29,3.29,0,0,0,4-2.9l.24-2.38c8.07-7.22,9.08-17.4,6.3-23.92h.22A1.74,1.74,0,0,0,71.51-24.77Z"/><path class="cls-6" d="M49,.73A.78.78,0,0,0,47.91.45C47.83.5,46,1.53,44.76.13s0-3.08,0-3.16a.78.78,0,0,0-.17-1.09s0,0-.08,0a.64.64,0,0,0-.19-.08h-.07a.71.71,0,0,0-.51.09c-.08,0-1.89,1.07-3.15-.32s0-3.09,0-3.17a.76.76,0,0,0,0-.82,0,0,0,0,0,0,0,.77.77,0,0,0-1.05-.29c-.08,0-1.91,1.06-3.15-.32s0-3.08,0-3.16a.78.78,0,0,0-.17-1.08.77.77,0,0,0-1.08.16,4.08,4.08,0,0,0,.07,5.12,3.69,3.69,0,0,0,3.31,1.2h0a3.69,3.69,0,0,0,.84,3.42,3.69,3.69,0,0,0,3.31,1.2h0a3.68,3.68,0,0,0,.84,3.42,3.67,3.67,0,0,0,3.31,1.2,4.9,4.9,0,0,0,1.77-.58A.78.78,0,0,0,49,.73Z"/><path class="cls-4" d="M13.76,66.55a1.52,1.52,0,0,1-.8-1.81l.32-.94-1-.25a1.51,1.51,0,0,1-1.06-1.67,1.18,1.18,0,0,1,1.49-1l.15,0A14.52,14.52,0,0,1,19,47l.86-2.52A2.24,2.24,0,0,1,23,43.19l.14.08.21-.62a2.24,2.24,0,0,1,3.12-1.32A2.85,2.85,0,0,1,28,43a2.23,2.23,0,0,1,3-1,2.79,2.79,0,0,1,1.25,1.15A20.89,20.89,0,0,0,34.6,43c.67-.14.68.1,3.47-4,3.31-4.89,6.65-5.1,7,1.34a11.66,11.66,0,0,0,5.38,10.06c5.2,3.83,3.17,6.49-2.73,6.54-5,.06-4.77.19-5.25.68a8.69,8.69,0,0,0-.72.84A2.71,2.71,0,0,1,42,60.07,2.23,2.23,0,0,1,39.49,62a2.86,2.86,0,0,1,.59,2.19h0a2.24,2.24,0,0,1-2.82,1.87l-.64-.17a.86.86,0,0,1,0,.16h0a2.24,2.24,0,0,1-2.83,1.87l-1.57-.42c-6.54,3.39-13.27,1.57-16.75-1.78l-.05.14A1.18,1.18,0,0,1,13.76,66.55Z"/><path class="cls-5" d="M13.47,63.79a1.53,1.53,0,0,1-.8-1.82L13,61l-1-.26A1.51,1.51,0,0,1,11,59.11a1.19,1.19,0,0,1,1.49-1l.14,0a14.53,14.53,0,0,1,6.15-13.89l.86-2.53a2.24,2.24,0,0,1,3.12-1.32l.14.08.21-.62a2.25,2.25,0,0,1,3.12-1.32,2.88,2.88,0,0,1,1.5,1.71,2.22,2.22,0,0,1,3-1,2.79,2.79,0,0,1,1.25,1.15,20.48,20.48,0,0,0,2.39-.22c.67-.13.68.1,3.47-4,3.31-4.89,6.65-5.1,7,1.34A11.7,11.7,0,0,0,50.13,47.6c5.2,3.84,3.17,6.49-2.73,6.55-5,.05-4.77.19-5.26.67a8.75,8.75,0,0,0-.71.84,2.79,2.79,0,0,1,.25,1.64,2.22,2.22,0,0,1-2.48,1.92,2.88,2.88,0,0,1,.59,2.2h0A2.23,2.23,0,0,1,37,63.28l-.64-.17c0,.06,0,.11,0,.17h0a2.25,2.25,0,0,1-2.83,1.87l-1.57-.42C25.38,68.11,18.65,66.29,15.17,63l-.05.14A1.19,1.19,0,0,1,13.47,63.79Z"/><path class="cls-6" d="M30.62,58.31a.53.53,0,0,1,.08-.74,1.6,1.6,0,0,0-1.46-2.83.54.54,0,0,1-.65-.37s0,0,0-.06a.38.38,0,0,1,0-.15s0,0,0,0a.5.5,0,0,1,.18-.31A1.6,1.6,0,0,0,27.3,51a.51.51,0,0,1-.53-.17h0a.53.53,0,0,1,.07-.74,1.6,1.6,0,0,0-1.45-2.84.53.53,0,1,1-.29-1,2.78,2.78,0,0,1,3.24,1.28,2.5,2.5,0,0,1,0,2.4h0a2.55,2.55,0,0,1,1.94,3.76h0a2.53,2.53,0,0,1,1.93,3.75,3.1,3.1,0,0,1-.8,1A.52.52,0,0,1,30.62,58.31Z"/><path class="cls-6" d="M35.16,55.61a.54.54,0,0,1,.07-.75,1.74,1.74,0,0,0,.56-2.08,1.77,1.77,0,0,0-2-.75.53.53,0,0,1-.65-.37V51.6a.34.34,0,0,1,0-.14s0,0,0-.05a.55.55,0,0,1,.18-.3A1.77,1.77,0,0,0,33.86,49a1.8,1.8,0,0,0-2-.76.51.51,0,0,1-.54-.16l0,0a.53.53,0,0,1,.08-.74,1.6,1.6,0,0,0-1.46-2.83.54.54,0,0,1-.65-.37.53.53,0,0,1,.37-.65,2.77,2.77,0,0,1,3.24,1.29,2.51,2.51,0,0,1,0,2.39h0a2.55,2.55,0,0,1,1.94,3.76h0a2.54,2.54,0,0,1,1.93,3.76,3.18,3.18,0,0,1-.79,1A.52.52,0,0,1,35.16,55.61Z"/><path class="cls-6" d="M20.67,55.56a1.88,1.88,0,0,1-1.45.14,1.9,1.9,0,0,1-1.13-.93A1.9,1.9,0,0,1,20.31,52a1.92,1.92,0,0,1,.36,3.52Zm-1.72-2a.84.84,0,0,0,.07.66.86.86,0,0,0,.51.42.84.84,0,0,0,1-1.22.82.82,0,0,0-.51-.42.8.8,0,0,0-.64.06.84.84,0,0,0-.35.35A.47.47,0,0,0,19,53.61Z"/><path class="cls-6" d="M21.53,57.16a3.71,3.71,0,0,1-5-1.54h0a3.73,3.73,0,0,1,1.5-5,3.67,3.67,0,0,1,2.83-.27,3.76,3.76,0,0,1,2.22,5.33A3.67,3.67,0,0,1,21.53,57.16Zm-4.1-2h0a2.65,2.65,0,1,0,3.09-3.81,2.63,2.63,0,0,0-2,.19,2.66,2.66,0,0,0-1.07,3.62Z"/><polygon class="cls-7" points="133.51 133.34 99.02 148.7 71.58 87.06 104.92 69.11 133.51 133.34"/><polygon class="cls-8" points="168.02 118.01 133.53 133.36 104.93 69.13 140.58 56.36 168.02 118.01"/></g><path class="cls-9" d="M15.05,83V76.7H21.6V83Zm11.14,1.84V90H24.56V86.09h-8V84.81ZM20,78H16.69v3.68H20Zm4.6,6.06v-3.7H22.31V79h2.24V75.74h1.63v8.32Z"/><path class="cls-9" d="M29.13,87.38l-1-1.25a9.6,9.6,0,0,0,5.62-7.54H28.91V77.24h6.58A11.36,11.36,0,0,1,29.13,87.38ZM38.4,90V82.75H35.49V81.37H38.4V75.74H40V90Z"/><path class="cls-9" d="M51.09,86.22a39.72,39.72,0,0,1-6.39.45l-1.76,0V80.92h4.84V78.3h-4.9V77h6.53v5.25H44.57v3.09a39.75,39.75,0,0,0,6.34-.45ZM52.23,90V75.74h1.63V90Z"/></svg>