<svg id="Layer_1" data-name="Layer 1" xmlns="http://www.w3.org/2000/svg" xmlns:xlink="http://www.w3.org/1999/xlink" viewBox="0 0 375 152"><defs><style>.cls-1{fill:none;}.cls-2{clip-path:url(#clip-path);}.cls-3{fill:#32a572;}.cls-4{fill:#6bb48d;}.cls-5{opacity:0.6;}.cls-6{fill:#005425;}.cls-7{fill:#7ac099;}.cls-8{fill:#b4e1c9;}.cls-9{fill:#ddf0e5;}.cls-10{opacity:0.5;}.cls-11{fill:#c2e3d0;}.cls-12{fill:#fff;}</style><clipPath id="clip-path"><rect class="cls-1" width="375" height="152"/></clipPath></defs><g class="cls-2"><rect class="cls-3" x="-5.56" y="-4.03" width="383.32" height="159.11"/><path class="cls-4" d="M44.17,106.16c4.27,22.46-15.29,25.13-28.55,25.13s-29-6.53-26.15-25.83c2.79-18.6,12.89-49.35,26.15-49.35S40.21,85.33,44.17,106.16Z"/><path class="cls-4" d="M79,115.93C81.54,138.5,65.1,142.27,52,142.27s-28.65-6.14-26.88-25.5C26.94,96.42,38.81,67.09,52,67.09S76.72,95.28,79,115.93Z"/><rect class="cls-4" x="-5.56" y="115.45" width="383.32" height="38.04"/><g class="cls-5"><path class="cls-6" d="M177.2,122c-.6,0-1.09-.26-1.09-1.37V66.33c0-1.5.49-2.72,1.09-2.72s1.08,1.22,1.08,2.72v54.31C178.28,121.84,177.8,122,177.2,122Z"/></g><ellipse class="cls-7" cx="177.2" cy="55.84" rx="11.04" ry="13.46"/><ellipse class="cls-7" cx="177.2" cy="74.75" rx="13.8" ry="16.83"/><ellipse class="cls-7" cx="177.2" cy="93.08" rx="15.52" ry="18.92"/><path class="cls-8" d="M142.32,98.46c1,14.84-5.69,18.77-11.71,18.77s-13.18-4.93-11.87-19.52c1.27-14.06,6-37.31,12-37.31S141.32,82.64,142.32,98.46Z"/><g class="cls-5"><path class="cls-6" d="M134.56,100.34a.47.47,0,0,0-.64.21L131,106.44V93.65a.47.47,0,0,0-.94,0v30.44a.47.47,0,0,0,.94,0V108.46l3.8-7.49A.47.47,0,0,0,134.56,100.34Z"/></g><path class="cls-9" d="M167.51,112.32c0,11.25-6.5,12.7-14.52,12.7s-14.52-3.06-14.52-12.7C138.47,96,145,87.66,153,87.66S167.51,94.59,167.51,112.32Z"/><g class="cls-10"><path class="cls-6" d="M156.77,113.67a.48.48,0,0,0-.63.23L154,118.83V108.15a.47.47,0,0,0-.94,0v21.46a.47.47,0,0,0,.94,0v-8.49l0,0,3-6.78A.48.48,0,0,0,156.77,113.67Z"/></g><path class="cls-4" d="M420.32,126.08C417.58,86.8,409.31,58,399.65,58c-4.78,0-9.21,7-12.81,18.92-4.33-24.52-11.4-40.63-19.33-40.63-6.64,0-12.69,11.32-17,29.44a10.24,10.24,0,0,0-6.74-2.91c-11.91,0-22.17,26.51-26.11,63.31Z"/><path class="cls-3" d="M310.1,136.43a.71.71,0,0,0-.91-.46l-13.62,4.43c-5.36-2.62-15.26-3-32.58,1.86a8,8,0,0,0-1.56-1.27l12.35-4a.71.71,0,0,0,.46-.91.72.72,0,0,0-.91-.46L259.71,140c-6.08-3-18-3.06-40,4.1-24.19,7.87-53,21.41-47.08,24.63,3.76,2.05,20.68-.58,38.72-4.78-3.31,2.34-4.62,4.2-2.86,5.15,5.92,3.22,44.34-5.11,68.52-13,24.43-7.94,25-11.72,20.27-14.79l12.35-4A.72.72,0,0,0,310.1,136.43Z"/><path class="cls-9" d="M330.44,91c0,30.32-9.41,34.23-21,34.23s-21-8.25-21-34.23c0-27.79,9.42-66.44,21-66.44S330.44,63.17,330.44,91Z"/><path class="cls-6" d="M309.41,137a.76.76,0,0,1-.75-.75V77.08a.75.75,0,1,1,1.5,0v59.21A.75.75,0,0,1,309.41,137Z"/><path class="cls-6" d="M309.61,113.35a.84.84,0,0,1-.34-.08.75.75,0,0,1-.33-1l7-13.88a.76.76,0,0,1,1-.33.75.75,0,0,1,.33,1l-7,13.88A.75.75,0,0,1,309.61,113.35Z"/><path class="cls-11" d="M295,109.77c0,17.26-10,19.49-22.28,19.49s-22.27-4.7-22.27-19.49c0-25,10-37.82,22.27-37.82S295,82.57,295,109.77Z"/><path class="cls-6" d="M273.56,137a.7.7,0,0,1-.7-.7V103.37a.7.7,0,1,1,1.4,0v32.92A.71.71,0,0,1,273.56,137Z"/><path class="cls-6" d="M274,122.58a.65.65,0,0,1-.29-.07.69.69,0,0,1-.34-.92l4.29-9.38a.72.72,0,0,1,.93-.35.71.71,0,0,1,.34.93l-4.29,9.38A.7.7,0,0,1,274,122.58Z"/></g><path class="cls-12" d="M32.31,129.85c-2-1.1-4.58-3.84-5.25-6a11.41,11.41,0,0,1-5.28,6.52l-1.54-1.82a10.71,10.71,0,0,0,5.54-9.65v-1.13H21.32v-2H32.67v2H28.33v1.13a10.22,10.22,0,0,0,5.4,9.22Zm5-8h3.24V124H37.33v10.94H34.86V113.51h2.47Z"/><path class="cls-12" d="M47.34,125.61a5.25,5.25,0,1,1,0-10.49,5.25,5.25,0,1,1,0,10.49Zm0-8.43a3.17,3.17,0,1,0,3,3.19A2.92,2.92,0,0,0,47.34,117.18ZM45,134.27V127.6h2.45v4.7h12v2Zm8.3-12.43h3.31v-3.36H53.31l-.05-2h3.36v-3h2.45V129H56.62v-5.18H53.26Z"/></svg>